# Blender 5.1.1
# www.blender.org
mtllib teacup.mtl
o teacup
v 0.000000 0.045000 0.090501
v 0.020250 0.000000 -0.000029
v 0.000000 0.045000 0.083442
v 0.022500 0.000000 -0.000029
v 0.000000 0.044999 0.077162
v 0.000000 0.044995 0.071516
v 0.022068 -0.004390 -0.000029
v 0.000000 0.044983 0.066374
v 0.000000 0.044958 0.061623
v 0.019861 -0.003951 -0.000029
v 0.000000 0.044912 0.057164
v 0.000000 0.044837 0.052914
v 0.000000 0.044722 0.048806
v 0.020787 -0.008610 -0.000029
v 0.000000 0.044555 0.044788
v 0.018709 -0.007749 -0.000029
v 0.000000 0.044322 0.040824
v 0.000000 0.044007 0.036891
v 0.016837 -0.011250 -0.000029
v 0.000000 0.043594 0.032985
v 0.000000 0.043062 0.029115
v 0.018708 -0.012500 -0.000029
v 0.000000 0.042377 0.025303
v 0.000000 0.041479 0.021576
v 0.000000 0.040278 0.017973
v 0.014319 -0.014319 -0.000029
v 0.015910 -0.015910 -0.000029
v 0.000000 0.038658 0.014537
v 0.000000 0.036475 0.011320
v 0.000000 0.033557 0.008382
v 0.012500 -0.018708 -0.000029
v 0.000000 0.029705 0.005791
v 0.011250 -0.016837 -0.000029
v 0.000000 0.024692 0.003620
v 0.000000 0.018263 0.001954
v 0.000000 0.010136 0.000881
v 0.000000 0.000000 0.000501
v 0.007749 -0.018709 -0.000029
v 0.008610 -0.020787 -0.000029
v -0.031820 0.031820 0.090501
v -0.031820 0.031820 0.083442
v -0.031819 0.031819 0.077162
v -0.031816 0.031816 0.071516
v 0.003951 -0.019861 -0.000029
v -0.031808 0.031808 0.066374
v 0.004390 -0.022068 -0.000029
v -0.031790 0.031790 0.061623
v -0.031758 0.031758 0.057164
v 0.000000 -0.020250 -0.000029
v -0.031705 0.031705 0.052914
v 0.000000 -0.022500 -0.000029
v -0.031623 0.031623 0.048806
v -0.031505 0.031505 0.044788
v -0.031340 0.031340 0.040824
v -0.031118 0.031118 0.036891
v -0.004390 -0.022068 -0.000029
v -0.030825 0.030825 0.032985
v -0.003951 -0.019861 -0.000029
v -0.030449 0.030449 0.029115
v -0.029965 0.029965 0.025303
v -0.029330 0.029330 0.021576
v -0.008610 -0.020787 -0.000029
v -0.028481 0.028481 0.017973
v -0.007749 -0.018709 -0.000029
v -0.027335 0.027335 0.014537
v -0.025791 0.025791 0.011320
v -0.011250 -0.016837 -0.000029
v -0.023728 0.023728 0.008382
v -0.021005 0.021005 0.005791
v -0.012500 -0.018708 -0.000029
v -0.017460 0.017460 0.003620
v -0.012914 0.012914 0.001954
v -0.015910 -0.015910 -0.000029
v -0.007167 0.007167 0.000881
v -0.014319 -0.014319 -0.000029
v -0.045000 0.000000 0.090501
v -0.045000 0.000000 0.083442
v -0.016837 -0.011250 -0.000029
v -0.044999 0.000000 0.077162
v -0.018708 -0.012500 -0.000029
v -0.044995 0.000000 0.071516
v -0.044983 0.000000 0.066374
v -0.044958 0.000000 0.061623
v -0.044912 0.000000 0.057164
v -0.020787 -0.008610 -0.000029
v -0.044837 0.000000 0.052914
v -0.018709 -0.007749 -0.000029
v -0.044722 0.000000 0.048806
v -0.044555 0.000000 0.044788
v -0.022068 -0.004390 -0.000029
v -0.044322 0.000000 0.040824
v -0.044007 0.000000 0.036891
v -0.019861 -0.003951 -0.000029
v -0.043594 0.000000 0.032985
v -0.043062 0.000000 0.029115
v -0.022500 0.000000 -0.000029
v -0.042377 0.000000 0.025303
v -0.020250 0.000000 -0.000029
v -0.041479 0.000000 0.021576
v -0.040278 0.000000 0.017973
v -0.038658 0.000000 0.014537
v -0.036475 0.000000 0.011320
v -0.019861 0.003951 -0.000029
v -0.022068 0.004390 -0.000029
v -0.033557 0.000000 0.008382
v -0.029705 0.000000 0.005791
v -0.024692 0.000000 0.003620
v -0.018263 0.000000 0.001954
v -0.020787 0.008610 -0.000029
v -0.010136 0.000000 0.000881
v -0.018709 0.007749 -0.000029
v -0.031820 -0.031820 0.090501
v -0.018708 0.012500 -0.000029
v -0.031820 -0.031820 0.083442
v -0.016837 0.011250 -0.000029
v -0.031819 -0.031819 0.077162
v -0.031816 -0.031816 0.071516
v -0.031808 -0.031808 0.066374
v -0.031790 -0.031790 0.061623
v -0.015910 0.015910 -0.000029
v -0.031758 -0.031758 0.057164
v -0.014319 0.014319 -0.000029
v -0.031705 -0.031705 0.052914
v -0.031623 -0.031623 0.048806
v -0.011250 0.016837 -0.000029
v -0.031505 -0.031505 0.044788
v -0.012500 0.018708 -0.000029
v -0.031340 -0.031340 0.040824
v -0.031118 -0.031118 0.036891
v -0.030825 -0.030825 0.032985
v -0.030449 -0.030449 0.029115
v -0.007749 0.018709 -0.000029
v -0.029965 -0.029965 0.025303
v -0.008610 0.020787 -0.000029
v -0.029330 -0.029330 0.021576
v -0.028481 -0.028481 0.017973
v -0.027335 -0.027335 0.014537
v -0.004390 0.022068 -0.000029
v -0.003951 0.019861 -0.000029
v -0.025791 -0.025791 0.011320
v -0.023728 -0.023728 0.008382
v -0.021005 -0.021005 0.005791
v 0.000000 0.022500 -0.000029
v -0.017460 -0.017460 0.003620
v -0.012914 -0.012914 0.001954
v 0.000000 0.020250 -0.000029
v -0.007167 -0.007167 0.000881
v 0.000000 -0.045000 0.090501
v 0.003951 0.019861 -0.000029
v 0.004390 0.022068 -0.000029
v 0.000000 -0.045000 0.083442
v 0.000000 -0.044999 0.077162
v 0.000000 -0.044995 0.071516
v 0.007749 0.018709 -0.000029
v 0.000000 -0.044983 0.066374
v 0.000000 -0.044958 0.061623
v 0.008610 0.020787 -0.000029
v 0.000000 -0.044912 0.057164
v 0.000000 -0.044837 0.052914
v 0.000000 -0.044722 0.048806
v 0.012500 0.018708 -0.000029
v 0.000000 -0.044555 0.044788
v 0.011250 0.016837 -0.000029
v 0.000000 -0.044322 0.040824
v 0.000000 -0.044007 0.036891
v 0.015910 0.015910 -0.000029
v 0.000000 -0.043594 0.032985
v 0.014319 0.014319 -0.000029
v 0.000000 -0.043062 0.029115
v 0.000000 -0.042377 0.025303
v 0.000000 -0.041479 0.021576
v 0.000000 -0.040278 0.017973
v 0.018708 0.012500 -0.000029
v 0.016837 0.011250 -0.000029
v 0.000000 -0.038658 0.014537
v 0.000000 -0.036475 0.011320
v 0.000000 -0.033557 0.008382
v 0.000000 -0.029705 0.005791
v 0.018709 0.007749 -0.000029
v 0.020787 0.008610 -0.000029
v 0.000000 -0.024692 0.003620
v 0.000000 -0.018263 0.001954
v 0.000000 -0.010136 0.000881
v 0.022068 0.004390 -0.000029
v 0.019861 0.003951 -0.000029
v 0.031820 -0.031820 0.090501
v 0.031820 -0.031820 0.083442
v 0.031819 -0.031819 0.077162
v 0.031816 -0.031816 0.071516
v 0.031808 -0.031808 0.066374
v 0.031790 -0.031790 0.061623
v 0.031758 -0.031758 0.057164
v 0.031705 -0.031705 0.052914
v 0.031623 -0.031623 0.048806
v 0.031505 -0.031505 0.044788
v 0.031340 -0.031340 0.040824
v 0.031118 -0.031118 0.036891
v 0.030825 -0.030825 0.032985
v 0.030449 -0.030449 0.029115
v 0.029965 -0.029965 0.025303
v 0.029330 -0.029330 0.021576
v 0.028481 -0.028481 0.017973
v 0.027335 -0.027335 0.014537
v 0.025791 -0.025791 0.011320
v 0.023728 -0.023728 0.008382
v 0.021005 -0.021005 0.005791
v 0.017460 -0.017460 0.003620
v 0.012914 -0.012914 0.001954
v 0.007167 -0.007167 0.000881
v 0.045000 -0.000000 0.090501
v 0.045000 -0.000000 0.083442
v 0.044999 -0.000000 0.077162
v 0.044995 -0.000000 0.071516
v 0.044983 -0.000000 0.066374
v 0.044958 -0.000000 0.061623
v 0.044912 0.000000 0.057164
v 0.044837 -0.000000 0.052914
v 0.044722 -0.000000 0.048806
v 0.044555 -0.000000 0.044788
v 0.044322 -0.000000 0.040824
v 0.044007 0.000000 0.036891
v 0.043594 -0.000000 0.032985
v 0.043062 -0.000000 0.029115
v 0.042377 -0.000000 0.025303
v 0.041479 -0.000000 0.021576
v 0.040278 -0.000000 0.017973
v 0.038658 -0.000000 0.014537
v 0.036475 -0.000000 0.011320
v 0.033557 0.000000 0.008382
v 0.029705 -0.000000 0.005791
v 0.024692 -0.000000 0.003620
v 0.018263 -0.000000 0.001954
v 0.010136 -0.000000 0.000881
v 0.031820 0.031820 0.090501
v 0.031820 0.031820 0.083442
v 0.031819 0.031819 0.077162
v 0.031816 0.031816 0.071516
v 0.031808 0.031808 0.066374
v 0.031790 0.031790 0.061623
v 0.031758 0.031758 0.057164
v 0.031705 0.031705 0.052914
v 0.031623 0.031623 0.048806
v 0.031505 0.031505 0.044788
v 0.031340 0.031340 0.040824
v 0.031118 0.031118 0.036891
v 0.030825 0.030825 0.032985
v 0.030449 0.030449 0.029115
v 0.029965 0.029965 0.025303
v 0.029330 0.029330 0.021576
v 0.028481 0.028481 0.017973
v 0.027335 0.027335 0.014537
v 0.025791 0.025791 0.011320
v 0.023728 0.023728 0.008382
v 0.021005 0.021005 0.005791
v 0.017460 0.017460 0.003620
v 0.012914 0.012914 0.001954
v 0.007167 0.007167 0.000881
v -0.000000 0.041625 0.090501
v -0.000000 0.041625 0.083443
v 0.000000 0.041624 0.077164
v 0.000000 0.041620 0.071521
v 0.000000 0.041608 0.066387
v -0.000000 0.041583 0.061649
v 0.000000 0.041537 0.057211
v 0.000000 0.041463 0.052991
v 0.000000 0.041349 0.048924
v 0.000000 0.041184 0.044957
v 0.000000 0.040955 0.041057
v 0.000000 0.040646 0.037202
v 0.000000 0.040243 0.033391
v 0.000000 0.039728 0.029641
v 0.000000 0.039074 0.025992
v 0.000000 0.038232 0.022497
v 0.000000 0.037138 0.019212
v -0.000000 0.035711 0.016182
v 0.000000 0.033840 0.013429
v 0.000000 0.031360 0.010944
v 0.000000 0.028028 0.008720
v 0.000000 0.023537 0.006792
v -0.000000 0.017568 0.005257
v 0.000000 0.009812 0.004241
v -0.000000 -0.000127 0.003873
v -0.029433 0.029433 0.090501
v -0.029433 0.029433 0.083443
v -0.029433 0.029433 0.077164
v -0.029429 0.029429 0.071521
v -0.029421 0.029421 0.066387
v -0.029403 0.029403 0.061649
v -0.029371 0.029371 0.057211
v -0.029319 0.029319 0.052991
v -0.029238 0.029238 0.048924
v -0.029122 0.029122 0.044957
v -0.028959 0.028959 0.041057
v -0.028741 0.028741 0.037202
v -0.028456 0.028456 0.033391
v -0.028092 0.028092 0.029641
v -0.027629 0.027629 0.025992
v -0.027034 0.027034 0.022497
v -0.026261 0.026261 0.019212
v -0.025251 0.025251 0.016182
v -0.023928 0.023928 0.013429
v -0.022175 0.022175 0.010944
v -0.019819 0.019819 0.008720
v -0.016643 0.016643 0.006792
v -0.012422 0.012422 0.005257
v -0.006938 0.006938 0.004241
v 0.000090 -0.000090 0.003873
v -0.041625 -0.000000 0.090501
v -0.041625 0.000000 0.083443
v -0.041624 0.000000 0.077164
v -0.041620 -0.000000 0.071521
v -0.041608 -0.000000 0.066387
v -0.041583 -0.000000 0.061649
v -0.041537 -0.000000 0.057211
v -0.041463 0.000000 0.052991
v -0.041349 0.000000 0.048924
v -0.041184 0.000000 0.044957
v -0.040955 -0.000000 0.041057
v -0.040646 0.000000 0.037202
v -0.040243 -0.000000 0.033391
v -0.039728 -0.000000 0.029641
v -0.039074 0.000000 0.025992
v -0.038232 -0.000000 0.022497
v -0.037138 -0.000000 0.019212
v -0.035711 -0.000000 0.016182
v -0.033840 0.000000 0.013429
v -0.031360 0.000000 0.010944
v -0.028028 0.000000 0.008720
v -0.023537 0.000000 0.006792
v -0.017568 -0.000000 0.005257
v -0.009812 -0.000000 0.004241
v 0.000127 0.000000 0.003873
v -0.029433 -0.029433 0.090501
v -0.029433 -0.029433 0.083443
v -0.029433 -0.029433 0.077164
v -0.029429 -0.029429 0.071521
v -0.029421 -0.029421 0.066387
v -0.029403 -0.029403 0.061649
v -0.029371 -0.029371 0.057211
v -0.029319 -0.029319 0.052991
v -0.029238 -0.029238 0.048924
v -0.029122 -0.029122 0.044957
v -0.028959 -0.028959 0.041057
v -0.028741 -0.028741 0.037202
v -0.028456 -0.028456 0.033391
v -0.028092 -0.028092 0.029641
v -0.027629 -0.027629 0.025992
v -0.027034 -0.027034 0.022497
v -0.026261 -0.026261 0.019212
v -0.025251 -0.025251 0.016182
v -0.023928 -0.023928 0.013429
v -0.022175 -0.022175 0.010944
v -0.019819 -0.019819 0.008720
v -0.016643 -0.016643 0.006792
v -0.012422 -0.012422 0.005257
v -0.006938 -0.006938 0.004241
v 0.000090 0.000090 0.003873
v -0.000000 -0.041625 0.090501
v 0.000000 -0.041625 0.083443
v 0.000000 -0.041624 0.077164
v 0.000000 -0.041620 0.071521
v 0.000000 -0.041608 0.066387
v 0.000000 -0.041583 0.061649
v 0.000000 -0.041537 0.057211
v 0.000000 -0.041463 0.052991
v 0.000000 -0.041349 0.048924
v 0.000000 -0.041184 0.044957
v 0.000000 -0.040955 0.041057
v 0.000000 -0.040646 0.037202
v 0.000000 -0.040243 0.033391
v 0.000000 -0.039728 0.029641
v 0.000000 -0.039074 0.025992
v 0.000000 -0.038232 0.022497
v 0.000000 -0.037138 0.019212
v 0.000000 -0.035711 0.016182
v 0.000000 -0.033840 0.013429
v 0.000000 -0.031360 0.010944
v 0.000000 -0.028028 0.008720
v 0.000000 -0.023537 0.006792
v 0.000000 -0.017568 0.005257
v 0.000000 -0.009812 0.004241
v -0.000000 0.000127 0.003873
v 0.029433 -0.029433 0.090501
v 0.029433 -0.029433 0.083443
v 0.029433 -0.029433 0.077164
v 0.029429 -0.029429 0.071521
v 0.029421 -0.029421 0.066387
v 0.029403 -0.029403 0.061649
v 0.029371 -0.029371 0.057211
v 0.029319 -0.029319 0.052991
v 0.029238 -0.029238 0.048924
v 0.029122 -0.029122 0.044957
v 0.028959 -0.028959 0.041057
v 0.028741 -0.028741 0.037202
v 0.028456 -0.028456 0.033391
v 0.028092 -0.028092 0.029641
v 0.027629 -0.027629 0.025992
v 0.027034 -0.027034 0.022497
v 0.026261 -0.026261 0.019212
v 0.025251 -0.025251 0.016182
v 0.023928 -0.023928 0.013429
v 0.022175 -0.022175 0.010944
v 0.019819 -0.019819 0.008720
v 0.016643 -0.016643 0.006792
v 0.012422 -0.012422 0.005257
v 0.006938 -0.006938 0.004241
v -0.000090 0.000090 0.003873
v 0.041625 -0.000000 0.090501
v 0.041625 -0.000000 0.083443
v 0.041624 -0.000000 0.077164
v 0.041620 -0.000000 0.071521
v 0.041608 -0.000000 0.066387
v 0.041583 -0.000000 0.061649
v 0.041537 -0.000000 0.057211
v 0.041463 -0.000000 0.052991
v 0.041349 -0.000000 0.048924
v 0.041184 -0.000000 0.044957
v 0.040955 -0.000000 0.041057
v 0.040646 -0.000000 0.037202
v 0.040243 -0.000000 0.033391
v 0.039728 -0.000000 0.029641
v 0.039074 -0.000000 0.025992
v 0.038232 -0.000000 0.022497
v 0.037138 -0.000000 0.019212
v 0.035711 -0.000000 0.016182
v 0.033840 -0.000000 0.013429
v 0.031360 -0.000000 0.010944
v 0.028028 -0.000000 0.008720
v 0.023537 -0.000000 0.006792
v 0.017568 -0.000000 0.005257
v 0.009812 -0.000000 0.004241
v -0.000127 -0.000000 0.003873
v 0.029433 0.029433 0.090501
v 0.029433 0.029433 0.083443
v 0.029433 0.029433 0.077164
v 0.029429 0.029429 0.071521
v 0.029421 0.029421 0.066387
v 0.029403 0.029403 0.061649
v 0.029371 0.029371 0.057211
v 0.029319 0.029319 0.052991
v 0.029238 0.029238 0.048924
v 0.029122 0.029122 0.044957
v 0.028959 0.028959 0.041057
v 0.028741 0.028741 0.037202
v 0.028456 0.028456 0.033391
v 0.028092 0.028092 0.029641
v 0.027629 0.027629 0.025992
v 0.027034 0.027034 0.022497
v 0.026261 0.026261 0.019212
v 0.025251 0.025251 0.016182
v 0.023928 0.023928 0.013429
v 0.022175 0.022175 0.010944
v 0.019819 0.019819 0.008720
v 0.016643 0.016643 0.006792
v 0.012422 0.012422 0.005257
v 0.006938 0.006938 0.004241
v -0.000090 -0.000090 0.003873
v 0.000000 0.022500 0.003052
v 0.000000 0.020250 0.002469
v -0.003951 0.019861 0.002792
v -0.004390 0.022068 0.003412
v -0.008610 0.020787 0.003533
v -0.007749 0.018709 0.002901
v -0.012500 0.018708 0.003412
v -0.014319 0.014319 0.002469
v -0.015910 0.015910 0.003052
v -0.011250 0.016837 0.002792
v -0.016837 0.011250 0.002792
v -0.018708 0.012500 0.003412
v -0.018709 0.007749 0.002901
v -0.020787 0.008610 0.003533
v -0.019861 0.003951 0.002792
v -0.022068 0.004390 0.003412
v -0.022500 0.000000 0.003052
v -0.020250 0.000000 0.002469
v -0.019861 -0.003951 0.002792
v -0.022068 -0.004390 0.003412
v -0.018709 -0.007749 0.002901
v -0.020787 -0.008610 0.003533
v -0.015910 -0.015910 0.003052
v -0.018708 -0.012500 0.003412
v -0.016837 -0.011250 0.002792
v -0.014319 -0.014319 0.002469
v -0.014319 -0.014319 0.002469
v -0.015910 -0.015910 0.003052
v -0.011250 -0.016837 0.002792
v -0.012500 -0.018708 0.003412
v -0.007749 -0.018709 0.002901
v -0.003951 -0.019861 0.002792
v 0.000000 -0.022500 0.003052
v 0.000000 -0.022500 0.003052
v -0.004390 -0.022068 0.003412
v -0.008610 -0.020787 0.003533
v 0.000000 -0.020250 0.002469
v 0.000000 -0.020250 0.002469
v 0.003951 -0.019861 0.002792
v 0.014319 -0.014319 0.002469
v 0.014319 -0.014319 0.002469
v 0.015910 -0.015910 0.003052
v 0.015910 -0.015910 0.003052
v 0.011250 -0.016837 0.002792
v 0.007749 -0.018709 0.002901
v 0.012500 -0.018708 0.003412
v 0.004390 -0.022068 0.003412
v 0.008610 -0.020787 0.003533
v 0.016837 -0.011250 0.002792
v 0.022068 -0.004390 0.003412
v 0.019861 -0.003951 0.002792
v 0.020250 -0.000000 0.002469
v 0.022500 -0.000000 0.003052
v 0.020787 -0.008610 0.003533
v 0.018709 -0.007749 0.002901
v 0.018708 -0.012500 0.003412
v 0.019861 0.003951 0.002792
v 0.020250 0.000000 0.002469
v 0.022500 0.000000 0.003052
v 0.014319 0.014319 0.002469
v 0.014319 0.014319 0.002469
v 0.015910 0.015910 0.003052
v 0.015910 0.015910 0.003052
v 0.016837 0.011250 0.002792
v 0.018708 0.012500 0.003412
v 0.020787 0.008610 0.003533
v 0.018709 0.007749 0.002901
v 0.022068 0.004390 0.003412
v 0.011250 0.016837 0.002792
v 0.004390 0.022068 0.003412
v 0.003951 0.019861 0.002792
v 0.008610 0.020787 0.003533
v 0.007749 0.018709 0.002901
v 0.012500 0.018708 0.003412
vn -0.3827 0.9239 -0.0049
vn -0.2253 0.5439 -0.8084
vn -0.3796 0.9165 -0.1259
vn -0.3827 0.9238 -0.0094
vn -0.1624 0.3920 -0.9055
vn -0.3775 0.9114 -0.1637
vn -0.3826 0.9238 -0.0163
vn -0.1034 0.2496 -0.9628
vn -0.3735 0.9018 -0.2174
vn -0.3826 0.9236 -0.0258
vn -0.0541 0.1306 -0.9900
vn -0.3827 0.9239 -0.0000
vn -0.3657 0.8830 -0.2943
vn -0.3824 0.9232 -0.0384
vn -0.0155 0.0375 -0.9992
vn -0.3827 0.9239 -0.0001
vn -0.3508 0.8470 -0.3994
vn -0.3821 0.9225 -0.0543
vn -0.3827 0.9239 -0.0007
vn -0.3242 0.7827 -0.5312
vn -0.3816 0.9214 -0.0737
vn -0.3827 0.9239 -0.0021
vn -0.2820 0.6807 -0.6761
vn -0.3809 0.9195 -0.0973
vn -0.9239 0.3827 -0.0007
vn -0.7827 0.3242 -0.5312
vn -0.9214 0.3816 -0.0737
vn -0.9239 0.3827 -0.0021
vn -0.6807 0.2820 -0.6761
vn -0.9195 0.3809 -0.0973
vn -0.9239 0.3827 -0.0049
vn -0.5439 0.2253 -0.8084
vn -0.9165 0.3796 -0.1259
vn -0.9238 0.3827 -0.0094
vn -0.3920 0.1624 -0.9055
vn -0.9114 0.3775 -0.1637
vn -0.9238 0.3826 -0.0163
vn -0.2496 0.1034 -0.9628
vn -0.9018 0.3735 -0.2174
vn -0.9236 0.3826 -0.0258
vn -0.1306 0.0541 -0.9900
vn -0.9239 0.3827 -0.0000
vn -0.8830 0.3657 -0.2943
vn -0.9232 0.3824 -0.0384
vn -0.0375 0.0155 -0.9992
vn -0.9239 0.3827 -0.0001
vn -0.8470 0.3508 -0.3994
vn -0.9225 0.3821 -0.0543
vn -0.9238 -0.3827 -0.0094
vn -0.3920 -0.1624 -0.9055
vn -0.9114 -0.3775 -0.1637
vn -0.9238 -0.3826 -0.0163
vn -0.2496 -0.1034 -0.9628
vn -0.9018 -0.3735 -0.2174
vn -0.9236 -0.3826 -0.0258
vn -0.1306 -0.0541 -0.9900
vn -0.9239 -0.3827 -0.0000
vn -0.8830 -0.3657 -0.2943
vn -0.9232 -0.3824 -0.0384
vn -0.0375 -0.0155 -0.9992
vn -0.9239 -0.3827 -0.0002
vn -0.8470 -0.3508 -0.3994
vn -0.9225 -0.3821 -0.0543
vn -0.9239 -0.3827 -0.0007
vn -0.7827 -0.3242 -0.5312
vn -0.9214 -0.3816 -0.0737
vn -0.9239 -0.3827 -0.0021
vn -0.6807 -0.2820 -0.6761
vn -0.9195 -0.3809 -0.0973
vn -0.9239 -0.3827 -0.0049
vn -0.5439 -0.2253 -0.8084
vn -0.9165 -0.3796 -0.1259
vn -0.3657 -0.8830 -0.2943
vn -0.3824 -0.9232 -0.0384
vn -0.0155 -0.0375 -0.9992
vn -0.3827 -0.9239 -0.0001
vn -0.3508 -0.8470 -0.3994
vn -0.3821 -0.9225 -0.0543
vn -0.3827 -0.9239 -0.0007
vn -0.3242 -0.7827 -0.5312
vn -0.3816 -0.9214 -0.0737
vn -0.3827 -0.9239 -0.0021
vn -0.2820 -0.6807 -0.6761
vn -0.3809 -0.9195 -0.0973
vn -0.3827 -0.9239 -0.0049
vn -0.2253 -0.5439 -0.8084
vn -0.3796 -0.9165 -0.1259
vn -0.3827 -0.9238 -0.0094
vn -0.1624 -0.3920 -0.9055
vn -0.3775 -0.9114 -0.1637
vn -0.3826 -0.9238 -0.0163
vn -0.1034 -0.2496 -0.9628
vn -0.3735 -0.9018 -0.2174
vn -0.3826 -0.9236 -0.0258
vn -0.0541 -0.1306 -0.9900
vn -0.3827 -0.9239 -0.0000
vn 0.3827 -0.9239 -0.0021
vn 0.2820 -0.6807 -0.6761
vn 0.3809 -0.9195 -0.0973
vn 0.3827 -0.9239 -0.0049
vn 0.2253 -0.5439 -0.8084
vn 0.3796 -0.9165 -0.1259
vn 0.3827 -0.9238 -0.0094
vn 0.1624 -0.3920 -0.9055
vn 0.3775 -0.9114 -0.1637
vn 0.3826 -0.9238 -0.0163
vn 0.1034 -0.2496 -0.9628
vn 0.3735 -0.9018 -0.2174
vn 0.3826 -0.9236 -0.0258
vn 0.0541 -0.1306 -0.9900
vn 0.3827 -0.9239 -0.0000
vn 0.3657 -0.8830 -0.2943
vn 0.3824 -0.9232 -0.0384
vn 0.0155 -0.0375 -0.9992
vn 0.3827 -0.9239 -0.0001
vn 0.3508 -0.8470 -0.3994
vn 0.3821 -0.9225 -0.0543
vn 0.3827 -0.9239 -0.0007
vn 0.3242 -0.7827 -0.5312
vn 0.3816 -0.9214 -0.0737
vn 0.9238 -0.3826 -0.0163
vn 0.2496 -0.1034 -0.9628
vn 0.9018 -0.3735 -0.2174
vn 0.9236 -0.3826 -0.0258
vn 0.1306 -0.0541 -0.9900
vn 0.9239 -0.3827 -0.0000
vn 0.8830 -0.3657 -0.2943
vn 0.9232 -0.3824 -0.0384
vn 0.0375 -0.0155 -0.9992
vn 0.9239 -0.3827 -0.0001
vn 0.8470 -0.3508 -0.3994
vn 0.9225 -0.3821 -0.0543
vn 0.9239 -0.3827 -0.0007
vn 0.7827 -0.3242 -0.5312
vn 0.9214 -0.3816 -0.0737
vn 0.9239 -0.3827 -0.0021
vn 0.6807 -0.2820 -0.6761
vn 0.9195 -0.3809 -0.0973
vn 0.9239 -0.3827 -0.0049
vn 0.5439 -0.2253 -0.8084
vn 0.9165 -0.3796 -0.1259
vn 0.9238 -0.3827 -0.0094
vn 0.3920 -0.1624 -0.9055
vn 0.9114 -0.3775 -0.1637
vn 0.8470 0.3508 -0.3994
vn 0.9225 0.3821 -0.0543
vn 0.9239 0.3827 -0.0007
vn 0.7827 0.3242 -0.5312
vn 0.9214 0.3816 -0.0737
vn 0.9239 0.3827 -0.0021
vn 0.6807 0.2820 -0.6761
vn 0.9195 0.3809 -0.0973
vn 0.9239 0.3827 -0.0049
vn 0.5439 0.2253 -0.8084
vn 0.9165 0.3796 -0.1259
vn 0.9238 0.3827 -0.0094
vn 0.3920 0.1624 -0.9055
vn 0.9114 0.3775 -0.1637
vn 0.9238 0.3826 -0.0163
vn 0.2496 0.1034 -0.9628
vn 0.9018 0.3735 -0.2174
vn 0.9236 0.3826 -0.0258
vn 0.1306 0.0541 -0.9900
vn 0.9239 0.3827 -0.0000
vn 0.8830 0.3657 -0.2943
vn 0.9232 0.3824 -0.0384
vn 0.0375 0.0155 -0.9992
vn 0.9239 0.3827 -0.0002
vn 0.3827 0.9239 -0.0049
vn 0.2253 0.5439 -0.8084
vn 0.3796 0.9165 -0.1259
vn 0.3827 0.9238 -0.0094
vn 0.1624 0.3920 -0.9055
vn 0.3775 0.9114 -0.1637
vn 0.3826 0.9238 -0.0163
vn 0.1034 0.2496 -0.9628
vn 0.3735 0.9018 -0.2174
vn 0.3826 0.9236 -0.0258
vn 0.0541 0.1306 -0.9900
vn 0.3827 0.9239 -0.0000
vn 0.3657 0.8830 -0.2943
vn 0.3824 0.9232 -0.0384
vn 0.0155 0.0375 -0.9992
vn 0.3827 0.9239 -0.0001
vn 0.3508 0.8470 -0.3994
vn 0.3821 0.9225 -0.0543
vn 0.3827 0.9239 -0.0007
vn 0.3242 0.7827 -0.5312
vn 0.3816 0.9214 -0.0737
vn 0.3827 0.9239 -0.0021
vn 0.2820 0.6807 -0.6761
vn 0.3809 0.9195 -0.0973
vn 0.3827 -0.9239 0.0049
vn 0.2242 -0.5412 0.8105
vn 0.3796 -0.9165 0.1259
vn 0.3827 -0.9238 0.0094
vn 0.1613 -0.3893 0.9069
vn 0.3775 -0.9114 0.1635
vn 0.3826 -0.9238 0.0163
vn 0.1026 -0.2478 0.9634
vn 0.3736 -0.9018 0.2172
vn 0.3826 -0.9236 0.0258
vn 0.0537 -0.1297 0.9901
vn 0.3658 -0.8831 0.2939
vn 0.3824 -0.9232 0.0384
vn 0.0153 -0.0369 0.9992
vn -0.0153 0.0369 -0.9992
vn 0.3827 -0.9239 0.0001
vn 0.3509 -0.8471 0.3991
vn 0.3821 -0.9225 0.0543
vn 0.3827 -0.9239 0.0007
vn 0.3241 -0.7824 0.5318
vn 0.3816 -0.9214 0.0737
vn 0.3827 -0.9239 0.0021
vn 0.2813 -0.6792 0.6779
vn 0.3809 -0.9195 0.0973
vn 0.9239 -0.3827 0.0007
vn 0.7824 -0.3241 0.5318
vn 0.9214 -0.3816 0.0737
vn 0.9239 -0.3827 0.0021
vn 0.6792 -0.2813 0.6779
vn 0.9195 -0.3809 0.0973
vn 0.9239 -0.3827 0.0049
vn 0.5412 -0.2242 0.8105
vn 0.9165 -0.3796 0.1259
vn 0.9238 -0.3827 0.0094
vn 0.3893 -0.1613 0.9069
vn 0.9114 -0.3775 0.1635
vn 0.9238 -0.3826 0.0163
vn 0.2478 -0.1026 0.9634
vn 0.9018 -0.3736 0.2172
vn 0.9236 -0.3826 0.0258
vn 0.1297 -0.0537 0.9901
vn 0.8831 -0.3658 0.2939
vn 0.9232 -0.3824 0.0384
vn 0.0369 -0.0153 0.9992
vn -0.0369 0.0153 -0.9992
vn 0.9239 -0.3827 0.0001
vn 0.8471 -0.3509 0.3991
vn 0.9225 -0.3821 0.0543
vn 0.9238 0.3827 0.0094
vn 0.3893 0.1613 0.9069
vn 0.9114 0.3775 0.1635
vn 0.9238 0.3826 0.0163
vn 0.2478 0.1026 0.9634
vn 0.9018 0.3736 0.2172
vn 0.9236 0.3826 0.0258
vn 0.1297 0.0537 0.9901
vn 0.8831 0.3658 0.2939
vn 0.9232 0.3824 0.0384
vn 0.0369 0.0153 0.9992
vn -0.0369 -0.0153 -0.9992
vn 0.9239 0.3827 0.0001
vn 0.8471 0.3509 0.3991
vn 0.9225 0.3821 0.0543
vn 0.9239 0.3827 0.0007
vn 0.7824 0.3241 0.5318
vn 0.9214 0.3816 0.0737
vn 0.9239 0.3827 0.0021
vn 0.6792 0.2813 0.6779
vn 0.9195 0.3809 0.0973
vn 0.9239 0.3827 0.0049
vn 0.5412 0.2242 0.8105
vn 0.9165 0.3796 0.1259
vn 0.3658 0.8831 0.2939
vn 0.3824 0.9232 0.0384
vn 0.0153 0.0369 0.9992
vn -0.0153 -0.0369 -0.9992
vn 0.3827 0.9239 0.0001
vn 0.3509 0.8471 0.3991
vn 0.3821 0.9225 0.0543
vn 0.3827 0.9239 0.0007
vn 0.3241 0.7824 0.5318
vn 0.3816 0.9214 0.0737
vn 0.3827 0.9239 0.0021
vn 0.2813 0.6792 0.6779
vn 0.3809 0.9195 0.0973
vn 0.3827 0.9239 0.0049
vn 0.2242 0.5412 0.8105
vn 0.3796 0.9165 0.1259
vn 0.3827 0.9238 0.0094
vn 0.1613 0.3893 0.9069
vn 0.3775 0.9114 0.1635
vn 0.3826 0.9238 0.0163
vn 0.1026 0.2478 0.9634
vn 0.3736 0.9018 0.2172
vn 0.3826 0.9236 0.0258
vn 0.0537 0.1297 0.9901
vn -0.3827 0.9239 0.0021
vn -0.2813 0.6792 0.6779
vn -0.3809 0.9195 0.0973
vn -0.3827 0.9239 0.0049
vn -0.2242 0.5412 0.8105
vn -0.3796 0.9165 0.1259
vn -0.3827 0.9238 0.0094
vn -0.1613 0.3893 0.9069
vn -0.3775 0.9114 0.1635
vn -0.3826 0.9238 0.0163
vn -0.1026 0.2478 0.9634
vn -0.3736 0.9018 0.2172
vn -0.3826 0.9236 0.0258
vn -0.0537 0.1297 0.9901
vn -0.3658 0.8831 0.2939
vn -0.3824 0.9232 0.0384
vn -0.0153 0.0369 0.9992
vn 0.0153 -0.0369 -0.9992
vn -0.3827 0.9239 0.0001
vn -0.3509 0.8471 0.3991
vn -0.3821 0.9225 0.0543
vn -0.3827 0.9239 0.0007
vn -0.3241 0.7824 0.5318
vn -0.3816 0.9214 0.0737
vn -0.9238 0.3826 0.0163
vn -0.2478 0.1026 0.9634
vn -0.9018 0.3736 0.2172
vn -0.9236 0.3826 0.0258
vn -0.1297 0.0537 0.9901
vn -0.8831 0.3658 0.2939
vn -0.9232 0.3824 0.0384
vn -0.0369 0.0153 0.9992
vn 0.0369 -0.0153 -0.9992
vn -0.9239 0.3827 0.0001
vn -0.8471 0.3509 0.3991
vn -0.9225 0.3821 0.0543
vn -0.9239 0.3827 0.0007
vn -0.7824 0.3241 0.5318
vn -0.9214 0.3816 0.0737
vn -0.9239 0.3827 0.0021
vn -0.6792 0.2813 0.6779
vn -0.9195 0.3809 0.0973
vn -0.9239 0.3827 0.0049
vn -0.5412 0.2242 0.8105
vn -0.9165 0.3796 0.1259
vn -0.9238 0.3827 0.0094
vn -0.3893 0.1613 0.9069
vn -0.9114 0.3775 0.1635
vn -0.8471 -0.3509 0.3991
vn -0.9225 -0.3821 0.0543
vn -0.9239 -0.3827 0.0007
vn -0.7824 -0.3241 0.5318
vn -0.9214 -0.3816 0.0737
vn -0.9239 -0.3827 0.0021
vn -0.6792 -0.2813 0.6779
vn -0.9195 -0.3809 0.0973
vn -0.9239 -0.3827 0.0049
vn -0.5412 -0.2242 0.8105
vn -0.9165 -0.3796 0.1259
vn -0.9238 -0.3827 0.0094
vn -0.3893 -0.1613 0.9069
vn -0.9114 -0.3775 0.1635
vn -0.9238 -0.3826 0.0163
vn -0.2478 -0.1026 0.9634
vn -0.9018 -0.3736 0.2172
vn -0.9236 -0.3826 0.0258
vn -0.1297 -0.0537 0.9901
vn -0.8831 -0.3658 0.2939
vn -0.9232 -0.3824 0.0384
vn -0.0369 -0.0153 0.9992
vn 0.0369 0.0153 -0.9992
vn -0.9239 -0.3827 0.0001
vn -0.3827 -0.9239 0.0049
vn -0.2242 -0.5412 0.8105
vn -0.3796 -0.9165 0.1259
vn -0.3827 -0.9238 0.0094
vn -0.1613 -0.3893 0.9069
vn -0.3775 -0.9114 0.1635
vn -0.3826 -0.9238 0.0163
vn -0.1026 -0.2478 0.9634
vn -0.3736 -0.9018 0.2172
vn -0.3826 -0.9236 0.0258
vn -0.0537 -0.1297 0.9901
vn -0.3658 -0.8831 0.2939
vn -0.3824 -0.9232 0.0384
vn -0.0153 -0.0369 0.9992
vn 0.0153 0.0369 -0.9992
vn -0.3827 -0.9239 0.0001
vn -0.3509 -0.8471 0.3991
vn -0.3821 -0.9225 0.0543
vn -0.3827 -0.9239 0.0007
vn -0.3241 -0.7824 0.5318
vn -0.3816 -0.9214 0.0737
vn -0.3827 -0.9239 0.0021
vn -0.2813 -0.6792 0.6779
vn -0.3809 -0.9195 0.0973
vn -0.0000 -0.0000 1.0000
vn -0.3825 0.9233 0.0347
vn -0.9233 0.3825 0.0347
vn -0.9233 -0.3825 0.0347
vn -0.3825 -0.9233 0.0347
vn 0.3825 -0.9233 0.0347
vn 0.9233 -0.3825 0.0347
vn 0.9233 0.3825 0.0347
vn 0.3825 0.9233 0.0347
vn 0.9952 -0.0980 -0.0000
vn 0.9569 -0.2903 -0.0000
vn 0.8819 -0.4714 -0.0000
vn 0.7730 -0.6344 -0.0000
vn 0.6344 -0.7730 -0.0000
vn 0.4714 -0.8819 -0.0000
vn 0.2903 -0.9569 -0.0000
vn 0.0980 -0.9952 -0.0000
vn -0.0980 -0.9952 -0.0000
vn -0.2903 -0.9569 -0.0000
vn -0.4714 -0.8819 -0.0000
vn -0.6344 -0.7730 -0.0000
vn -0.7730 -0.6344 -0.0000
vn -0.8819 -0.4714 -0.0000
vn -0.9569 -0.2903 -0.0000
vn -0.9952 -0.0980 -0.0000
vn -0.9952 0.0980 -0.0000
vn -0.9569 0.2903 -0.0000
vn -0.8819 0.4714 -0.0000
vn -0.7730 0.6344 -0.0000
vn -0.6344 0.7730 -0.0000
vn -0.4714 0.8819 -0.0000
vn -0.2903 0.9569 -0.0000
vn -0.0980 0.9952 -0.0000
vn 0.0980 0.9952 -0.0000
vn 0.2903 0.9569 -0.0000
vn 0.4714 0.8819 -0.0000
vn 0.6344 0.7730 -0.0000
vn 0.7730 0.6344 -0.0000
vn 0.8819 0.4714 -0.0000
vn 0.9569 0.2903 -0.0000
vn 0.9952 0.0980 -0.0000
vn -0.0000 -0.0000 -1.0000
vt 0.000000 0.000000
vt 0.968750 0.500000
vt 1.000000 0.500000
vt 1.000000 0.842375
vt 0.968750 0.882292
vt 0.937500 0.500000
vt 0.937500 0.895770
vt 0.906250 0.500000
vt 0.906250 0.882292
vt 0.875000 0.500000
vt 0.875000 0.842375
vt 0.875000 0.842375
vt 0.843750 0.882292
vt 0.843750 0.500000
vt 0.812500 0.895770
vt 0.812500 0.500000
vt 0.781250 0.882292
vt 0.781250 0.500000
vt 0.750000 0.842375
vt 0.750000 0.500000
vt 0.750000 0.842375
vt 0.718750 0.882292
vt 0.718750 0.500000
vt 0.687500 0.895770
vt 0.687500 0.500000
vt 0.656250 0.882292
vt 0.656250 0.500000
vt 0.625000 0.842375
vt 0.625000 0.500000
vt 0.593750 0.882292
vt 0.593750 0.500000
vt 0.562500 0.895770
vt 0.562500 0.500000
vt 0.531250 0.882292
vt 0.531250 0.500000
vt 0.500000 0.842375
vt 0.500000 0.500000
vt 0.468750 0.882292
vt 0.468750 0.500000
vt 0.437500 0.895770
vt 0.437500 0.500000
vt 0.406250 0.882292
vt 0.406250 0.500000
vt 0.375000 0.842375
vt 0.375000 0.500000
vt 0.343750 0.500000
vt 0.343750 0.882292
vt 0.312500 0.500000
vt 0.312500 0.895770
vt 0.281250 0.500000
vt 0.281250 0.882292
vt 0.250000 0.500000
vt 0.250000 0.842375
vt 0.218750 0.500000
vt 0.218750 0.882292
vt 0.187500 0.500000
vt 0.187500 0.895770
vt 0.156250 0.500000
vt 0.156250 0.882292
vt 0.125000 0.500000
vt 0.125000 0.842375
vt 0.125000 0.842375
vt 0.093750 0.500000
vt 0.093750 0.882292
vt 0.062500 0.500000
vt 0.062500 0.895770
vt 0.031250 0.500000
vt 0.031250 0.882292
vt 0.000000 0.500000
vt 0.000000 0.842375
vt 0.902735 0.097265
vt 0.929598 0.129997
vt 0.949553 0.116663
vt 0.919706 0.080294
vt 0.883337 0.050447
vt 0.841844 0.028269
vt 0.796822 0.014612
vt 0.750000 0.010000
vt 0.703178 0.014612
vt 0.658156 0.028269
vt 0.616663 0.050447
vt 0.629997 0.070403
vt 0.667340 0.050442
vt 0.707860 0.038150
vt 0.750000 0.034000
vt 0.792139 0.038150
vt 0.832660 0.050442
vt 0.870003 0.070403
vt 0.971731 0.158156
vt 0.949558 0.167340
vt 0.961850 0.207860
vt 0.966000 0.250000
vt 0.961850 0.292140
vt 0.949558 0.332660
vt 0.929598 0.370003
vt 0.902735 0.402735
vt 0.870003 0.429598
vt 0.832660 0.449558
vt 0.792140 0.461850
vt 0.750000 0.466000
vt 0.707861 0.461850
vt 0.667340 0.449558
vt 0.629997 0.429597
vt 0.597265 0.402735
vt 0.570403 0.370003
vt 0.550442 0.332660
vt 0.538150 0.292140
vt 0.534000 0.250000
vt 0.538150 0.207860
vt 0.550442 0.167340
vt 0.570403 0.129997
vt 0.597265 0.097265
vt 0.580294 0.080294
vt 0.550447 0.116663
vt 0.528269 0.158156
vt 0.514612 0.203178
vt 0.510000 0.250000
vt 0.514612 0.296822
vt 0.528269 0.341844
vt 0.550447 0.383337
vt 0.580294 0.419706
vt 0.616663 0.449553
vt 0.658156 0.471731
vt 0.703178 0.485388
vt 0.750000 0.490000
vt 0.796822 0.485388
vt 0.841844 0.471731
vt 0.883337 0.449553
vt 0.919706 0.419706
vt 0.949553 0.383337
vt 0.971731 0.341844
vt 0.985388 0.296822
vt 0.990000 0.250000
vt 0.985388 0.203178
vt 1.000000 0.777569
vt 0.968750 0.813494
vt 0.937500 0.825624
vt 0.906250 0.813494
vt 0.875000 0.777569
vt 0.843750 0.813494
vt 0.812500 0.825624
vt 0.781250 0.813494
vt 0.750000 0.777569
vt 0.718750 0.813494
vt 0.687500 0.825624
vt 0.656250 0.813494
vt 0.625000 0.777569
vt 0.593750 0.813494
vt 0.562500 0.825624
vt 0.531250 0.813494
vt 0.500000 0.777569
vt 0.468750 0.813494
vt 0.437500 0.825624
vt 0.406250 0.813494
vt 0.375000 0.777569
vt 0.343750 0.813494
vt 0.312500 0.825624
vt 0.281250 0.813494
vt 0.250000 0.777569
vt 0.218750 0.813494
vt 0.187500 0.825624
vt 0.156250 0.813494
vt 0.125000 0.777569
vt 0.125000 0.777569
vt 0.093750 0.813494
vt 0.062500 0.825625
vt 0.031250 0.813494
vt 0.000000 0.777569
s 0
usemtl 
f 8/1/1 9/1/1 47/1/1 45/1/1
f 30/1/2 32/1/2 69/1/2 68/1/2
f 20/1/3 21/1/3 59/1/3 57/1/3
f 9/1/4 11/1/4 48/1/4 47/1/4
f 32/1/5 34/1/5 71/1/5 69/1/5
f 21/1/6 23/1/6 60/1/6 59/1/6
f 11/1/7 12/1/7 50/1/7 48/1/7
f 459/1/8 35/1/8 72/1/8 465/1/8 467/1/8 463/1/8 460/1/8
f 466/1/8 71/1/8 34/1/8 458/1/8 461/1/8 462/1/8 464/1/8
f 23/1/9 24/1/9 61/1/9 60/1/9
f 12/1/10 13/1/10 52/1/10 50/1/10
f 35/1/11 36/1/11 74/1/11 72/1/11
f 1/1/12 3/1/12 41/1/12 40/1/12
f 24/1/13 25/1/13 63/1/13 61/1/13
f 13/1/14 15/1/14 53/1/14 52/1/14
f 36/1/15 37/1/15 74/1/15
f 3/1/16 5/1/16 42/1/16 41/1/16
f 25/1/17 28/1/17 65/1/17 63/1/17
f 15/1/18 17/1/18 54/1/18 53/1/18
f 5/1/19 6/1/19 43/1/19 42/1/19
f 28/1/20 29/1/20 66/1/20 65/1/20
f 17/1/21 18/1/21 55/1/21 54/1/21
f 6/1/22 8/1/22 45/1/22 43/1/22
f 29/1/23 30/1/23 68/1/23 66/1/23
f 18/1/24 20/1/24 57/1/24 55/1/24
f 42/1/25 43/1/25 81/1/25 79/1/25
f 65/1/26 66/1/26 102/1/26 101/1/26
f 54/1/27 55/1/27 92/1/27 91/1/27
f 43/1/28 45/1/28 82/1/28 81/1/28
f 66/1/29 68/1/29 105/1/29 102/1/29
f 55/1/30 57/1/30 94/1/30 92/1/30
f 45/1/31 47/1/31 83/1/31 82/1/31
f 68/1/32 69/1/32 106/1/32 105/1/32
f 57/1/33 59/1/33 95/1/33 94/1/33
f 47/1/34 48/1/34 84/1/34 83/1/34
f 69/1/35 71/1/35 107/1/35 106/1/35
f 59/1/36 60/1/36 97/1/36 95/1/36
f 48/1/37 50/1/37 86/1/37 84/1/37
f 465/1/38 72/1/38 108/1/38 475/1/38 472/1/38 470/1/38 468/1/38
f 107/1/38 71/1/38 466/1/38 469/1/38 471/1/38 473/1/38 474/1/38
f 60/1/39 61/1/39 99/1/39 97/1/39
f 50/1/40 52/1/40 88/1/40 86/1/40
f 72/1/41 74/1/41 110/1/41 108/1/41
f 40/1/42 41/1/42 77/1/42 76/1/42
f 61/1/43 63/1/43 100/1/43 99/1/43
f 52/1/44 53/1/44 89/1/44 88/1/44
f 74/1/45 37/1/45 110/1/45
f 41/1/46 42/1/46 79/1/46 77/1/46
f 63/1/47 65/1/47 101/1/47 100/1/47
f 53/1/48 54/1/48 91/1/48 89/1/48
f 83/1/49 84/1/49 121/1/49 119/1/49
f 106/1/50 107/1/50 144/1/50 142/1/50
f 95/1/51 97/1/51 133/1/51 131/1/51
f 84/1/52 86/1/52 123/1/52 121/1/52
f 108/1/53 145/1/53 483/1/53 482/1/53 478/1/53 476/1/53 475/1/53
f 144/1/53 107/1/53 474/1/53 477/1/53 479/1/53 481/1/53 480/1/53
f 97/1/54 99/1/54 135/1/54 133/1/54
f 86/1/55 88/1/55 124/1/55 123/1/55
f 108/1/56 110/1/56 147/1/56 145/1/56
f 76/1/57 77/1/57 114/1/57 112/1/57
f 99/1/58 100/1/58 136/1/58 135/1/58
f 88/1/59 89/1/59 126/1/59 124/1/59
f 37/1/60 147/1/60 110/1/60
f 77/1/61 79/1/61 116/1/61 114/1/61
f 100/1/62 101/1/62 137/1/62 136/1/62
f 89/1/63 91/1/63 128/1/63 126/1/63
f 79/1/64 81/1/64 117/1/64 116/1/64
f 101/1/65 102/1/65 140/1/65 137/1/65
f 91/1/66 92/1/66 129/1/66 128/1/66
f 81/1/67 82/1/67 118/1/67 117/1/67
f 102/1/68 105/1/68 141/1/68 140/1/68
f 92/1/69 94/1/69 130/1/69 129/1/69
f 82/1/70 83/1/70 119/1/70 118/1/70
f 105/1/71 106/1/71 142/1/71 141/1/71
f 94/1/72 95/1/72 131/1/72 130/1/72
f 135/1/73 136/1/73 172/1/73 171/1/73
f 124/1/74 126/1/74 162/1/74 160/1/74
f 37/1/75 183/1/75 147/1/75
f 114/1/76 116/1/76 152/1/76 151/1/76
f 136/1/77 137/1/77 175/1/77 172/1/77
f 126/1/78 128/1/78 164/1/78 162/1/78
f 116/1/79 117/1/79 153/1/79 152/1/79
f 137/1/80 140/1/80 176/1/80 175/1/80
f 128/1/81 129/1/81 165/1/81 164/1/81
f 117/1/82 118/1/82 155/1/82 153/1/82
f 140/1/83 141/1/83 177/1/83 176/1/83
f 129/1/84 130/1/84 167/1/84 165/1/84
f 118/1/85 119/1/85 156/1/85 155/1/85
f 141/1/86 142/1/86 178/1/86 177/1/86
f 130/1/87 131/1/87 169/1/87 167/1/87
f 119/1/88 121/1/88 158/1/88 156/1/88
f 142/1/89 144/1/89 181/1/89 178/1/89
f 131/1/90 133/1/90 170/1/90 169/1/90
f 121/1/91 123/1/91 159/1/91 158/1/91
f 145/1/92 182/1/92 495/1/92 494/1/92 489/1/92 488/1/92 486/1/92 484/1/92 483/1/92
f 490/1/92 181/1/92 144/1/92 480/1/92 485/1/92 487/1/92 493/1/92 492/1/92 491/1/92
f 133/1/93 135/1/93 171/1/93 170/1/93
f 123/1/94 124/1/94 160/1/94 159/1/94
f 145/1/95 147/1/95 183/1/95 182/1/95
f 112/1/96 114/1/96 151/1/96 148/1/96
f 153/1/97 155/1/97 190/1/97 189/1/97
f 176/1/98 177/1/98 205/1/98 204/1/98
f 165/1/99 167/1/99 198/1/99 197/1/99
f 155/1/100 156/1/100 191/1/100 190/1/100
f 177/1/101 178/1/101 206/1/101 205/1/101
f 167/1/102 169/1/102 199/1/102 198/1/102
f 156/1/103 158/1/103 192/1/103 191/1/103
f 178/1/104 181/1/104 207/1/104 206/1/104
f 169/1/105 170/1/105 200/1/105 199/1/105
f 158/1/106 159/1/106 193/1/106 192/1/106
f 495/1/107 182/1/107 208/1/107 498/1/107 497/1/107 501/1/107 502/1/107 496/1/107
f 500/1/107 207/1/107 181/1/107 490/1/107 504/1/107 505/1/107 503/1/107 499/1/107
f 170/1/108 171/1/108 201/1/108 200/1/108
f 159/1/109 160/1/109 194/1/109 193/1/109
f 182/1/110 183/1/110 209/1/110 208/1/110
f 148/1/111 151/1/111 187/1/111 186/1/111
f 171/1/112 172/1/112 202/1/112 201/1/112
f 160/1/113 162/1/113 195/1/113 194/1/113
f 209/1/114 183/1/114 37/1/114
f 151/1/115 152/1/115 188/1/115 187/1/115
f 172/1/116 175/1/116 203/1/116 202/1/116
f 162/1/117 164/1/117 196/1/117 195/1/117
f 152/1/118 153/1/118 189/1/118 188/1/118
f 175/1/119 176/1/119 204/1/119 203/1/119
f 164/1/120 165/1/120 197/1/120 196/1/120
f 192/1/121 193/1/121 217/1/121 216/1/121
f 498/1/122 208/1/122 232/1/122 509/1/122 508/1/122 512/1/122 506/1/122
f 231/1/122 207/1/122 500/1/122 513/1/122 511/1/122 507/1/122 510/1/122
f 200/1/123 201/1/123 225/1/123 224/1/123
f 193/1/124 194/1/124 218/1/124 217/1/124
f 208/1/125 209/1/125 233/1/125 232/1/125
f 186/1/126 187/1/126 211/1/126 210/1/126
f 201/1/127 202/1/127 226/1/127 225/1/127
f 194/1/128 195/1/128 219/1/128 218/1/128
f 233/1/129 209/1/129 37/1/129
f 187/1/130 188/1/130 212/1/130 211/1/130
f 202/1/131 203/1/131 227/1/131 226/1/131
f 195/1/132 196/1/132 220/1/132 219/1/132
f 188/1/133 189/1/133 213/1/133 212/1/133
f 203/1/134 204/1/134 228/1/134 227/1/134
f 196/1/135 197/1/135 221/1/135 220/1/135
f 189/1/136 190/1/136 214/1/136 213/1/136
f 204/1/137 205/1/137 229/1/137 228/1/137
f 197/1/138 198/1/138 222/1/138 221/1/138
f 190/1/139 191/1/139 215/1/139 214/1/139
f 205/1/140 206/1/140 230/1/140 229/1/140
f 198/1/141 199/1/141 223/1/141 222/1/141
f 191/1/142 192/1/142 216/1/142 215/1/142
f 206/1/143 207/1/143 231/1/143 230/1/143
f 199/1/144 200/1/144 224/1/144 223/1/144
f 226/1/145 227/1/145 251/1/145 250/1/145
f 219/1/146 220/1/146 244/1/146 243/1/146
f 212/1/147 213/1/147 237/1/147 236/1/147
f 227/1/148 228/1/148 252/1/148 251/1/148
f 220/1/149 221/1/149 245/1/149 244/1/149
f 213/1/150 214/1/150 238/1/150 237/1/150
f 228/1/151 229/1/151 253/1/151 252/1/151
f 221/1/152 222/1/152 246/1/152 245/1/152
f 214/1/153 215/1/153 239/1/153 238/1/153
f 229/1/154 230/1/154 254/1/154 253/1/154
f 222/1/155 223/1/155 247/1/155 246/1/155
f 215/1/156 216/1/156 240/1/156 239/1/156
f 230/1/157 231/1/157 255/1/157 254/1/157
f 223/1/158 224/1/158 248/1/158 247/1/158
f 216/1/159 217/1/159 241/1/159 240/1/159
f 515/1/160 509/1/160 232/1/160 256/1/160 517/1/160 518/1/160 521/1/160 524/1/160 514/1/160
f 255/1/160 231/1/160 510/1/160 516/1/160 525/1/160 523/1/160 522/1/160 520/1/160 519/1/160
f 224/1/161 225/1/161 249/1/161 248/1/161
f 217/1/162 218/1/162 242/1/162 241/1/162
f 232/1/163 233/1/163 257/1/163 256/1/163
f 210/1/164 211/1/164 235/1/164 234/1/164
f 225/1/165 226/1/165 250/1/165 249/1/165
f 218/1/166 219/1/166 243/1/166 242/1/166
f 257/1/167 233/1/167 37/1/167
f 211/1/168 212/1/168 236/1/168 235/1/168
f 238/1/169 239/1/169 9/1/169 8/1/169
f 253/1/170 254/1/170 32/1/170 30/1/170
f 246/1/171 247/1/171 21/1/171 20/1/171
f 239/1/172 240/1/172 11/1/172 9/1/172
f 254/1/173 255/1/173 34/1/173 32/1/173
f 247/1/174 248/1/174 23/1/174 21/1/174
f 240/1/175 241/1/175 12/1/175 11/1/175
f 517/1/176 256/1/176 35/1/176 459/1/176 528/1/176 530/1/176 526/1/176
f 34/1/176 255/1/176 519/1/176 531/1/176 529/1/176 527/1/176 458/1/176
f 248/1/177 249/1/177 24/1/177 23/1/177
f 241/1/178 242/1/178 13/1/178 12/1/178
f 256/1/179 257/1/179 36/1/179 35/1/179
f 234/1/180 235/1/180 3/1/180 1/1/180
f 249/1/181 250/1/181 25/1/181 24/1/181
f 242/1/182 243/1/182 15/1/182 13/1/182
f 257/1/183 37/1/183 36/1/183
f 235/1/184 236/1/184 5/1/184 3/1/184
f 250/1/185 251/1/185 28/1/185 25/1/185
f 243/1/186 244/1/186 17/1/186 15/1/186
f 236/1/187 237/1/187 6/1/187 5/1/187
f 251/1/188 252/1/188 29/1/188 28/1/188
f 244/1/189 245/1/189 18/1/189 17/1/189
f 237/1/190 238/1/190 8/1/190 6/1/190
f 252/1/191 253/1/191 30/1/191 29/1/191
f 245/1/192 246/1/192 20/1/192 18/1/192
f 262/1/193 287/1/193 288/1/193 263/1/193
f 277/1/194 302/1/194 303/1/194 278/1/194
f 270/1/195 295/1/195 296/1/195 271/1/195
f 263/1/196 288/1/196 289/1/196 264/1/196
f 278/1/197 303/1/197 304/1/197 279/1/197
f 271/1/198 296/1/198 297/1/198 272/1/198
f 264/1/199 289/1/199 290/1/199 265/1/199
f 279/1/200 304/1/200 305/1/200 280/1/200
f 272/1/201 297/1/201 298/1/201 273/1/201
f 265/1/202 290/1/202 291/1/202 266/1/202
f 280/1/203 305/1/203 306/1/203 281/1/203
f 258/1/111 283/1/111 284/1/111 259/1/111
f 273/1/204 298/1/204 299/1/204 274/1/204
f 266/1/205 291/1/205 292/1/205 267/1/205
f 281/1/206 306/1/206 282/1/206
f 306/1/207 307/1/207 282/1/207
f 259/1/208 284/1/208 285/1/208 260/1/208
f 274/1/209 299/1/209 300/1/209 275/1/209
f 267/1/210 292/1/210 293/1/210 268/1/210
f 260/1/211 285/1/211 286/1/211 261/1/211
f 275/1/212 300/1/212 301/1/212 276/1/212
f 268/1/213 293/1/213 294/1/213 269/1/213
f 261/1/214 286/1/214 287/1/214 262/1/214
f 276/1/215 301/1/215 302/1/215 277/1/215
f 269/1/216 294/1/216 295/1/216 270/1/216
f 285/1/217 310/1/217 311/1/217 286/1/217
f 300/1/218 325/1/218 326/1/218 301/1/218
f 293/1/219 318/1/219 319/1/219 294/1/219
f 286/1/220 311/1/220 312/1/220 287/1/220
f 301/1/221 326/1/221 327/1/221 302/1/221
f 294/1/222 319/1/222 320/1/222 295/1/222
f 287/1/223 312/1/223 313/1/223 288/1/223
f 302/1/224 327/1/224 328/1/224 303/1/224
f 295/1/225 320/1/225 321/1/225 296/1/225
f 288/1/226 313/1/226 314/1/226 289/1/226
f 303/1/227 328/1/227 329/1/227 304/1/227
f 296/1/228 321/1/228 322/1/228 297/1/228
f 289/1/229 314/1/229 315/1/229 290/1/229
f 304/1/230 329/1/230 330/1/230 305/1/230
f 297/1/231 322/1/231 323/1/231 298/1/231
f 290/1/232 315/1/232 316/1/232 291/1/232
f 305/1/233 330/1/233 331/1/233 306/1/233
f 283/1/126 308/1/126 309/1/126 284/1/126
f 298/1/234 323/1/234 324/1/234 299/1/234
f 291/1/235 316/1/235 317/1/235 292/1/235
f 306/1/236 331/1/236 307/1/236
f 331/1/237 332/1/237 307/1/237
f 284/1/238 309/1/238 310/1/238 285/1/238
f 299/1/239 324/1/239 325/1/239 300/1/239
f 292/1/240 317/1/240 318/1/240 293/1/240
f 313/1/241 338/1/241 339/1/241 314/1/241
f 328/1/242 353/1/242 354/1/242 329/1/242
f 321/1/243 346/1/243 347/1/243 322/1/243
f 314/1/244 339/1/244 340/1/244 315/1/244
f 329/1/245 354/1/245 355/1/245 330/1/245
f 322/1/246 347/1/246 348/1/246 323/1/246
f 315/1/247 340/1/247 341/1/247 316/1/247
f 330/1/248 355/1/248 356/1/248 331/1/248
f 308/1/164 333/1/164 334/1/164 309/1/164
f 323/1/249 348/1/249 349/1/249 324/1/249
f 316/1/250 341/1/250 342/1/250 317/1/250
f 331/1/251 356/1/251 332/1/251
f 356/1/252 357/1/252 332/1/252
f 309/1/253 334/1/253 335/1/253 310/1/253
f 324/1/254 349/1/254 350/1/254 325/1/254
f 317/1/255 342/1/255 343/1/255 318/1/255
f 310/1/256 335/1/256 336/1/256 311/1/256
f 325/1/257 350/1/257 351/1/257 326/1/257
f 318/1/258 343/1/258 344/1/258 319/1/258
f 311/1/259 336/1/259 337/1/259 312/1/259
f 326/1/260 351/1/260 352/1/260 327/1/260
f 319/1/261 344/1/261 345/1/261 320/1/261
f 312/1/262 337/1/262 338/1/262 313/1/262
f 327/1/263 352/1/263 353/1/263 328/1/263
f 320/1/264 345/1/264 346/1/264 321/1/264
f 348/1/265 373/1/265 374/1/265 349/1/265
f 341/1/266 366/1/266 367/1/266 342/1/266
f 356/1/267 381/1/267 357/1/267
f 381/1/268 382/1/268 357/1/268
f 334/1/269 359/1/269 360/1/269 335/1/269
f 349/1/270 374/1/270 375/1/270 350/1/270
f 342/1/271 367/1/271 368/1/271 343/1/271
f 335/1/272 360/1/272 361/1/272 336/1/272
f 350/1/273 375/1/273 376/1/273 351/1/273
f 343/1/274 368/1/274 369/1/274 344/1/274
f 336/1/275 361/1/275 362/1/275 337/1/275
f 351/1/276 376/1/276 377/1/276 352/1/276
f 344/1/277 369/1/277 370/1/277 345/1/277
f 337/1/278 362/1/278 363/1/278 338/1/278
f 352/1/279 377/1/279 378/1/279 353/1/279
f 345/1/280 370/1/280 371/1/280 346/1/280
f 338/1/281 363/1/281 364/1/281 339/1/281
f 353/1/282 378/1/282 379/1/282 354/1/282
f 346/1/283 371/1/283 372/1/283 347/1/283
f 339/1/284 364/1/284 365/1/284 340/1/284
f 354/1/285 379/1/285 380/1/285 355/1/285
f 347/1/286 372/1/286 373/1/286 348/1/286
f 340/1/287 365/1/287 366/1/287 341/1/287
f 355/1/288 380/1/288 381/1/288 356/1/288
f 333/1/180 358/1/180 359/1/180 334/1/180
f 361/1/289 386/1/289 387/1/289 362/1/289
f 376/1/290 401/1/290 402/1/290 377/1/290
f 369/1/291 394/1/291 395/1/291 370/1/291
f 362/1/292 387/1/292 388/1/292 363/1/292
f 377/1/293 402/1/293 403/1/293 378/1/293
f 370/1/294 395/1/294 396/1/294 371/1/294
f 363/1/295 388/1/295 389/1/295 364/1/295
f 378/1/296 403/1/296 404/1/296 379/1/296
f 371/1/297 396/1/297 397/1/297 372/1/297
f 364/1/298 389/1/298 390/1/298 365/1/298
f 379/1/299 404/1/299 405/1/299 380/1/299
f 372/1/300 397/1/300 398/1/300 373/1/300
f 365/1/301 390/1/301 391/1/301 366/1/301
f 380/1/302 405/1/302 406/1/302 381/1/302
f 358/1/12 383/1/12 384/1/12 359/1/12
f 373/1/303 398/1/303 399/1/303 374/1/303
f 366/1/304 391/1/304 392/1/304 367/1/304
f 381/1/305 406/1/305 382/1/305
f 406/1/306 407/1/306 382/1/306
f 359/1/307 384/1/307 385/1/307 360/1/307
f 374/1/308 399/1/308 400/1/308 375/1/308
f 367/1/309 392/1/309 393/1/309 368/1/309
f 360/1/310 385/1/310 386/1/310 361/1/310
f 375/1/311 400/1/311 401/1/311 376/1/311
f 368/1/312 393/1/312 394/1/312 369/1/312
f 389/1/313 414/1/313 415/1/313 390/1/313
f 404/1/314 429/1/314 430/1/314 405/1/314
f 397/1/315 422/1/315 423/1/315 398/1/315
f 390/1/316 415/1/316 416/1/316 391/1/316
f 405/1/317 430/1/317 431/1/317 406/1/317
f 383/1/42 408/1/42 409/1/42 384/1/42
f 398/1/318 423/1/318 424/1/318 399/1/318
f 391/1/319 416/1/319 417/1/319 392/1/319
f 406/1/320 431/1/320 407/1/320
f 431/1/321 432/1/321 407/1/321
f 384/1/322 409/1/322 410/1/322 385/1/322
f 399/1/323 424/1/323 425/1/323 400/1/323
f 392/1/324 417/1/324 418/1/324 393/1/324
f 385/1/325 410/1/325 411/1/325 386/1/325
f 400/1/326 425/1/326 426/1/326 401/1/326
f 393/1/327 418/1/327 419/1/327 394/1/327
f 386/1/328 411/1/328 412/1/328 387/1/328
f 401/1/329 426/1/329 427/1/329 402/1/329
f 394/1/330 419/1/330 420/1/330 395/1/330
f 387/1/331 412/1/331 413/1/331 388/1/331
f 402/1/332 427/1/332 428/1/332 403/1/332
f 395/1/333 420/1/333 421/1/333 396/1/333
f 388/1/334 413/1/334 414/1/334 389/1/334
f 403/1/335 428/1/335 429/1/335 404/1/335
f 396/1/336 421/1/336 422/1/336 397/1/336
f 424/1/337 449/1/337 450/1/337 425/1/337
f 417/1/338 442/1/338 443/1/338 418/1/338
f 410/1/339 435/1/339 436/1/339 411/1/339
f 425/1/340 450/1/340 451/1/340 426/1/340
f 418/1/341 443/1/341 444/1/341 419/1/341
f 411/1/342 436/1/342 437/1/342 412/1/342
f 426/1/343 451/1/343 452/1/343 427/1/343
f 419/1/344 444/1/344 445/1/344 420/1/344
f 412/1/345 437/1/345 438/1/345 413/1/345
f 427/1/346 452/1/346 453/1/346 428/1/346
f 420/1/347 445/1/347 446/1/347 421/1/347
f 413/1/348 438/1/348 439/1/348 414/1/348
f 428/1/349 453/1/349 454/1/349 429/1/349
f 421/1/350 446/1/350 447/1/350 422/1/350
f 414/1/351 439/1/351 440/1/351 415/1/351
f 429/1/352 454/1/352 455/1/352 430/1/352
f 422/1/353 447/1/353 448/1/353 423/1/353
f 415/1/354 440/1/354 441/1/354 416/1/354
f 430/1/355 455/1/355 456/1/355 431/1/355
f 408/1/57 433/1/57 434/1/57 409/1/57
f 423/1/356 448/1/356 449/1/356 424/1/356
f 416/1/357 441/1/357 442/1/357 417/1/357
f 431/1/358 456/1/358 432/1/358
f 456/1/359 457/1/359 432/1/359
f 409/1/360 434/1/360 435/1/360 410/1/360
f 437/1/361 262/1/361 263/1/361 438/1/361
f 452/1/362 277/1/362 278/1/362 453/1/362
f 445/1/363 270/1/363 271/1/363 446/1/363
f 438/1/364 263/1/364 264/1/364 439/1/364
f 453/1/365 278/1/365 279/1/365 454/1/365
f 446/1/366 271/1/366 272/1/366 447/1/366
f 439/1/367 264/1/367 265/1/367 440/1/367
f 454/1/368 279/1/368 280/1/368 455/1/368
f 447/1/369 272/1/369 273/1/369 448/1/369
f 440/1/370 265/1/370 266/1/370 441/1/370
f 455/1/371 280/1/371 281/1/371 456/1/371
f 433/1/96 258/1/96 259/1/96 434/1/96
f 448/1/372 273/1/372 274/1/372 449/1/372
f 441/1/373 266/1/373 267/1/373 442/1/373
f 456/1/374 281/1/374 457/1/374
f 281/1/375 282/1/375 457/1/375
f 434/1/376 259/1/376 260/1/376 435/1/376
f 449/1/377 274/1/377 275/1/377 450/1/377
f 442/1/378 267/1/378 268/1/378 443/1/378
f 435/1/379 260/1/379 261/1/379 436/1/379
f 450/1/380 275/1/380 276/1/380 451/1/380
f 443/1/381 268/1/381 269/1/381 444/1/381
f 436/1/382 261/1/382 262/1/382 437/1/382
f 451/1/383 276/1/383 277/1/383 452/1/383
f 444/1/384 269/1/384 270/1/384 445/1/384
f 1/1/385 40/1/385 283/1/385 258/1/385
f 282/1/386 307/1/386 37/1/386
f 40/1/385 76/1/385 308/1/385 283/1/385
f 332/1/387 37/1/387 307/1/387
f 76/1/385 112/1/385 333/1/385 308/1/385
f 357/1/388 37/1/388 332/1/388
f 382/1/389 37/1/389 357/1/389
f 112/1/385 148/1/385 358/1/385 333/1/385
f 148/1/385 186/1/385 383/1/385 358/1/385
f 382/1/390 407/1/390 37/1/390
f 186/1/385 210/1/385 408/1/385 383/1/385
f 407/1/391 432/1/391 37/1/391
f 210/1/385 234/1/385 433/1/385 408/1/385
f 432/1/392 457/1/392 37/1/392
f 234/1/385 1/1/385 258/1/385 433/1/385
f 282/1/393 37/1/393 457/1/393
f 7/2/394 4/3/394 516/4/394 510/4/394 507/5/394
f 14/6/395 7/2/395 507/5/395 511/7/395
f 22/8/396 14/6/396 511/7/396 513/9/396
f 27/10/397 22/8/397 513/9/397 500/11/397 499/12/397
f 503/13/398 31/14/398 27/10/398 499/12/398
f 505/15/399 39/16/399 31/14/399 503/13/399
f 504/17/400 46/18/400 39/16/400 505/15/400
f 491/19/401 51/20/401 46/18/401 504/17/401 490/21/401
f 492/22/402 56/23/402 51/20/402 491/19/402
f 493/24/403 62/25/403 56/23/403 492/22/403
f 487/26/404 70/27/404 62/25/404 493/24/404
f 485/28/405 73/29/405 70/27/405 487/26/405
f 481/30/406 80/31/406 73/29/406 485/28/406 480/28/406
f 479/32/407 85/33/407 80/31/407 481/30/407
f 477/34/408 90/35/408 85/33/408 479/32/408
f 474/36/409 96/37/409 90/35/409 477/34/409
f 473/38/410 104/39/410 96/37/410 474/36/410
f 471/40/411 109/41/411 104/39/411 473/38/411
f 469/42/412 113/43/412 109/41/412 471/40/412
f 466/44/413 120/45/413 113/43/413 469/42/413
f 127/46/414 120/45/414 466/44/414 464/47/414
f 134/48/415 127/46/415 464/47/415 462/49/415
f 138/50/416 134/48/416 462/49/416 461/51/416
f 143/52/417 138/50/417 461/51/417 458/53/417
f 150/54/418 143/52/418 458/53/418 527/55/418
f 157/56/419 150/54/419 527/55/419 529/57/419
f 161/58/420 157/56/420 529/57/420 531/59/420
f 166/60/421 161/58/421 531/59/421 519/61/421 520/62/421
f 173/63/422 166/60/422 520/62/422 522/64/422
f 180/65/423 173/63/423 522/64/423 523/66/423
f 184/67/424 180/65/424 523/66/424 525/68/424
f 4/69/425 184/67/425 525/68/425 516/70/425
f 75/71/426 67/72/426 70/73/426 73/74/426 80/75/426 85/76/426 90/77/426 96/78/426 104/79/426 109/80/426 113/81/426 115/82/426 111/83/426 103/84/426 98/85/426 93/86/426 87/87/426 78/88/426
f 62/89/426 70/73/426 67/72/426 64/90/426 58/91/426 49/92/426 44/93/426 38/94/426 33/95/426 26/96/426 19/97/426 16/98/426 10/99/426 2/100/426 185/101/426 179/102/426 174/103/426 168/104/426 163/105/426 154/106/426 149/107/426 146/108/426 139/109/426 132/110/426 125/111/426 122/112/426 115/82/426 113/81/426 120/113/426 127/114/426 134/115/426 138/116/426 143/117/426 150/118/426 157/119/426 161/120/426 166/121/426 173/122/426 180/123/426 184/124/426 4/125/426 7/126/426 14/127/426 22/128/426 27/129/426 31/130/426 39/131/426 46/132/426 51/133/426 56/134/426
f 515/135/410 2/3/410 10/2/410 508/136/410 509/135/410
f 508/136/411 10/2/411 16/6/411 512/137/411
f 512/137/412 16/6/412 19/8/412 506/138/412
f 506/138/413 19/8/413 26/10/413 497/139/413 498/139/413
f 26/10/414 33/14/414 501/140/414 497/139/414
f 33/14/415 38/16/415 502/141/415 501/140/415
f 38/16/416 44/18/416 496/142/416 502/141/416
f 44/18/417 49/20/417 494/143/417 495/143/417 496/142/417
f 49/20/418 58/23/418 489/144/418 494/143/418
f 58/23/419 64/25/419 488/145/419 489/144/419
f 64/25/420 67/27/420 486/146/420 488/145/420
f 67/27/421 75/29/421 484/147/421 486/146/421
f 75/29/422 78/31/422 482/148/422 483/147/422 484/147/422
f 78/31/423 87/33/423 478/149/423 482/148/423
f 87/33/424 93/35/424 476/150/424 478/149/424
f 93/35/425 98/37/425 475/151/425 476/150/425
f 98/37/394 103/39/394 472/152/394 475/151/394
f 103/39/395 111/41/395 470/153/395 472/152/395
f 111/41/396 115/43/396 468/154/396 470/153/396
f 115/43/397 122/45/397 465/155/397 468/154/397
f 465/155/398 122/45/398 125/46/398 467/156/398
f 467/156/399 125/46/399 132/48/399 463/157/399
f 463/157/400 132/48/400 139/50/400 460/158/400
f 460/158/401 139/50/401 146/52/401 459/159/401
f 459/159/402 146/52/402 149/54/402 528/160/402
f 528/160/403 149/54/403 154/56/403 530/161/403
f 530/161/404 154/56/404 163/58/404 526/162/404
f 526/162/405 163/58/405 168/60/405 518/163/405 517/164/405
f 518/163/406 168/60/406 174/63/406 521/165/406
f 521/165/407 174/63/407 179/65/407 524/166/407
f 524/166/408 179/65/408 185/67/408 514/167/408
f 514/167/409 185/67/409 2/69/409 515/168/409
