# Converted from USD mesh /root/Alphabet_Block_Large/Visuals/Alphabet_Block_Large_Base
v 0.020803 -0.021 -0.020265
v 0.020265 -0.021 -0.020803
v 0.01953 -0.021 -0.021
v 0.021 -0.021 -0.01953
v 0.016834 -0.021 -0.016834
v 0.020803 0.021 -0.020265
v 0.020265 0.021 -0.020803
v 0.01953 0.021 -0.021
v 0.021 0.021 -0.01953
v 0.016834 0.021 -0.016834
v -0.020803 -0.021 -0.020265
v -0.020265 -0.021 -0.020803
v -0.01953 -0.021 -0.021
v -0.021 -0.021 -0.01953
v -0.016834 -0.021 -0.016834
v -0.020803 0.021 -0.020265
v -0.020265 0.021 -0.020803
v -0.01953 0.021 -0.021
v -0.021 0.021 -0.01953
v -0.016834 0.021 -0.016834
v 0.020803 0.021 0.020265
v 0.020265 0.021 0.020803
v 0.01953 0.021 0.021
v 0.021 0.021 0.01953
v 0.016834 0.021 0.016834
v 0.020803 -0.021 0.020265
v 0.020265 -0.021 0.020803
v 0.01953 -0.021 0.021
v 0.021 -0.021 0.01953
v 0.016834 -0.021 0.016834
v -0.020803 -0.021 0.020265
v -0.020265 -0.021 0.020803
v -0.01953 -0.021 0.021
v -0.021 -0.021 0.01953
v -0.016834 -0.021 0.016834
v -0.020803 0.021 0.020265
v -0.020265 0.021 0.020803
v -0.01953 0.021 0.021
v -0.021 0.021 0.01953
v -0.016834 0.021 0.016834
vt 0.499544 0.516761
vt 0.48438 0.529869
vt 0.497489 0.514705
vt 0.48438 0.529869
vt 0.494681 0.513953
vt 0.497489 0.514705
vt 0.499544 0.516761
vt 0.500296 0.519568
vt 0.48438 0.529869
vt 0.031679 0.674404
vt 0.031679 0.834854
vt 0.028871 0.834854
vt 0.028871 0.674404
vt 0.028871 0.674404
vt 0.028871 0.834854
vt 0.026816 0.834854
vt 0.026816 0.674404
vt 0.65438 0.674404
vt 0.654379 0.834855
vt 0.651572 0.834855
vt 0.651572 0.674404
vt 0.500296 0.98969
vt 0.48438 0.979389
vt 0.48438 0.850771
vt 0.500296 0.84047
vt 0.499544 0.992498
vt 0.497489 0.994553
vt 0.48438 0.979389
vt 0.48438 0.979389
vt 0.494681 0.995305
vt 0.345461 0.995305
vt 0.355762 0.979389
vt 0.48438 0.979389
vt 0.497489 0.994553
vt 0.494681 0.995305
vt 0.499544 0.992498
vt 0.48438 0.979389
vt 0.500296 0.98969
vt 0.180899 0.674403
vt 0.183707 0.674403
vt 0.183707 0.834854
vt 0.180899 0.834854
vt 0.183707 0.674403
vt 0.185762 0.674403
vt 0.185762 0.834854
vt 0.183707 0.834854
vt 0.185762 0.674403
vt 0.18857 0.674403
vt 0.18857 0.834854
vt 0.185762 0.834854
vt 0.339845 0.519568
vt 0.355762 0.529869
vt 0.355762 0.658487
vt 0.339846 0.668788
vt 0.355762 0.529869
vt 0.48438 0.529869
vt 0.48438 0.658487
vt 0.355762 0.658487
vt 0.340598 0.516761
vt 0.342653 0.514705
vt 0.355762 0.529869
vt 0.48438 0.529869
vt 0.355762 0.529869
vt 0.345461 0.513953
vt 0.494681 0.513953
vt 0.355762 0.529869
vt 0.342653 0.514705
vt 0.345461 0.513953
vt 0.340598 0.516761
vt 0.355762 0.529869
vt 0.339845 0.519568
vt 0.180899 0.674403
vt 0.180899 0.834854
vt 0.031679 0.834854
vt 0.031679 0.674404
vt 0.340598 0.992498
vt 0.355762 0.979389
vt 0.342653 0.994553
vt 0.355762 0.979389
vt 0.345461 0.995305
vt 0.342653 0.994553
vt 0.340598 0.992498
vt 0.339845 0.98969
vt 0.355762 0.979389
vt 0.651572 0.834855
vt 0.502352 0.834854
vt 0.502352 0.674404
vt 0.651572 0.674404
vt 0.499544 0.837662
vt 0.48438 0.850771
vt 0.497489 0.835607
vt 0.48438 0.850771
vt 0.494681 0.834854
vt 0.497489 0.835607
vt 0.499544 0.837662
vt 0.500296 0.84047
vt 0.48438 0.850771
vt 0.494681 0.834854
vt 0.494681 0.674404
vt 0.497489 0.674404
vt 0.497489 0.834854
vt 0.497489 0.834854
vt 0.497489 0.674404
vt 0.499544 0.674404
vt 0.499544 0.834854
vt 0.499544 0.834854
vt 0.499544 0.674404
vt 0.502352 0.674404
vt 0.502352 0.834854
vt 0.500296 0.519568
vt 0.500296 0.668788
vt 0.48438 0.658487
vt 0.48438 0.529869
vt 0.499544 0.671596
vt 0.497489 0.673651
vt 0.48438 0.658487
vt 0.48438 0.658487
vt 0.494681 0.674404
vt 0.345461 0.674404
vt 0.355762 0.658487
vt 0.48438 0.658487
vt 0.497489 0.673651
vt 0.494681 0.674404
vt 0.499544 0.671596
vt 0.48438 0.658487
vt 0.500296 0.668788
vt 0.345461 0.674404
vt 0.494681 0.674404
vt 0.494681 0.834854
vt 0.345461 0.834854
vt 0.18857 0.834854
vt 0.18857 0.674403
vt 0.33779 0.674404
vt 0.33779 0.834854
vt 0.340598 0.671596
vt 0.355762 0.658487
vt 0.342653 0.673651
vt 0.355762 0.658487
vt 0.345461 0.674404
vt 0.342653 0.673651
vt 0.340598 0.671596
vt 0.339846 0.668788
vt 0.355762 0.658487
vt 0.345461 0.674404
vt 0.345461 0.834854
vt 0.342653 0.834854
vt 0.342653 0.674404
vt 0.342653 0.674404
vt 0.342653 0.834854
vt 0.340598 0.834854
vt 0.340598 0.674404
vt 0.340598 0.674404
vt 0.340598 0.834854
vt 0.33779 0.834854
vt 0.33779 0.674404
vt 0.339845 0.98969
vt 0.339845 0.84047
vt 0.355762 0.850771
vt 0.355762 0.979389
vt 0.355762 0.979389
vt 0.355762 0.850771
vt 0.48438 0.850771
vt 0.48438 0.979389
vt 0.340598 0.837662
vt 0.342653 0.835607
vt 0.355762 0.850771
vt 0.48438 0.850771
vt 0.355762 0.850771
vt 0.345461 0.834854
vt 0.494681 0.834854
vt 0.355762 0.850771
vt 0.342653 0.835607
vt 0.345461 0.834854
vt 0.340598 0.837662
vt 0.355762 0.850771
vt 0.339845 0.84047
vn 0 -1 0
vn 0 -1 0
vn 0 -1 0
vn 0 -1 0
vn 0 -1 0
vn 0 -1 0
vn 0 -1 0
vn 0 -1 0
vn 0 -1 0
vn 0.004949 0 -0.999988
vn 0.004949 0 -0.999988
vn 0.500012 0 -0.866018
vn 0.500012 0 -0.866018
vn 0.500012 0 -0.866018
vn 0.500012 0 -0.866018
vn 0.866018 0 -0.500013
vn 0.866018 0 -0.500013
vn 0.866018 0 -0.500013
vn 0.866018 0 -0.500013
vn 0.999988 0 -0.004949
vn 0.999988 0 -0.004949
vn 0 1 0
vn 0 1 0
vn 0 1 -0
vn 0 1 0
vn 0 1 0
vn 0 1 0
vn 0 1 0
vn 0 1 0
vn 0 1 0
vn 0 1 0
vn 0 1 0
vn 0 1 0
vn 0 1 0
vn 0 1 0
vn 0 1 0
vn 0 1 0
vn 0 1 0
vn -0.004949 0 -0.999988
vn -0.500012 0 -0.866018
vn -0.500012 0 -0.866018
vn -0.004949 0 -0.999988
vn -0.500012 0 -0.866018
vn -0.866018 0 -0.500013
vn -0.866018 0 -0.500013
vn -0.500012 0 -0.866018
vn -0.866018 0 -0.500013
vn -0.999988 0 -0.004949
vn -0.999988 0 -0.004949
vn -0.866018 0 -0.500013
vn 0 -1 0
vn 0 -1 0
vn 0 -1 0
vn 0 -1 0
vn 0 -1 0
vn 0 -1 0
vn 0 -1 -0
vn 0 -1 0
vn 0 -1 0
vn 0 -1 0
vn 0 -1 0
vn 0 -1 0
vn 0 -1 0
vn 0 -1 0
vn 0 -1 0
vn 0 -1 0
vn 0 -1 0
vn 0 -1 0
vn 0 -1 0
vn 0 -1 0
vn 0 -1 0
vn -0.004949 0 -0.999988
vn -0.004949 0 -0.999988
vn 0.004949 0 -0.999988
vn 0.004949 0 -0.999988
vn 0 1 0
vn 0 1 0
vn 0 1 0
vn 0 1 0
vn 0 1 0
vn 0 1 0
vn 0 1 0
vn 0 1 0
vn 0 1 0
vn 0.999988 0 -0.004949
vn 0.999988 0 0.004949
vn 0.999988 0 0.004949
vn 0.999988 0 -0.004949
vn 0 1 0
vn 0 1 -0
vn 0 1 0
vn 0 1 -0
vn 0 1 -0
vn 0 1 0
vn 0 1 0
vn 0 1 0
vn 0 1 -0
vn 0.004949 0 0.999988
vn 0.004949 0 0.999988
vn 0.500012 0 0.866018
vn 0.500012 0 0.866018
vn 0.500012 0 0.866018
vn 0.500012 0 0.866018
vn 0.866018 0 0.500013
vn 0.866018 0 0.500013
vn 0.866018 0 0.500013
vn 0.866018 0 0.500013
vn 0.999988 0 0.004949
vn 0.999988 0 0.004949
vn 0 -1 0
vn 0 -1 -0
vn 0 -1 -0
vn 0 -1 0
vn 0 -1 -0
vn 0 -1 0
vn 0 -1 -0
vn 0 -1 -0
vn 0 -1 0
vn 0 -1 0
vn 0 -1 0
vn 0 -1 -0
vn 0 -1 0
vn 0 -1 0
vn 0 -1 -0
vn 0 -1 -0
vn 0 -1 -0
vn -0.004949 0 0.999988
vn 0.004949 0 0.999988
vn 0.004949 0 0.999988
vn -0.004949 0 0.999988
vn -0.999988 0 -0.004949
vn -0.999988 0 -0.004949
vn -0.999988 0 0.004949
vn -0.999988 0 0.004949
vn 0 -1 0
vn 0 -1 0
vn 0 -1 0
vn 0 -1 0
vn 0 -1 0
vn 0 -1 0
vn 0 -1 0
vn 0 -1 0
vn 0 -1 0
vn -0.004949 0 0.999988
vn -0.004949 0 0.999988
vn -0.500012 0 0.866018
vn -0.500012 0 0.866018
vn -0.500012 0 0.866018
vn -0.500012 0 0.866018
vn -0.866018 0 0.500013
vn -0.866018 0 0.500013
vn -0.866018 0 0.500013
vn -0.866018 0 0.500013
vn -0.999988 0 0.004949
vn -0.999988 0 0.004949
vn 0 1 0
vn 0 1 -0
vn 0 1 -0
vn 0 1 0
vn 0 1 0
vn 0 1 -0
vn 0 1 -0
vn 0 1 0
vn 0 1 -0
vn 0 1 0
vn 0 1 -0
vn 0 1 -0
vn 0 1 -0
vn 0 1 -0
vn 0 1 -0
vn 0 1 -0
vn 0 1 0
vn 0 1 -0
vn 0 1 -0
vn 0 1 -0
vn 0 1 -0
f 1/1/1 5/2/2 2/3/3
f 5/4/4 3/5/5 2/6/6
f 1/7/7 4/8/8 5/9/9
f 3/10/10 8/11/11 7/12/12
f 3/10/10 7/12/12 2/13/13
f 2/14/14 7/15/15 6/16/16
f 2/14/14 6/16/16 1/17/17
f 1/18/18 6/19/19 9/20/20
f 1/18/18 9/20/20 4/21/21
f 9/22/22 10/23/23 25/24/24
f 9/22/22 25/24/24 24/25/25
f 6/26/26 7/27/27 10/28/28
f 10/29/29 8/30/30 18/31/31
f 10/29/29 18/31/31 20/32/32
f 10/33/33 7/34/34 8/35/35
f 6/36/36 10/37/37 9/38/38
f 13/39/39 12/40/40 17/41/41
f 13/39/39 17/41/41 18/42/42
f 12/43/43 11/44/44 16/45/45
f 12/43/43 16/45/45 17/46/46
f 11/47/47 14/48/48 19/49/49
f 11/47/47 19/49/49 16/50/50
f 14/51/51 15/52/52 35/53/53
f 14/51/51 35/53/53 34/54/54
f 15/55/55 5/56/56 30/57/57
f 15/55/55 30/57/57 35/58/58
f 11/59/59 12/60/60 15/61/61
f 5/62/62 15/63/63 13/64/64
f 5/62/62 13/64/64 3/65/65
f 15/66/66 12/67/67 13/68/68
f 11/69/69 15/70/70 14/71/71
f 13/72/72 18/73/73 8/74/74
f 13/72/72 8/74/74 3/75/75
f 16/76/76 20/77/77 17/78/78
f 20/79/79 18/80/80 17/81/81
f 16/82/82 19/83/83 20/84/84
f 9/85/85 24/86/86 29/87/87
f 9/85/85 29/87/87 4/88/88
f 21/89/89 25/90/90 22/91/91
f 25/92/92 23/93/93 22/94/94
f 21/95/95 24/96/96 25/97/97
f 23/98/98 28/99/99 27/100/100
f 23/98/98 27/100/100 22/101/101
f 22/102/102 27/103/103 26/104/104
f 22/102/102 26/104/104 21/105/105
f 21/106/106 26/107/107 29/108/108
f 21/106/106 29/108/108 24/109/109
f 4/110/110 29/111/111 30/112/112
f 4/110/110 30/112/112 5/113/113
f 26/114/114 27/115/115 30/116/116
f 30/117/117 28/118/118 33/119/119
f 30/117/117 33/119/119 35/120/120
f 30/121/121 27/122/122 28/123/123
f 26/124/124 30/125/125 29/126/126
f 33/127/127 28/128/128 23/129/129
f 33/127/127 23/129/129 38/130/130
f 19/131/131 14/132/132 34/133/133
f 19/131/131 34/133/133 39/134/134
f 31/135/135 35/136/136 32/137/137
f 35/138/138 33/139/139 32/140/140
f 31/141/141 34/142/142 35/143/143
f 33/144/144 38/145/145 37/146/146
f 33/144/144 37/146/146 32/147/147
f 32/148/148 37/149/149 36/150/150
f 32/148/148 36/150/150 31/151/151
f 31/152/152 36/153/153 39/154/154
f 31/152/152 39/154/154 34/155/155
f 19/156/156 39/157/157 40/158/158
f 19/156/156 40/158/158 20/159/159
f 20/160/160 40/161/161 25/162/162
f 20/160/160 25/162/162 10/163/163
f 36/164/164 37/165/165 40/166/166
f 25/167/167 40/168/168 38/169/169
f 25/167/167 38/169/169 23/170/170
f 40/171/171 37/172/172 38/173/173
f 36/174/174 40/175/175 39/176/176
