# Blender 5.1.1
# www.blender.org
mtllib handle_left_visual.mtl
o Cube
v 0.146017 0.035038 0.139817
v 0.146017 0.026876 0.136552
v 0.146017 0.033945 0.138184
v 0.146017 0.030957 0.136989
v 0.146017 0.026876 0.154814
v 0.146017 0.035038 0.151549
v 0.146017 0.030957 0.154376
v 0.146017 0.033945 0.153181
v 0.184157 0.026876 0.136552
v 0.184157 0.035038 0.139817
v 0.192319 0.026876 0.139817
v 0.184157 0.030952 0.136988
v 0.188233 0.026876 0.136988
v 0.188060 0.030779 0.137412
v 0.188233 0.033948 0.139817
v 0.184157 0.033948 0.138186
v 0.188060 0.032888 0.138255
v 0.191229 0.026876 0.138186
v 0.191229 0.030952 0.139817
v 0.190169 0.030779 0.138255
v 0.184157 0.026876 0.154814
v 0.192319 0.026876 0.151549
v 0.184157 0.035038 0.151549
v 0.188233 0.026876 0.154377
v 0.184157 0.030952 0.154377
v 0.188060 0.030779 0.153954
v 0.191229 0.030952 0.151549
v 0.191229 0.026876 0.153179
v 0.190169 0.030779 0.153110
v 0.184157 0.033948 0.153179
v 0.188233 0.033948 0.151549
v 0.188060 0.032888 0.153110
v 0.146017 -0.026876 0.136552
v 0.146017 -0.035038 0.139817
v 0.146017 -0.030957 0.136989
v 0.146017 -0.033945 0.138184
v 0.146017 -0.035038 0.151549
v 0.146017 -0.026876 0.154814
v 0.146017 -0.033945 0.153181
v 0.146017 -0.030957 0.154376
v 0.184157 -0.026876 0.136552
v 0.192319 -0.026876 0.139817
v 0.184157 -0.035038 0.139817
v 0.188233 -0.026876 0.136988
v 0.184157 -0.030952 0.136988
v 0.188060 -0.030779 0.137412
v 0.191229 -0.030952 0.139817
v 0.191229 -0.026876 0.138186
v 0.190169 -0.030779 0.138255
v 0.184157 -0.033948 0.138186
v 0.188233 -0.033948 0.139817
v 0.188060 -0.032888 0.138255
v 0.184157 -0.026876 0.154814
v 0.184157 -0.035038 0.151549
v 0.192319 -0.026876 0.151549
v 0.184157 -0.030952 0.154377
v 0.188233 -0.026876 0.154377
v 0.188060 -0.030779 0.153954
v 0.188233 -0.033948 0.151549
v 0.184157 -0.033948 0.153179
v 0.188060 -0.032888 0.153110
v 0.191229 -0.026876 0.153179
v 0.191229 -0.030952 0.151549
v 0.190169 -0.030779 0.153110
v 0.182472 0.021669 0.138873
v 0.180151 0.023990 0.138873
v 0.183970 0.026556 0.136552
v 0.182128 0.022808 0.138873
v 0.182698 0.023591 0.137726
v 0.182363 0.023783 0.137763
v 0.181295 0.024365 0.137742
v 0.181290 0.023646 0.138873
v 0.181912 0.024043 0.137776
v 0.183249 0.025375 0.136881
v 0.182685 0.025297 0.136896
v 0.182551 0.024600 0.137145
v 0.159986 -0.021669 0.138873
v 0.162307 -0.023990 0.138873
v 0.157666 -0.026546 0.136552
v 0.160331 -0.022808 0.138873
v 0.159645 -0.023219 0.137739
v 0.159994 -0.023644 0.137774
v 0.160914 -0.024363 0.137742
v 0.161168 -0.023646 0.138873
v 0.160404 -0.024017 0.137777
v 0.158799 -0.024997 0.136893
v 0.159223 -0.025293 0.136895
v 0.159628 -0.024460 0.137152
v 0.182472 -0.021669 0.138873
v 0.183970 -0.026556 0.136552
v 0.180151 -0.023990 0.138873
v 0.182698 -0.023591 0.137726
v 0.182128 -0.022808 0.138873
v 0.182363 -0.023783 0.137763
v 0.182685 -0.025297 0.136896
v 0.183249 -0.025375 0.136881
v 0.182551 -0.024600 0.137145
v 0.181290 -0.023646 0.138873
v 0.181295 -0.024365 0.137742
v 0.181912 -0.024043 0.137776
v 0.162307 0.023990 0.138873
v 0.159986 0.021669 0.138873
v 0.157666 0.026546 0.136552
v 0.161168 0.023646 0.138873
v 0.160914 0.024363 0.137742
v 0.160404 0.024017 0.137777
v 0.159645 0.023219 0.137739
v 0.160331 0.022808 0.138873
v 0.159994 0.023644 0.137774
v 0.159223 0.025293 0.136895
v 0.158799 0.024997 0.136893
v 0.159628 0.024460 0.137152
v 0.162307 0.023990 0.152493
v 0.157666 0.026546 0.154814
v 0.159986 0.021669 0.152493
v 0.160914 0.024363 0.153623
v 0.161168 0.023646 0.152493
v 0.160404 0.024017 0.153589
v 0.158799 0.024997 0.154473
v 0.159223 0.025293 0.154470
v 0.159628 0.024460 0.154214
v 0.160331 0.022808 0.152493
v 0.159645 0.023219 0.153627
v 0.159994 0.023644 0.153592
v 0.180151 0.023990 0.152493
v 0.182472 0.021669 0.152493
v 0.183970 0.026556 0.154814
v 0.181290 0.023646 0.152493
v 0.181295 0.024365 0.153624
v 0.181912 0.024043 0.153589
v 0.182698 0.023591 0.153640
v 0.182128 0.022808 0.152493
v 0.182363 0.023783 0.153603
v 0.182685 0.025297 0.154470
v 0.183249 0.025375 0.154484
v 0.182551 0.024600 0.154220
v 0.180151 -0.023990 0.152493
v 0.183970 -0.026556 0.154814
v 0.182472 -0.021669 0.152493
v 0.181295 -0.024365 0.153624
v 0.181290 -0.023646 0.152493
v 0.181912 -0.024043 0.153589
v 0.183249 -0.025375 0.154484
v 0.182685 -0.025297 0.154470
v 0.182551 -0.024600 0.154220
v 0.182128 -0.022808 0.152493
v 0.182698 -0.023591 0.153640
v 0.182363 -0.023783 0.153603
v 0.162307 -0.023990 0.152493
v 0.159986 -0.021669 0.152493
v 0.157666 -0.026546 0.154814
v 0.161168 -0.023646 0.152493
v 0.160914 -0.024363 0.153623
v 0.160404 -0.024017 0.153589
v 0.159645 -0.023219 0.153627
v 0.160331 -0.022808 0.152493
v 0.159994 -0.023644 0.153592
v 0.159223 -0.025293 0.154470
v 0.158799 -0.024997 0.154473
v 0.159628 -0.024460 0.154214
vn 0.1088 0.1088 -0.9881
vn 0.1164 0.3689 -0.9222
vn 0.2212 0.8033 -0.5530
vn 0.6175 0.6175 -0.4872
vn 0.8033 0.2212 -0.5530
vn 0.3689 0.1164 -0.9222
vn 0.3482 0.3482 -0.8704
vn 0.1088 0.1088 0.9881
vn 0.3689 0.1164 0.9222
vn 0.8033 0.2212 0.5530
vn 0.6175 0.6175 0.4872
vn 0.2212 0.8033 0.5530
vn 0.1164 0.3689 0.9222
vn 0.3482 0.3482 0.8704
vn 0.1088 -0.1088 -0.9881
vn 0.3689 -0.1164 -0.9222
vn 0.8033 -0.2212 -0.5530
vn 0.6175 -0.6175 -0.4872
vn 0.2212 -0.8033 -0.5530
vn 0.1164 -0.3689 -0.9222
vn 0.3482 -0.3482 -0.8704
vn 0.1088 -0.1088 0.9881
vn 0.1164 -0.3689 0.9222
vn 0.2212 -0.8033 0.5530
vn 0.6175 -0.6175 0.4872
vn 0.8033 -0.2212 0.5530
vn 0.3689 -0.1164 0.9222
vn 0.3482 -0.3482 0.8704
vn -0.0000 0.1065 -0.9943
vn -0.0000 0.3714 -0.9285
vn -0.0000 0.8310 -0.5563
vn -0.0000 0.1065 0.9943
vn -0.0000 0.3714 0.9285
vn -0.0000 0.8310 0.5563
vn 0.9660 0.2585 -0.0000
vn 0.7071 0.7071 -0.0000
vn 0.2585 0.9660 -0.0000
vn 0.1064 -0.0000 -0.9943
vn 0.3714 -0.0000 -0.9285
vn 0.8312 -0.0000 -0.5560
vn 0.1064 -0.0000 0.9943
vn 0.3714 -0.0000 0.9285
vn 0.8312 -0.0000 0.5560
vn 0.2585 -0.9660 -0.0000
vn 0.7071 -0.7071 -0.0000
vn 0.9660 -0.2585 -0.0000
vn -0.0000 -0.1065 -0.9943
vn -0.0000 -0.3714 -0.9285
vn -0.0000 -0.8310 -0.5563
vn -0.0000 -0.1065 0.9943
vn -0.0000 -0.3714 0.9285
vn -0.0000 -0.8310 0.5563
vn -0.0000 1.0000 -0.0000
vn -1.0000 -0.0000 -0.0000
vn 1.0000 -0.0000 -0.0000
vn -0.0000 -1.0000 -0.0000
vn -0.7207 -0.3513 -0.5977
vn -0.5288 -0.6135 -0.5865
vn -0.2957 -0.8056 -0.5135
vn -0.3322 -0.3961 -0.8560
vn 0.0167 -0.3014 -0.9533
vn 0.0261 -0.4953 -0.8684
vn -0.3246 -0.5211 -0.7894
vn 0.7545 0.3213 -0.5723
vn 0.5593 0.5754 -0.5968
vn 0.3106 0.7695 -0.5580
vn 0.3877 0.2532 -0.8863
vn 0.1222 0.1663 -0.9785
vn 0.1826 0.4183 -0.8897
vn 0.4005 0.4352 -0.8063
vn -0.7207 0.3513 -0.5977
vn 0.0261 0.4953 -0.8684
vn 0.0167 0.3014 -0.9533
vn -0.3322 0.3961 -0.8560
vn -0.2957 0.8056 -0.5135
vn -0.5288 0.6134 -0.5865
vn -0.3246 0.5211 -0.7894
vn 0.3106 -0.7695 -0.5580
vn 0.5593 -0.5754 -0.5968
vn 0.7545 -0.3213 -0.5723
vn 0.1826 -0.4183 -0.8897
vn 0.1222 -0.1663 -0.9785
vn 0.3877 -0.2532 -0.8863
vn 0.4005 -0.4352 -0.8063
vn 0.3106 -0.7695 0.5580
vn 0.3877 -0.2532 0.8863
vn 0.1222 -0.1663 0.9785
vn 0.1826 -0.4183 0.8897
vn 0.7545 -0.3213 0.5723
vn 0.5593 -0.5754 0.5968
vn 0.4005 -0.4352 0.8063
vn -0.2957 -0.8055 0.5135
vn -0.5288 -0.6134 0.5865
vn -0.7207 -0.3513 0.5977
vn 0.0261 -0.4953 0.8683
vn 0.0167 -0.3014 0.9534
vn -0.3322 -0.3960 0.8560
vn -0.3246 -0.5211 0.7894
vn -0.2957 0.8056 0.5135
vn -0.3322 0.3960 0.8560
vn 0.0167 0.3014 0.9533
vn 0.0261 0.4953 0.8684
vn -0.7207 0.3513 0.5977
vn -0.5288 0.6134 0.5865
vn -0.3246 0.5211 0.7894
vn 0.3106 0.7695 0.5580
vn 0.5593 0.5754 0.5968
vn 0.7545 0.3213 0.5723
vn 0.1826 0.4183 0.8897
vn 0.1222 0.1663 0.9785
vn 0.3877 0.2532 0.8863
vn 0.4005 0.4352 0.8063
vn -0.4155 -0.0000 -0.9096
vn -0.8372 -0.0000 -0.5469
vn -0.9812 -0.0000 -0.1931
vn -0.0000 -0.9495 -0.3139
vn 0.0001 -0.6726 -0.7400
vn 0.0001 -0.2640 -0.9645
vn 0.2879 -0.0000 -0.9577
vn 0.7071 -0.0000 -0.7071
vn 0.9577 -0.0000 -0.2879
vn -0.0000 0.9495 -0.3139
vn 0.0001 0.6726 -0.7400
vn 0.0001 0.2640 -0.9645
vn -0.0000 -0.9495 0.3139
vn 0.0001 -0.6726 0.7400
vn 0.0001 -0.2640 0.9645
vn -0.0000 0.9495 0.3139
vn 0.0001 0.6726 0.7400
vn 0.0001 0.2640 0.9645
vn 0.2879 -0.0000 0.9577
vn 0.7071 -0.0000 0.7071
vn 0.9577 -0.0000 0.2879
vn -0.9812 -0.0000 0.1931
vn -0.8372 -0.0000 0.5469
vn -0.4155 -0.0000 0.9096
vn -0.2894 0.9572 -0.0000
vn -0.7071 0.7071 -0.0000
vn -0.9572 0.2894 -0.0000
vn 0.9572 0.2894 -0.0000
vn 0.2894 0.9572 -0.0000
vn 0.2894 -0.9572 -0.0000
vn 0.9572 -0.2894 -0.0000
vn -0.9572 -0.2894 -0.0000
vn -0.7071 -0.7071 -0.0000
vn -0.2894 -0.9572 -0.0000
vn -0.0000 -0.0000 -1.0000
vn -0.0000 -0.0000 1.0000
vt 0.154118 0.529118
vt 0.139578 0.529118
vt 0.140193 0.500000
vt 0.154118 0.500000
vt 0.125000 0.529118
vt 0.132669 0.515193
vt 0.404118 0.220882
vt 0.404118 0.235422
vt 0.390193 0.242427
vt 0.375000 0.220882
vt 0.404118 0.264578
vt 0.390193 0.265193
vt 0.404118 0.279118
vt 0.389578 0.279118
vt 0.375000 0.279118
vt 0.375000 0.265193
vt 0.845882 0.529118
vt 0.845882 0.500000
vt 0.859807 0.500000
vt 0.875000 0.529118
vt 0.625000 0.279118
vt 0.610422 0.279118
vt 0.609807 0.265193
vt 0.625000 0.260129
vt 0.595882 0.279118
vt 0.595882 0.264578
vt 0.595882 0.235422
vt 0.609807 0.240522
vt 0.595882 0.220882
vt 0.610422 0.220882
vt 0.625000 0.220882
vt 0.345882 0.529118
vt 0.360441 0.485441
vt 0.367403 0.492403
vt 0.360422 0.529118
vt 0.389578 0.470882
vt 0.390193 0.484807
vt 0.404118 0.470882
vt 0.404118 0.485422
vt 0.404118 0.514578
vt 0.390193 0.509478
vt 0.404118 0.529118
vt 0.389578 0.529118
vt 0.654118 0.529118
vt 0.639578 0.529118
vt 0.632597 0.492403
vt 0.639559 0.485441
vt 0.610422 0.529118
vt 0.609807 0.509478
vt 0.595882 0.529118
vt 0.595882 0.514578
vt 0.595882 0.485422
vt 0.609807 0.484807
vt 0.595882 0.470882
vt 0.610422 0.470882
vt 0.154118 0.750000
vt 0.139559 0.750000
vt 0.125000 0.750000
vt 0.375000 0.000000
vt 0.404118 0.000000
vt 0.845882 0.750000
vt 0.875000 0.750000
vt 0.625000 0.000000
vt 0.610441 0.000000
vt 0.595882 0.000000
vt 0.355588 0.759706
vt 0.366594 0.754853
vt 0.389559 0.751300
vt 0.404118 0.750000
vt 0.644412 0.759706
vt 0.633406 0.754853
vt 0.610441 0.751300
vt 0.595882 0.750000
vt 0.621099 0.985441
vt 0.610441 0.996099
vt 0.595882 1.000000
vt 0.404118 1.000000
vt 0.389559 0.996099
vt 0.378901 0.985441
vt 0.375000 0.970882
vt 0.625000 0.970882
vt 0.514505 0.762092
vt 0.514505 0.756157
vt 0.522865 0.751081
vt 0.531984 0.752081
vt 0.514505 0.736862
vt 0.522763 0.743771
vt 0.514505 0.724198
vt 0.531984 0.736920
vt 0.164530 0.543937
vt 0.159812 0.536743
vt 0.162311 0.537443
vt 0.164322 0.540751
vt 0.155270 0.530088
vt 0.159516 0.533825
vt 0.165920 0.537858
vt 0.165238 0.538422
vt 0.514505 0.262092
vt 0.514505 0.256157
vt 0.531984 0.251802
vt 0.531984 0.254018
vt 0.514505 0.236862
vt 0.531984 0.245351
vt 0.514505 0.224198
vt 0.531984 0.239683
vt 0.340566 0.653520
vt 0.345673 0.662667
vt 0.342535 0.660424
vt 0.340676 0.656250
vt 0.350643 0.671170
vt 0.344674 0.664903
vt 0.337937 0.658410
vt 0.339498 0.658454
vt 0.514505 0.987908
vt 0.531984 0.997919
vt 0.531984 0.998919
vt 0.514505 0.993843
vt 0.334461 0.538076
vt 0.340689 0.533944
vt 0.338058 0.537664
vt 0.335147 0.538077
vt 0.344772 0.530113
vt 0.340529 0.536963
vt 0.336142 0.544377
vt 0.336008 0.541077
vt 0.514505 0.025802
vt 0.514505 0.000000
vt 0.531984 0.006229
vt 0.531984 0.013080
vt 0.514505 1.000000
vt 0.531984 1.000000
vt 0.514505 0.525802
vt 0.514505 0.513138
vt 0.531984 0.504649
vt 0.531984 0.510317
vt 0.514505 0.493843
vt 0.531984 0.498198
vt 0.514505 0.487908
vt 0.531984 0.495982
vt 0.167520 0.653663
vt 0.161051 0.659635
vt 0.163004 0.655418
vt 0.165959 0.653620
vt 0.155338 0.665275
vt 0.159957 0.657420
vt 0.164682 0.648809
vt 0.164686 0.651432
vt 0.411917 0.525802
vt 0.394438 0.510317
vt 0.394438 0.504649
vt 0.411917 0.513138
vt 0.835318 0.648809
vt 0.840043 0.657420
vt 0.836996 0.655418
vt 0.835314 0.651432
vt 0.844662 0.665275
vt 0.838949 0.659635
vt 0.832480 0.653663
vt 0.834041 0.653620
vt 0.411918 0.487908
vt 0.411918 0.493843
vt 0.394438 0.498198
vt 0.394438 0.495982
vt 0.411917 0.724198
vt 0.411918 0.736862
vt 0.394438 0.743771
vt 0.394438 0.736920
vt 0.411918 0.756157
vt 0.394438 0.751081
vt 0.411918 0.762092
vt 0.394438 0.752081
vt 0.834081 0.537857
vt 0.840484 0.533825
vt 0.837696 0.537437
vt 0.834766 0.537856
vt 0.844730 0.530088
vt 0.840197 0.536734
vt 0.835496 0.543911
vt 0.835501 0.540740
vt 0.411917 0.025802
vt 0.394438 0.013080
vt 0.403660 0.006229
vt 0.411918 0.000000
vt 0.663884 0.544351
vt 0.659480 0.536954
vt 0.661948 0.537658
vt 0.663815 0.541066
vt 0.655228 0.530113
vt 0.659311 0.533944
vt 0.665540 0.538075
vt 0.664833 0.538660
vt 0.411918 0.987908
vt 0.411918 0.993843
vt 0.403557 0.998919
vt 0.394438 0.997919
vt 0.411918 1.000000
vt 0.403660 1.000275
vt 0.411918 0.224198
vt 0.411917 0.236862
vt 0.394438 0.245351
vt 0.394438 0.239683
vt 0.411918 0.256157
vt 0.394438 0.251802
vt 0.411918 0.262092
vt 0.394438 0.254018
vt 0.662063 0.658411
vt 0.655326 0.664903
vt 0.657465 0.660424
vt 0.660502 0.658454
vt 0.649357 0.671170
vt 0.654327 0.662667
vt 0.659434 0.653520
vt 0.659324 0.656250
s 0
usemtl 
f 9/1/1 12/2/1 14/3/1 13/4/1
f 12/2/2 16/5/2 17/6/2 14/3/2
f 10/7/3 15/8/3 17/9/3 16/10/3
f 15/8/4 19/11/4 20/12/4 17/9/4
f 11/13/5 18/14/5 20/12/5 19/11/5
f 18/14/6 13/15/6 14/16/6 20/12/6
f 14/16/7 17/9/7 20/12/7
f 21/17/8 24/18/8 26/19/8 25/20/8
f 24/21/9 28/22/9 29/23/9 26/24/9
f 22/25/10 27/26/10 29/23/10 28/22/10
f 27/26/11 31/27/11 32/28/11 29/23/11
f 23/29/12 30/30/12 32/28/12 31/27/12
f 30/30/13 25/31/13 26/24/13 32/28/13
f 26/24/14 29/23/14 32/28/14
f 41/32/15 44/33/15 46/34/15 45/35/15
f 44/33/16 48/36/16 49/37/16 46/34/16
f 42/38/17 47/39/17 49/37/17 48/36/17
f 47/39/18 51/40/18 52/41/18 49/37/18
f 43/42/19 50/43/19 52/41/19 51/40/19
f 50/43/20 45/35/20 46/34/20 52/41/20
f 46/34/21 49/37/21 52/41/21
f 53/44/22 56/45/22 58/46/22 57/47/22
f 56/45/23 60/48/23 61/49/23 58/46/23
f 54/50/24 59/51/24 61/49/24 60/48/24
f 59/51/25 63/52/25 64/53/25 61/49/25
f 55/54/26 62/55/26 64/53/26 63/52/26
f 62/55/27 57/47/27 58/46/27 64/53/27
f 58/46/28 61/49/28 64/53/28
f 9/1/29 2/56/29 4/57/29 12/2/29
f 12/2/30 4/57/30 3/58/30 16/5/30
f 16/10/31 3/59/31 1/60/31 10/7/31
f 5/61/32 21/17/32 25/20/32 7/62/32
f 7/63/33 25/31/33 30/30/33 8/64/33
f 8/64/34 30/30/34 23/29/34 6/65/34
f 22/25/35 11/13/35 19/11/35 27/26/35
f 27/26/36 19/11/36 15/8/36 31/27/36
f 31/27/37 15/8/37 10/7/37 23/29/37
f 41/32/38 9/1/38 13/4/38 44/33/38
f 44/33/39 13/15/39 18/14/39 48/36/39
f 48/36/40 18/14/40 11/13/40 42/38/40
f 21/17/41 53/44/41 57/47/41 24/18/41
f 24/21/42 57/47/42 62/55/42 28/22/42
f 28/22/43 62/55/43 55/54/43 22/25/43
f 54/50/44 43/42/44 51/40/44 59/51/44
f 59/51/45 51/40/45 47/39/45 63/52/45
f 63/52/46 47/39/46 42/38/46 55/54/46
f 33/66/47 41/32/47 45/35/47 35/67/47
f 35/67/48 45/35/48 50/43/48 36/68/48
f 36/68/49 50/43/49 43/42/49 34/69/49
f 53/44/50 38/70/50 40/71/50 56/45/50
f 56/45/51 40/71/51 39/72/51 60/48/51
f 60/48/52 39/72/52 37/73/52 54/50/52
f 1/60/53 6/65/53 23/29/53 10/7/53
f 7/74/54 8/75/54 6/76/54 1/77/54 3/78/54 4/79/54 2/80/54 33/66/54 35/67/54 36/68/54 34/69/54 37/73/54 39/72/54 40/71/54 38/70/54 5/81/54
f 11/13/55 22/25/55 55/54/55 42/38/55
f 43/42/56 54/50/56 37/73/56 34/69/56
f 65/82/57 68/83/57 70/84/57 69/85/57
f 68/83/58 72/86/58 73/87/58 70/84/58
f 66/88/59 71/89/59 73/87/59 72/86/59
f 71/90/60 75/91/60 76/92/60 73/93/60
f 67/94/61 74/95/61 76/92/61 75/91/61
f 74/95/62 69/96/62 70/97/62 76/92/62
f 70/97/63 73/93/63 76/92/63
f 77/98/64 80/99/64 82/100/64 81/101/64
f 80/99/65 84/102/65 85/103/65 82/100/65
f 78/104/66 83/105/66 85/103/66 84/102/66
f 83/106/67 87/107/67 88/108/67 85/109/67
f 79/110/68 86/111/68 88/108/68 87/107/68
f 86/111/69 81/112/69 82/113/69 88/108/69
f 82/113/70 85/109/70 88/108/70
f 89/114/71 92/115/71 94/116/71 93/117/71
f 92/118/72 96/119/72 97/120/72 94/121/72
f 90/122/73 95/123/73 97/120/73 96/119/73
f 95/123/74 99/124/74 100/125/74 97/120/74
f 91/126/75 98/127/75 100/128/75 99/129/75
f 98/130/76 93/117/76 94/116/76 100/131/76
f 94/121/77 97/120/77 100/125/77
f 101/132/78 104/133/78 106/134/78 105/135/78
f 104/133/79 108/136/79 109/137/79 106/134/79
f 102/138/80 107/139/80 109/137/80 108/136/80
f 107/140/81 111/141/81 112/142/81 109/143/81
f 103/144/82 110/145/82 112/142/82 111/141/82
f 110/145/83 105/146/83 106/147/83 112/142/83
f 106/147/84 109/143/84 112/142/84
f 113/148/85 116/149/85 118/150/85 117/151/85
f 116/152/86 120/153/86 121/154/86 118/155/86
f 114/156/87 119/157/87 121/154/87 120/153/87
f 119/157/88 123/158/88 124/159/88 121/154/88
f 115/160/89 122/161/89 124/162/89 123/163/89
f 122/161/90 117/151/90 118/150/90 124/162/90
f 118/155/91 121/154/91 124/159/91
f 125/164/92 128/165/92 130/166/92 129/167/92
f 128/165/93 132/168/93 133/169/93 130/166/93
f 126/170/94 131/171/94 133/169/94 132/168/94
f 131/172/95 135/173/95 136/174/95 133/175/95
f 127/176/96 134/177/96 136/174/96 135/173/96
f 134/177/97 129/178/97 130/179/97 136/174/97
f 130/179/98 133/175/98 136/174/98
f 137/180/99 140/181/99 142/182/99 141/183/99
f 140/184/100 144/185/100 145/186/100 142/187/100
f 138/188/101 143/189/101 145/186/101 144/185/101
f 143/189/102 147/190/102 148/191/102 145/186/102
f 139/192/103 146/193/103 148/194/103 147/195/103
f 146/193/104 141/196/104 142/197/104 148/194/104
f 142/187/105 145/186/105 148/191/105
f 149/198/106 152/199/106 154/200/106 153/201/106
f 152/199/107 156/202/107 157/203/107 154/200/107
f 150/204/108 155/205/108 157/203/108 156/202/108
f 155/206/109 159/207/109 160/208/109 157/209/109
f 151/210/110 158/211/110 160/208/110 159/207/110
f 158/211/111 153/212/111 154/213/111 160/208/111
f 154/213/112 157/209/112 160/208/112
f 67/94/113 90/122/113 96/119/113 74/95/113
f 74/95/114 96/119/114 92/118/114 69/96/114
f 69/85/115 92/115/115 89/114/115 65/82/115
f 66/88/116 101/132/116 105/135/116 71/89/116
f 71/90/117 105/146/117 110/145/117 75/91/117
f 75/91/118 110/145/118 103/144/118 67/94/118
f 79/110/119 103/144/119 111/141/119 86/111/119
f 86/111/120 111/141/120 107/140/120 81/112/120
f 81/101/121 107/139/121 102/138/121 77/98/121
f 78/104/122 91/126/122 99/129/122 83/105/122
f 83/106/123 99/124/123 95/123/123 87/107/123
f 87/107/124 95/123/124 90/122/124 79/110/124
f 113/148/125 125/164/125 129/167/125 116/149/125
f 116/152/126 129/178/126 134/177/126 120/153/126
f 120/153/127 134/177/127 127/176/127 114/156/127
f 137/180/128 149/198/128 153/201/128 140/181/128
f 140/184/129 153/212/129 158/211/129 144/185/129
f 144/185/130 158/211/130 151/210/130 138/188/130
f 114/156/131 151/210/131 159/207/131 119/157/131
f 119/157/132 159/207/132 155/206/132 123/158/132
f 123/163/133 155/205/133 150/204/133 115/160/133
f 126/170/134 139/192/134 147/195/134 131/171/134
f 131/172/135 147/190/135 143/189/135 135/173/135
f 135/173/136 143/189/136 138/188/136 127/176/136
f 91/126/137 137/180/137 141/183/137 98/127/137
f 98/130/138 141/196/138 146/193/138 93/117/138
f 93/117/139 146/193/139 139/192/139 89/114/139
f 77/98/140 150/204/140 156/202/140 80/99/140
f 80/99/36 156/202/36 152/199/36 84/102/36
f 84/102/141 152/199/141 149/198/141 78/104/141
f 101/132/142 113/148/142 117/151/142 104/133/142
f 104/133/45 117/151/45 122/161/45 108/136/45
f 108/136/143 122/161/143 115/160/143 102/138/143
f 65/82/144 126/170/144 132/168/144 68/83/144
f 68/83/145 132/168/145 128/165/145 72/86/145
f 72/86/146 128/165/146 125/164/146 66/88/146
f 126/170/54 65/82/54 89/114/54 139/192/54
f 67/94/147 9/1/147 41/32/147 90/122/147
f 41/32/147 33/66/147 2/56/147 9/1/147 67/94/147 103/144/147 79/110/147 90/122/147
f 113/148/56 101/132/56 66/88/56 125/164/56
f 77/98/55 102/138/55 115/160/55 150/204/55
f 91/126/53 78/104/53 149/198/53 137/180/53
f 127/176/148 21/17/148 5/61/148 38/70/148 53/44/148 138/188/148 151/210/148 114/156/148
f 138/188/148 53/44/148 21/17/148 127/176/148
