# Blender 5.1.1
# www.blender.org
mtllib pot_visual.mtl
o Cylinder
v 0.146289 -0.000000 0.000177
v 0.145500 0.000000 0.006515
v 0.150000 0.000000 0.165177
v 0.144799 -0.014261 0.006515
v 0.145584 -0.014339 0.000177
v 0.149278 -0.014703 0.165177
v 0.143478 -0.028540 0.000177
v 0.142704 -0.028386 0.006515
v 0.147118 -0.029264 0.165177
v 0.139235 -0.042236 0.006515
v 0.139990 -0.042465 0.000177
v 0.143541 -0.043543 0.165177
v 0.134424 -0.055680 0.006515
v 0.135153 -0.055982 0.000177
v 0.138582 -0.057403 0.165177
v 0.128320 -0.068588 0.006515
v 0.129015 -0.068960 0.000177
v 0.132288 -0.070709 0.165177
v 0.121635 -0.081274 0.000177
v 0.120979 -0.080835 0.006515
v 0.124720 -0.083336 0.165177
v 0.113083 -0.092805 0.000177
v 0.112473 -0.092304 0.006515
v 0.115952 -0.095159 0.165177
v 0.103442 -0.103442 0.000177
v 0.102884 -0.102884 0.006515
v 0.106066 -0.106066 0.165177
v 0.092805 -0.113083 0.000177
v 0.092304 -0.112473 0.006515
v 0.095159 -0.115952 0.165177
v 0.081274 -0.121635 0.000177
v 0.080835 -0.120979 0.006515
v 0.083336 -0.124720 0.165177
v 0.068588 -0.128320 0.006515
v 0.068960 -0.129015 0.000177
v 0.070709 -0.132288 0.165177
v 0.055680 -0.134424 0.006515
v 0.055982 -0.135153 0.000177
v 0.057403 -0.138582 0.165177
v 0.042236 -0.139235 0.006515
v 0.042465 -0.139990 0.000177
v 0.043543 -0.143541 0.165177
v 0.028386 -0.142704 0.006515
v 0.028540 -0.143478 0.000177
v 0.029264 -0.147118 0.165177
v 0.014339 -0.145584 0.000177
v 0.014261 -0.144799 0.006515
v 0.014703 -0.149278 0.165177
v -0.000000 -0.146289 0.000177
v 0.000000 -0.145500 0.006515
v 0.000000 -0.150000 0.165177
v -0.014339 -0.145584 0.000177
v -0.014261 -0.144799 0.006515
v -0.014703 -0.149278 0.165177
v -0.028540 -0.143478 0.000177
v -0.028386 -0.142704 0.006515
v -0.029264 -0.147118 0.165177
v -0.042465 -0.139990 0.000177
v -0.042236 -0.139235 0.006515
v -0.043543 -0.143541 0.165177
v -0.055982 -0.135153 0.000177
v -0.055680 -0.134424 0.006515
v -0.057403 -0.138582 0.165177
v -0.068588 -0.128320 0.006515
v -0.068960 -0.129015 0.000177
v -0.070709 -0.132288 0.165177
v -0.080835 -0.120979 0.006515
v -0.081274 -0.121635 0.000177
v -0.083336 -0.124720 0.165177
v -0.092304 -0.112473 0.006515
v -0.092805 -0.113083 0.000177
v -0.095159 -0.115952 0.165177
v -0.102884 -0.102884 0.006515
v -0.103442 -0.103442 0.000177
v -0.106066 -0.106066 0.165177
v -0.113083 -0.092805 0.000177
v -0.112473 -0.092304 0.006515
v -0.115952 -0.095159 0.165177
v -0.121635 -0.081274 0.000177
v -0.120979 -0.080835 0.006515
v -0.124720 -0.083336 0.165177
v -0.128320 -0.068588 0.006515
v -0.129015 -0.068960 0.000177
v -0.132288 -0.070709 0.165177
v -0.134424 -0.055680 0.006515
v -0.135153 -0.055982 0.000177
v -0.138582 -0.057403 0.165177
v -0.139235 -0.042236 0.006515
v -0.139990 -0.042465 0.000177
v -0.143541 -0.043543 0.165177
v -0.142704 -0.028386 0.006515
v -0.143478 -0.028540 0.000177
v -0.147118 -0.029264 0.165177
v -0.144799 -0.014261 0.006515
v -0.145584 -0.014339 0.000177
v -0.149278 -0.014703 0.165177
v -0.146289 -0.000000 0.000177
v -0.145500 0.000000 0.006515
v -0.150000 0.000000 0.165177
v -0.144799 0.014261 0.006515
v -0.145584 0.014339 0.000177
v -0.149278 0.014703 0.165177
v -0.142704 0.028386 0.006515
v -0.143478 0.028540 0.000177
v -0.147118 0.029264 0.165177
v -0.139235 0.042236 0.006515
v -0.139990 0.042465 0.000177
v -0.143541 0.043543 0.165177
v -0.134424 0.055680 0.006515
v -0.135153 0.055982 0.000177
v -0.138582 0.057403 0.165177
v -0.128320 0.068588 0.006515
v -0.129015 0.068960 0.000177
v -0.132288 0.070709 0.165177
v -0.120979 0.080835 0.006515
v -0.121635 0.081274 0.000177
v -0.124720 0.083336 0.165177
v -0.112473 0.092304 0.006515
v -0.113083 0.092805 0.000177
v -0.115952 0.095159 0.165177
v -0.102884 0.102884 0.006515
v -0.103442 0.103442 0.000177
v -0.106066 0.106066 0.165177
v -0.092805 0.113083 0.000177
v -0.092304 0.112473 0.006515
v -0.095159 0.115952 0.165177
v -0.081274 0.121635 0.000177
v -0.080835 0.120979 0.006515
v -0.083336 0.124720 0.165177
v -0.068960 0.129015 0.000177
v -0.068588 0.128320 0.006515
v -0.070709 0.132288 0.165177
v -0.055680 0.134424 0.006515
v -0.055982 0.135153 0.000177
v -0.057403 0.138582 0.165177
v -0.042236 0.139235 0.006515
v -0.042465 0.139990 0.000177
v -0.043543 0.143541 0.165177
v -0.028540 0.143478 0.000177
v -0.028386 0.142704 0.006515
v -0.029264 0.147118 0.165177
v -0.014339 0.145584 0.000177
v -0.014261 0.144799 0.006515
v -0.014703 0.149278 0.165177
v 0.000000 0.145500 0.006515
v -0.000000 0.146289 0.000177
v 0.000000 0.150000 0.165177
v 0.014261 0.144799 0.006515
v 0.014339 0.145584 0.000177
v 0.014703 0.149278 0.165177
v 0.028386 0.142704 0.006515
v 0.028540 0.143478 0.000177
v 0.029264 0.147118 0.165177
v 0.042236 0.139235 0.006515
v 0.042465 0.139990 0.000177
v 0.043543 0.143541 0.165177
v 0.055982 0.135153 0.000177
v 0.055680 0.134424 0.006515
v 0.057403 0.138582 0.165177
v 0.068960 0.129015 0.000177
v 0.068588 0.128320 0.006515
v 0.070709 0.132288 0.165177
v 0.081274 0.121635 0.000177
v 0.080835 0.120979 0.006515
v 0.083336 0.124720 0.165177
v 0.092304 0.112473 0.006515
v 0.092805 0.113083 0.000177
v 0.095159 0.115952 0.165177
v 0.102884 0.102884 0.006515
v 0.103442 0.103442 0.000177
v 0.106066 0.106066 0.165177
v 0.113083 0.092805 0.000177
v 0.112473 0.092304 0.006515
v 0.115952 0.095159 0.165177
v 0.121635 0.081274 0.000177
v 0.120979 0.080835 0.006515
v 0.124720 0.083336 0.165177
v 0.129015 0.068960 0.000177
v 0.128320 0.068588 0.006515
v 0.132288 0.070709 0.165177
v 0.135153 0.055982 0.000177
v 0.134424 0.055680 0.006515
v 0.138582 0.057403 0.165177
v 0.139990 0.042465 0.000177
v 0.139235 0.042236 0.006515
v 0.143541 0.043543 0.165177
v 0.143478 0.028540 0.000177
v 0.142704 0.028386 0.006515
v 0.147118 0.029264 0.165177
v 0.144799 0.014261 0.006515
v 0.145584 0.014339 0.000177
v 0.149278 0.014703 0.165177
v 0.128320 0.068588 0.165177
v 0.139235 0.042236 0.165177
v 0.134424 0.055680 0.165177
v 0.144799 0.014261 0.165177
v 0.142704 0.028386 0.165177
v 0.144799 -0.014261 0.165177
v 0.145500 0.000000 0.165177
v 0.042236 0.139235 0.165177
v 0.068588 0.128320 0.165177
v 0.055680 0.134424 0.165177
v 0.092304 0.112473 0.165177
v 0.080835 0.120979 0.165177
v 0.112473 0.092304 0.165177
v 0.102884 0.102884 0.165177
v 0.000000 0.145500 0.165177
v 0.014261 0.144799 0.165177
v -0.014261 0.144799 0.165177
v -0.042236 0.139235 0.165177
v -0.068588 0.128320 0.165177
v -0.055680 0.134424 0.165177
v -0.028386 0.142704 0.165177
v -0.092304 0.112473 0.165177
v -0.112473 0.092304 0.165177
v -0.102884 0.102884 0.165177
v -0.128320 0.068588 0.165177
v -0.139235 0.042236 0.165177
v -0.134424 0.055680 0.165177
v -0.120979 0.080835 0.165177
v -0.144799 0.014261 0.165177
v -0.144799 -0.014261 0.165177
v -0.145500 0.000000 0.165177
v -0.134424 -0.055680 0.165177
v -0.139235 -0.042236 0.165177
v -0.128320 -0.068588 0.165177
v -0.142704 -0.028386 0.165177
v -0.112473 -0.092304 0.165177
v -0.092304 -0.112473 0.165177
v -0.102884 -0.102884 0.165177
v -0.055680 -0.134424 0.165177
v -0.068588 -0.128320 0.165177
v -0.042236 -0.139235 0.165177
v -0.080835 -0.120979 0.165177
v 0.068588 -0.128320 0.165177
v 0.042236 -0.139235 0.165177
v 0.055680 -0.134424 0.165177
v 0.000000 -0.145500 0.165177
v -0.014261 -0.144799 0.165177
v 0.014261 -0.144799 0.165177
v 0.028386 -0.142704 0.165177
v 0.139235 -0.042236 0.165177
v 0.128320 -0.068588 0.165177
v 0.134424 -0.055680 0.165177
v 0.112473 -0.092304 0.165177
v 0.120979 -0.080835 0.165177
v 0.092304 -0.112473 0.165177
v 0.102884 -0.102884 0.165177
v 0.120979 0.080835 0.165177
v -0.080835 0.120979 0.165177
v -0.120979 -0.080835 0.165177
v 0.080835 -0.120979 0.165177
v 0.028386 0.142704 0.165177
v -0.142704 0.028386 0.165177
v -0.028386 -0.142704 0.165177
v 0.142704 -0.028386 0.165177
v 0.150000 0.000000 0.007395
v 0.149278 -0.014703 0.007395
v 0.147118 -0.029264 0.007395
v 0.143541 -0.043543 0.007395
v 0.138582 -0.057403 0.007395
v 0.132288 -0.070709 0.007395
v 0.124720 -0.083336 0.007395
v 0.115952 -0.095159 0.007395
v 0.106066 -0.106066 0.007395
v 0.095159 -0.115952 0.007395
v 0.083336 -0.124720 0.007395
v 0.070709 -0.132288 0.007395
v 0.057403 -0.138582 0.007395
v 0.043543 -0.143541 0.007395
v 0.029264 -0.147118 0.007395
v 0.014703 -0.149278 0.007395
v 0.000000 -0.150000 0.007395
v -0.014703 -0.149278 0.007395
v -0.029264 -0.147118 0.007395
v -0.043543 -0.143541 0.007395
v -0.057403 -0.138582 0.007395
v -0.070709 -0.132288 0.007395
v -0.083336 -0.124720 0.007395
v -0.095159 -0.115952 0.007395
v -0.106066 -0.106066 0.007395
v -0.115952 -0.095159 0.007395
v -0.124720 -0.083336 0.007395
v -0.132288 -0.070709 0.007395
v -0.138582 -0.057403 0.007395
v -0.143541 -0.043543 0.007395
v -0.147118 -0.029264 0.007395
v -0.149278 -0.014703 0.007395
v -0.150000 0.000000 0.007395
v -0.149278 0.014703 0.007395
v -0.147118 0.029264 0.007395
v -0.143541 0.043543 0.007395
v -0.138582 0.057403 0.007395
v -0.132288 0.070709 0.007395
v -0.124720 0.083336 0.007395
v -0.115952 0.095159 0.007395
v -0.106066 0.106066 0.007395
v -0.095159 0.115952 0.007395
v -0.083336 0.124720 0.007395
v -0.070709 0.132288 0.007395
v -0.057403 0.138582 0.007395
v -0.043543 0.143541 0.007395
v -0.029264 0.147118 0.007395
v -0.014703 0.149278 0.007395
v 0.000000 0.150000 0.007395
v 0.014703 0.149278 0.007395
v 0.029264 0.147118 0.007395
v 0.043543 0.143541 0.007395
v 0.057403 0.138582 0.007395
v 0.070709 0.132288 0.007395
v 0.083336 0.124720 0.007395
v 0.095159 0.115952 0.007395
v 0.106066 0.106066 0.007395
v 0.115952 0.095159 0.007395
v 0.124720 0.083336 0.007395
v 0.132288 0.070709 0.007395
v 0.138582 0.057403 0.007395
v 0.143541 0.043543 0.007395
v 0.147118 0.029264 0.007395
v 0.149278 0.014703 0.007395
v 0.145500 0.000000 0.010564
v 0.144799 -0.014261 0.010564
v 0.142704 -0.028386 0.010564
v 0.139235 -0.042236 0.010564
v 0.134424 -0.055680 0.010564
v 0.128320 -0.068588 0.010564
v 0.120979 -0.080835 0.010564
v 0.112473 -0.092304 0.010564
v 0.102884 -0.102884 0.010564
v 0.092304 -0.112473 0.010564
v 0.080835 -0.120979 0.010564
v 0.068588 -0.128320 0.010564
v 0.055680 -0.134424 0.010564
v 0.042236 -0.139235 0.010564
v 0.028386 -0.142704 0.010564
v 0.014261 -0.144799 0.010564
v 0.000000 -0.145500 0.010564
v -0.014261 -0.144799 0.010564
v -0.028386 -0.142704 0.010564
v -0.042236 -0.139235 0.010564
v -0.055680 -0.134424 0.010564
v -0.068588 -0.128320 0.010564
v -0.080835 -0.120979 0.010564
v -0.092304 -0.112473 0.010564
v -0.102884 -0.102884 0.010564
v -0.112473 -0.092304 0.010564
v -0.120979 -0.080835 0.010564
v -0.128320 -0.068588 0.010564
v -0.134424 -0.055680 0.010564
v -0.139235 -0.042236 0.010564
v -0.142704 -0.028386 0.010564
v -0.144799 -0.014261 0.010564
v -0.145500 0.000000 0.010564
v -0.144799 0.014261 0.010564
v -0.142704 0.028386 0.010564
v -0.139235 0.042236 0.010564
v -0.134424 0.055680 0.010564
v -0.128320 0.068588 0.010564
v -0.120979 0.080835 0.010564
v -0.112473 0.092304 0.010564
v -0.102884 0.102884 0.010564
v -0.092304 0.112473 0.010564
v -0.080835 0.120979 0.010564
v -0.068588 0.128320 0.010564
v -0.055680 0.134424 0.010564
v -0.042236 0.139235 0.010564
v -0.028386 0.142704 0.010564
v -0.014261 0.144799 0.010564
v 0.000000 0.145500 0.010564
v 0.014261 0.144799 0.010564
v 0.028386 0.142704 0.010564
v 0.042236 0.139235 0.010564
v 0.055680 0.134424 0.010564
v 0.068588 0.128320 0.010564
v 0.080835 0.120979 0.010564
v 0.092304 0.112473 0.010564
v 0.102884 0.102884 0.010564
v 0.112473 0.092304 0.010564
v 0.120979 0.080835 0.010564
v 0.128320 0.068588 0.010564
v 0.134424 0.055680 0.010564
v 0.139235 0.042236 0.010564
v 0.142704 0.028386 0.010564
v 0.144799 0.014261 0.010564
v 0.150000 0.000000 0.136552
v 0.150000 0.000000 0.154814
v 0.149278 -0.014703 0.136552
v 0.149278 -0.014703 0.154814
v 0.147472 -0.026876 0.154814
v 0.147118 -0.029264 0.136808
v 0.147118 -0.029264 0.154558
v 0.147472 -0.026876 0.136552
v 0.146694 -0.030956 0.136989
v 0.146694 -0.030956 0.154376
v 0.145671 -0.035038 0.151549
v 0.145671 -0.035038 0.139817
v 0.145945 -0.033945 0.153181
v 0.145945 -0.033945 0.138185
v 0.145671 0.035038 0.139817
v 0.145671 0.035038 0.151549
v 0.146694 0.030956 0.154376
v 0.145945 0.033945 0.153181
v 0.145945 0.033945 0.138185
v 0.146694 0.030956 0.136989
v 0.147118 0.029264 0.154558
v 0.147118 0.029264 0.136808
v 0.147472 0.026876 0.136552
v 0.147472 0.026876 0.154814
v 0.149278 0.014703 0.136552
v 0.149278 0.014703 0.154814
v 0.144799 0.014261 0.136552
v 0.144799 0.014261 0.154814
v 0.145500 0.000000 0.136552
v 0.145500 0.000000 0.154814
v 0.142704 0.028386 0.154652
v 0.142704 0.028386 0.136714
v 0.142704 -0.028386 0.136714
v 0.142704 -0.028386 0.154652
v 0.144799 -0.014261 0.136552
v 0.144799 -0.014261 0.154814
v -0.146694 -0.030956 0.154376
v -0.145671 -0.035038 0.151549
v -0.145671 -0.035038 0.139817
v -0.145945 -0.033945 0.153181
v -0.145945 -0.033945 0.138185
v -0.146694 -0.030956 0.136989
v -0.147118 -0.029264 0.136808
v -0.147118 -0.029264 0.154558
v -0.147472 -0.026876 0.136552
v -0.147472 -0.026876 0.154814
v -0.149278 -0.014703 0.136552
v -0.149278 -0.014703 0.154814
v -0.150000 0.000000 0.136552
v -0.150000 0.000000 0.154814
v -0.149278 0.014703 0.136552
v -0.149278 0.014703 0.154814
v -0.147472 0.026876 0.154814
v -0.147118 0.029264 0.154558
v -0.147118 0.029264 0.136808
v -0.147472 0.026876 0.136552
v -0.145671 0.035038 0.139817
v -0.145671 0.035038 0.151549
v -0.145945 0.033945 0.153181
v -0.146694 0.030956 0.136989
v -0.146694 0.030956 0.154376
v -0.145945 0.033945 0.138185
v -0.142704 -0.028386 0.136714
v -0.142704 -0.028386 0.154652
v -0.144799 -0.014261 0.136552
v -0.144799 -0.014261 0.154814
v -0.145500 0.000000 0.136552
v -0.145500 0.000000 0.154814
v -0.144799 0.014261 0.136552
v -0.144799 0.014261 0.154814
v -0.142704 0.028386 0.136714
v -0.142704 0.028386 0.154652
vn 0.9988 -0.0491 -0.0000
vn 0.9892 -0.1467 -0.0000
vn 0.9700 -0.2430 -0.0000
vn 0.9415 -0.3369 -0.0000
vn 0.9040 -0.4276 -0.0000
vn 0.8577 -0.5141 -0.0000
vn 0.8032 -0.5957 -0.0000
vn 0.7410 -0.6716 -0.0000
vn 0.6716 -0.7410 -0.0000
vn 0.5957 -0.8032 -0.0000
vn 0.5141 -0.8577 -0.0000
vn 0.4276 -0.9040 -0.0000
vn 0.3369 -0.9415 -0.0000
vn 0.2430 -0.9700 -0.0000
vn 0.1467 -0.9892 -0.0000
vn 0.0491 -0.9988 -0.0000
vn -0.0491 -0.9988 -0.0000
vn -0.1467 -0.9892 -0.0000
vn -0.2430 -0.9700 -0.0000
vn -0.3369 -0.9415 -0.0000
vn -0.4276 -0.9040 -0.0000
vn -0.5141 -0.8577 -0.0000
vn -0.5957 -0.8032 -0.0000
vn -0.6716 -0.7410 -0.0000
vn -0.7410 -0.6716 -0.0000
vn -0.8032 -0.5957 -0.0000
vn -0.8577 -0.5141 -0.0000
vn -0.9040 -0.4276 -0.0000
vn -0.9415 -0.3369 -0.0000
vn -0.9700 -0.2430 -0.0000
vn -0.9892 -0.1467 -0.0000
vn -0.9988 -0.0491 -0.0000
vn -0.9988 0.0491 -0.0000
vn -0.9892 0.1467 -0.0000
vn -0.9700 0.2430 -0.0000
vn -0.9415 0.3369 -0.0000
vn -0.9040 0.4276 -0.0000
vn -0.8577 0.5141 -0.0000
vn -0.8032 0.5957 -0.0000
vn -0.7410 0.6716 -0.0000
vn -0.6716 0.7410 -0.0000
vn -0.5957 0.8032 -0.0000
vn -0.5141 0.8577 -0.0000
vn -0.4276 0.9040 -0.0000
vn -0.3369 0.9415 -0.0000
vn -0.2430 0.9700 -0.0000
vn -0.1467 0.9892 -0.0000
vn -0.0491 0.9988 -0.0000
vn 0.0491 0.9988 -0.0000
vn 0.1467 0.9892 -0.0000
vn 0.2430 0.9700 -0.0000
vn 0.3369 0.9415 -0.0000
vn 0.4276 0.9040 -0.0000
vn 0.5141 0.8577 -0.0000
vn 0.5957 0.8032 -0.0000
vn 0.6716 0.7410 -0.0000
vn 0.7410 0.6716 -0.0000
vn 0.8032 0.5957 -0.0000
vn 0.8577 0.5141 -0.0000
vn 0.9040 0.4276 -0.0000
vn 0.9415 0.3369 -0.0000
vn 0.9700 0.2430 -0.0000
vn -0.0000 -0.0000 1.0000
vn 0.9892 0.1467 -0.0000
vn 0.9988 0.0491 -0.0000
vn -0.0000 -0.0000 -1.0000
vn 0.8885 0.0436 -0.4568
vn 0.8799 0.1305 -0.4568
vn 0.8629 0.2161 -0.4568
vn 0.8376 0.2997 -0.4568
vn 0.8042 0.3803 -0.4568
vn 0.7630 0.4573 -0.4568
vn 0.7145 0.5299 -0.4568
vn 0.6591 0.5974 -0.4568
vn 0.5974 0.6591 -0.4568
vn 0.5299 0.7145 -0.4568
vn 0.4573 0.7630 -0.4568
vn 0.3803 0.8042 -0.4568
vn 0.2997 0.8376 -0.4568
vn 0.2161 0.8629 -0.4568
vn 0.1305 0.8799 -0.4568
vn 0.0436 0.8885 -0.4568
vn -0.0436 0.8885 -0.4568
vn -0.1305 0.8799 -0.4568
vn -0.2161 0.8629 -0.4568
vn -0.2997 0.8376 -0.4568
vn -0.3803 0.8042 -0.4568
vn -0.4573 0.7630 -0.4568
vn -0.5299 0.7145 -0.4568
vn -0.5974 0.6591 -0.4568
vn -0.6591 0.5974 -0.4568
vn -0.7145 0.5299 -0.4568
vn -0.7630 0.4573 -0.4568
vn -0.8042 0.3803 -0.4568
vn -0.8376 0.2997 -0.4568
vn -0.8629 0.2161 -0.4568
vn -0.8799 0.1305 -0.4568
vn -0.8885 0.0436 -0.4568
vn -0.8885 -0.0436 -0.4568
vn -0.8799 -0.1305 -0.4568
vn -0.8629 -0.2161 -0.4568
vn -0.8376 -0.2997 -0.4568
vn -0.8042 -0.3803 -0.4568
vn -0.7630 -0.4573 -0.4568
vn -0.7145 -0.5299 -0.4568
vn -0.6591 -0.5974 -0.4568
vn -0.5974 -0.6591 -0.4568
vn -0.5299 -0.7145 -0.4568
vn -0.4573 -0.7630 -0.4568
vn -0.3803 -0.8042 -0.4568
vn -0.2997 -0.8376 -0.4568
vn -0.2161 -0.8629 -0.4568
vn -0.1305 -0.8799 -0.4568
vn -0.0436 -0.8885 -0.4568
vn 0.0436 -0.8885 -0.4568
vn 0.1305 -0.8799 -0.4568
vn 0.2161 -0.8629 -0.4568
vn 0.2997 -0.8376 -0.4568
vn 0.3803 -0.8042 -0.4568
vn 0.4573 -0.7630 -0.4568
vn 0.5299 -0.7145 -0.4568
vn 0.5974 -0.6591 -0.4568
vn 0.6591 -0.5974 -0.4568
vn 0.7145 -0.5299 -0.4568
vn 0.7630 -0.4573 -0.4568
vn 0.8042 -0.3803 -0.4568
vn 0.8376 -0.2997 -0.4568
vn 0.8629 -0.2161 -0.4568
vn 0.8799 -0.1305 -0.4568
vn 0.8885 -0.0436 -0.4568
vn -0.9700 0.2430 0.0001
vn -0.9700 -0.2430 -0.0001
vn 0.9700 -0.2430 0.0001
vn 0.9700 0.2430 -0.0001
vt 0.209578 0.879282
vt 0.196529 0.860768
vt 0.209555 0.860768
vt 0.011231 0.860768
vt 0.173598 0.879282
vt 0.011254 0.879282
vt 0.209520 0.897757
vt 0.196172 0.897757
vt 0.196504 0.894728
vt 0.173549 0.894728
vt 0.209382 0.916016
vt 0.177588 0.905141
vt 0.192334 0.905141
vt 0.010840 0.933883
vt 0.011058 0.916016
vt 0.209164 0.933883
vt 0.010545 0.951185
vt 0.208870 0.951185
vt 0.010176 0.967756
vt 0.208501 0.967756
vt 0.009737 0.983437
vt 0.208061 0.983437
vt 0.009231 0.998075
vt 0.585197 0.365697
vt 0.387587 0.379420
vt 0.386942 0.365697
vt 0.585842 0.379420
vt 0.388159 0.394296
vt 0.586414 0.394296
vt 0.388653 0.410183
vt 0.586908 0.410183
vt 0.389063 0.426926
vt 0.587318 0.426926
vt 0.389387 0.444364
vt 0.587642 0.444364
vt 0.389620 0.462330
vt 0.587875 0.462330
vt 0.389761 0.480651
vt 0.588016 0.480651
vt 0.389808 0.499150
vt 0.588063 0.499150
vt 0.389761 0.517649
vt 0.588016 0.517649
vt 0.389620 0.535969
vt 0.587875 0.535969
vt 0.389387 0.553935
vt 0.587642 0.553935
vt 0.389063 0.571374
vt 0.587318 0.571374
vt 0.388653 0.588117
vt 0.586908 0.588117
vt 0.388159 0.604003
vt 0.586414 0.604003
vt 0.387587 0.618879
vt 0.585842 0.618879
vt 0.386942 0.632603
vt 0.585197 0.632603
vt 0.386230 0.645041
vt 0.795610 0.365697
vt 0.597835 0.378700
vt 0.597270 0.365697
vt 0.796175 0.378700
vt 0.598343 0.392933
vt 0.796683 0.392933
vt 0.598789 0.408260
vt 0.797128 0.408260
vt 0.599168 0.424532
vt 0.797508 0.424532
vt 0.780560 0.434693
vt 0.765812 0.434693
vt 0.798052 0.459277
vt 0.785025 0.459277
vt 0.784828 0.444492
vt 0.599477 0.441592
vt 0.762155 0.441592
vt 0.761872 0.444492
vt 0.785185 0.477417
vt 0.599873 0.477417
vt 0.762069 0.459277
vt 0.762230 0.477417
vt 0.798213 0.477417
vt 0.785269 0.495835
vt 0.599957 0.495835
vt 0.762313 0.495835
vt 0.798302 0.514356
vt 0.784953 0.514356
vt 0.785274 0.511319
vt 0.762318 0.511319
vt 0.798230 0.532800
vt 0.766393 0.521815
vt 0.781141 0.521815
vt 0.599741 0.550991
vt 0.599890 0.532800
vt 0.798080 0.550991
vt 0.599516 0.568752
vt 0.797855 0.568752
vt 0.599217 0.585913
vt 0.797557 0.585913
vt 0.598848 0.602309
vt 0.797188 0.602309
vt 0.598412 0.617781
vt 0.796751 0.617781
vt 0.597912 0.632181
vt 0.796252 0.632181
vt 0.597355 0.645370
vt 0.380169 0.911635
vt 0.577654 0.898434
vt 0.578366 0.911883
vt 0.379457 0.898186
vt 0.577023 0.883802
vt 0.378826 0.883554
vt 0.576479 0.868127
vt 0.378282 0.867879
vt 0.576026 0.851560
vt 0.377829 0.851313
vt 0.575669 0.834262
vt 0.377472 0.834014
vt 0.575411 0.816398
vt 0.377214 0.816150
vt 0.575256 0.798141
vt 0.377059 0.797893
vt 0.575204 0.779667
vt 0.377007 0.779419
vt 0.575256 0.761152
vt 0.377059 0.760904
vt 0.575411 0.742777
vt 0.377214 0.742529
vt 0.575669 0.724717
vt 0.377472 0.724469
vt 0.576026 0.707147
vt 0.377829 0.706899
vt 0.576479 0.690235
vt 0.378282 0.689987
vt 0.577023 0.674145
vt 0.378826 0.673897
vt 0.577654 0.659032
vt 0.207241 0.744686
vt 0.009458 0.758670
vt 0.008916 0.744686
vt 0.207782 0.758670
vt 0.009935 0.773777
vt 0.208260 0.773777
vt 0.010345 0.789862
vt 0.208669 0.789862
vt 0.010682 0.806769
vt 0.209006 0.806769
vt 0.192032 0.817232
vt 0.177285 0.817232
vt 0.377007 0.179243
vt 0.371352 0.197486
vt 0.371352 0.179521
vt -0.000000 0.197764
vt 0.005655 0.179521
vt 0.005655 0.197486
vt 0.209452 0.842394
vt 0.196425 0.842394
vt 0.196272 0.827297
vt 0.010944 0.824336
vt 0.173609 0.824336
vt 0.173318 0.827297
vt 0.011127 0.842394
vt 0.173575 0.860768
vt 0.362385 0.516123
vt 0.228563 0.739392
vt 0.005294 0.605570
vt 0.742790 0.162915
vt 0.747799 0.145049
vt 0.747880 0.162915
vt 0.742709 0.145049
vt 0.747794 0.127084
vt 0.742704 0.127084
vt 0.747864 0.109193
vt 0.742774 0.109193
vt 0.748009 0.091548
vt 0.742919 0.091548
vt 0.748227 0.074320
vt 0.743137 0.074320
vt 0.748516 0.057673
vt 0.743427 0.057673
vt 0.748875 0.041770
vt 0.743785 0.041770
vt 0.749298 0.026761
vt 0.749782 0.012793
vt 0.943654 0.026761
vt 0.750323 0.000000
vt 0.944138 0.012793
vt 0.798501 0.877590
vt 0.993424 0.890635
vt 0.799208 0.890635
vt 0.797871 0.863398
vt 0.992717 0.877590
vt 0.797324 0.848194
vt 0.992087 0.863398
vt 0.796865 0.832125
vt 0.991540 0.848194
vt 0.796497 0.815346
vt 0.991081 0.832125
vt 0.796226 0.798019
vt 0.990713 0.815346
vt 0.796053 0.780310
vt 0.990442 0.798019
vt 0.790967 0.780310
vt 0.795980 0.762389
vt 0.790894 0.762389
vt 0.796008 0.744430
vt 0.796137 0.726606
vt 0.990224 0.744430
vt 0.796364 0.709087
vt 0.990353 0.726606
vt 0.796689 0.692044
vt 0.990580 0.709087
vt 0.797108 0.675639
vt 0.990905 0.692044
vt 0.797617 0.660031
vt 0.991324 0.675639
vt 0.798211 0.645370
vt 0.991833 0.660031
vt 0.805134 0.597920
vt 1.000000 0.611485
vt 0.805659 0.611485
vt 0.804671 0.583266
vt 0.999475 0.597920
vt 0.804273 0.567664
vt 0.999011 0.583266
vt 0.803946 0.551264
vt 0.998614 0.567664
vt 0.984829 0.516708
vt 0.998033 0.534224
vt 0.984804 0.534224
vt 0.962256 0.534224
vt 0.961875 0.516708
vt 0.997755 0.498885
vt 0.984728 0.498885
vt 0.803414 0.498885
vt 0.803514 0.516708
vt 0.997732 0.480927
vt 0.984706 0.480927
vt 0.803391 0.480927
vt 0.961774 0.498885
vt 0.798302 0.480927
vt 0.803448 0.463005
vt 0.798358 0.463005
vt 0.803582 0.445294
vt 0.803793 0.427964
vt 0.997923 0.445294
vt 0.804079 0.411181
vt 0.998134 0.427964
vt 0.804437 0.395107
vt 0.998420 0.411181
vt 0.804863 0.379897
vt 0.998778 0.395107
vt 0.805354 0.365697
vt 0.999204 0.379896
vt 0.590843 0.916334
vt 0.595305 0.903022
vt 0.595931 0.916334
vt 0.590218 0.903022
vt 0.594751 0.888592
vt 0.589663 0.888592
vt 0.594272 0.873183
vt 0.589184 0.873183
vt 0.593873 0.856942
vt 0.588786 0.856942
vt 0.593560 0.840027
vt 0.588472 0.840027
vt 0.593333 0.822600
vt 0.588245 0.822600
vt 0.593196 0.804829
vt 0.588109 0.804829
vt 0.593151 0.786885
vt 0.588063 0.786885
vt 0.593196 0.768941
vt 0.588109 0.768941
vt 0.593333 0.751170
vt 0.588245 0.751170
vt 0.593560 0.733743
vt 0.588472 0.733743
vt 0.593873 0.716827
vt 0.588786 0.716827
vt 0.594272 0.700587
vt 0.589184 0.700587
vt 0.594751 0.685177
vt 0.589663 0.685177
vt 0.595305 0.670747
vt 0.590218 0.670747
vt 0.595931 0.657435
vt 0.590843 0.657435
vt 0.596621 0.645371
vt 0.745315 0.271283
vt 0.749857 0.258670
vt 0.750405 0.271283
vt 0.744767 0.258670
vt 0.749364 0.244864
vt 0.744274 0.244864
vt 0.748932 0.229997
vt 0.743842 0.229997
vt 0.748564 0.214214
vt 0.743474 0.214214
vt 0.748264 0.197665
vt 0.743174 0.197665
vt 0.748036 0.180510
vt 0.742946 0.180510
vt 0.586717 0.001761
vt 0.740943 0.209710
vt 0.532993 0.363936
vt 0.906253 0.162915
vt 0.906408 0.180510
vt 0.942236 0.162915
vt 0.929364 0.180510
vt 0.929208 0.162915
vt 0.906840 0.197665
vt 0.906172 0.145049
vt 0.942920 0.214214
vt 0.943288 0.229997
vt 0.943720 0.244864
vt 0.944213 0.258670
vt 0.944761 0.271283
vt 0.790894 0.645371
vt 0.790204 0.657435
vt 0.789578 0.670747
vt 0.789023 0.685177
vt 0.788544 0.700587
vt 0.788146 0.716827
vt 0.787832 0.733743
vt 0.787606 0.751170
vt 0.787469 0.768941
vt 0.787423 0.786885
vt 0.787469 0.804829
vt 0.787606 0.822600
vt 0.787832 0.840027
vt 0.788146 0.856942
vt 0.788544 0.873183
vt 0.789023 0.888592
vt 0.789578 0.903022
vt 0.790204 0.916334
vt 0.800264 0.365697
vt 0.799773 0.379897
vt 0.799347 0.395107
vt 0.798989 0.411181
vt 0.798704 0.427964
vt 0.798493 0.445294
vt 0.961752 0.480927
vt 0.984559 0.463005
vt 0.997789 0.463005
vt 0.798324 0.498885
vt 0.798425 0.516708
vt 0.803693 0.534224
vt 0.798603 0.534224
vt 0.798857 0.551264
vt 0.799184 0.567664
vt 0.799581 0.583266
vt 0.800044 0.597920
vt 0.800570 0.611485
vt 0.793124 0.645370
vt 0.792531 0.660031
vt 0.792022 0.675639
vt 0.791603 0.692044
vt 0.791278 0.709087
vt 0.791050 0.726606
vt 0.790922 0.744430
vt 0.990196 0.762389
vt 0.990269 0.780310
vt 0.791140 0.798019
vt 0.791411 0.815346
vt 0.791778 0.832125
vt 0.792238 0.848194
vt 0.792785 0.863398
vt 0.793415 0.877590
vt 0.794121 0.890635
vt 0.745233 0.000000
vt 0.744692 0.012793
vt 0.744208 0.026761
vt 0.943230 0.041770
vt 0.942872 0.057673
vt 0.942583 0.074320
vt 0.942364 0.091548
vt 0.942219 0.109193
vt 0.929389 0.197665
vt 0.942620 0.197665
vt 0.942391 0.180510
vt 0.942149 0.127084
vt 0.929127 0.145049
vt 0.928919 0.127084
vt 0.942155 0.145049
vt 0.001950 0.861127
vt 0.001849 0.843207
vt 0.001670 0.825597
vt 0.001415 0.808464
vt 0.001086 0.791975
vt 0.000687 0.776289
vt 0.000221 0.761555
vt 0.587622 0.648281
vt 0.586928 0.661926
vt 0.586312 0.676665
vt 0.585781 0.692357
vt 0.585340 0.708850
vt 0.584991 0.725986
vt 0.584740 0.743599
vt 0.584589 0.761520
vt 0.584538 0.779576
vt 0.584589 0.797594
vt 0.584740 0.815399
vt 0.584991 0.832821
vt 0.585340 0.849691
vt 0.585781 0.865848
vt 0.586312 0.881135
vt 0.586928 0.895405
vt 0.587622 0.908521
vt 0.588146 0.641933
vt 0.588690 0.629070
vt 0.589176 0.615026
vt 0.589602 0.599937
vt 0.589962 0.583947
vt 0.590253 0.567210
vt 0.590473 0.549888
vt 0.590618 0.532148
vt 0.599962 0.514356
vt 0.590689 0.514160
vt 0.590683 0.496097
vt 0.590602 0.478134
vt 0.599713 0.459277
vt 0.590445 0.460444
vt 0.590216 0.443197
vt 0.589914 0.426558
vt 0.589544 0.410689
vt 0.589110 0.395742
vt 0.588614 0.381860
vt 0.588063 0.369179
vt 0.377007 0.641431
vt 0.377701 0.629301
vt 0.378330 0.615917
vt 0.378888 0.601409
vt 0.379369 0.585916
vt 0.379770 0.569587
vt 0.380085 0.552580
vt 0.380313 0.535058
vt 0.380450 0.517191
vt 0.380496 0.499150
vt 0.380450 0.481109
vt 0.380313 0.463241
vt 0.380085 0.445720
vt 0.379770 0.428712
vt 0.379369 0.412384
vt 0.378888 0.396891
vt 0.378330 0.382382
vt 0.377701 0.368999
vt 0.000493 0.980761
vt 0.000000 0.995037
vt 0.000922 0.965468
vt 0.001282 0.949307
vt 0.001569 0.932433
vt 0.001781 0.915008
vt 0.011196 0.897757
vt 0.001916 0.897201
vt 0.001973 0.879183
vt 0.998287 0.551264
vt 0.962011 0.463005
vt 0.196552 0.879282
vt 0.173861 0.897757
vt 0.195928 0.899922
vt 0.175547 0.903743
vt 0.174073 0.899922
vt 0.194397 0.903743
vt 0.207556 0.998075
vt 0.584485 0.645041
vt 0.762346 0.439570
vt 0.797817 0.441592
vt 0.782636 0.435999
vt 0.784468 0.441592
vt 0.784203 0.439570
vt 0.763784 0.435999
vt 0.798296 0.495835
vt 0.762640 0.514356
vt 0.784716 0.516543
vt 0.764347 0.520403
vt 0.762860 0.516543
vt 0.783199 0.520403
vt 0.795695 0.645370
vt 0.379457 0.658784
vt 0.173806 0.822254
vt 0.209268 0.824336
vt 0.194104 0.818577
vt 0.195920 0.824336
vt 0.195661 0.822254
vt 0.175254 0.818577
vt 0.324149 0.065562
vt 0.311445 0.052858
vt 0.315247 0.048663
vt 0.328344 0.061760
vt 0.340093 0.076077
vt 0.335546 0.079449
vt 0.350383 0.091476
vt 0.345527 0.094387
vt 0.359114 0.107811
vt 0.366202 0.124922
vt 0.360871 0.126829
vt 0.371578 0.142646
vt 0.366086 0.144021
vt 0.375192 0.160811
vt 0.369591 0.161642
vt 0.377007 0.197764
vt 0.375192 0.216196
vt 0.369591 0.215365
vt 0.371578 0.234361
vt 0.366086 0.232986
vt 0.366202 0.252085
vt 0.359114 0.269196
vt 0.353996 0.266776
vt 0.350383 0.285531
vt 0.345527 0.282620
vt 0.340094 0.300930
vt 0.328344 0.315247
vt 0.335546 0.297558
vt 0.324149 0.311445
vt 0.353996 0.110231
vt 0.360871 0.250178
vt 0.311445 0.324149
vt 0.315247 0.328344
vt 0.300930 0.340093
vt 0.297558 0.335546
vt 0.285531 0.350383
vt 0.282620 0.345527
vt 0.269196 0.359114
vt 0.252085 0.366202
vt 0.250178 0.360871
vt 0.234361 0.371578
vt 0.232986 0.366086
vt 0.216196 0.375192
vt 0.197764 0.377007
vt 0.215365 0.369591
vt 0.179243 0.377007
vt 0.179521 0.371352
vt 0.160811 0.375192
vt 0.142646 0.371578
vt 0.161642 0.369591
vt 0.124922 0.366202
vt 0.144021 0.366086
vt 0.107811 0.359114
vt 0.110231 0.353996
vt 0.091476 0.350383
vt 0.094387 0.345527
vt 0.076077 0.340093
vt 0.061760 0.328344
vt 0.079449 0.335546
vt 0.048663 0.315247
vt 0.052858 0.311445
vt 0.036913 0.300930
vt 0.026624 0.285531
vt 0.041461 0.297558
vt 0.017893 0.269196
vt 0.031480 0.282620
vt 0.010805 0.252085
vt 0.016136 0.250178
vt 0.005429 0.234361
vt 0.010921 0.232986
vt 0.001815 0.216196
vt 0.007416 0.215365
vt -0.000000 0.179243
vt 0.001815 0.160811
vt 0.007416 0.161642
vt 0.005429 0.142646
vt 0.010921 0.144021
vt 0.010805 0.124922
vt 0.017893 0.107811
vt 0.023011 0.110231
vt 0.026624 0.091476
vt 0.031480 0.094387
vt 0.036913 0.076077
vt 0.048663 0.061760
vt 0.041461 0.079449
vt 0.061760 0.048663
vt 0.065562 0.052858
vt 0.076077 0.036913
vt 0.079449 0.041461
vt 0.091476 0.026624
vt 0.094387 0.031480
vt 0.107811 0.017893
vt 0.124922 0.010805
vt 0.126829 0.016136
vt 0.142646 0.005429
vt 0.144021 0.010921
vt 0.160811 0.001815
vt 0.179243 -0.000000
vt 0.161642 0.007416
vt 0.197764 -0.000000
vt 0.197486 0.005655
vt 0.216196 0.001815
vt 0.215365 0.007416
vt 0.234361 0.005429
vt 0.232986 0.010921
vt 0.252085 0.010805
vt 0.269196 0.017893
vt 0.266776 0.023011
vt 0.285531 0.026624
vt 0.282620 0.031480
vt 0.300930 0.036913
vt 0.297558 0.041461
vt 0.266776 0.353996
vt 0.250178 0.016136
vt 0.179521 0.005655
vt 0.197486 0.371352
vt 0.126829 0.360871
vt 0.110231 0.023011
vt 0.052858 0.065562
vt 0.065562 0.324149
vt 0.023011 0.266776
vt 0.016136 0.126829
vt 0.173471 0.842394
vt 0.001770 0.587854
vt 0.000000 0.569878
vt 0.000000 0.551815
vt 0.001770 0.533839
vt 0.005294 0.516123
vt 0.010538 0.498838
vt 0.017450 0.482150
vt 0.025965 0.466220
vt 0.036000 0.451201
vt 0.047459 0.437239
vt 0.060232 0.424466
vt 0.074194 0.413007
vt 0.089213 0.402972
vt 0.139116 0.382301
vt 0.105143 0.394457
vt 0.121831 0.387545
vt 0.156832 0.378777
vt 0.174808 0.377007
vt 0.192871 0.377007
vt 0.210847 0.378777
vt 0.228563 0.382301
vt 0.245848 0.387545
vt 0.262536 0.394457
vt 0.278466 0.402972
vt 0.293485 0.413007
vt 0.307448 0.424466
vt 0.320220 0.437239
vt 0.331679 0.451201
vt 0.341714 0.466220
vt 0.350229 0.482150
vt 0.357141 0.498838
vt 0.365909 0.533839
vt 0.367679 0.551815
vt 0.367679 0.569878
vt 0.365909 0.587854
vt 0.362385 0.605570
vt 0.357141 0.622855
vt 0.350229 0.639543
vt 0.341714 0.655473
vt 0.331679 0.670492
vt 0.320220 0.684455
vt 0.307448 0.697227
vt 0.293485 0.708686
vt 0.278466 0.718721
vt 0.262536 0.727236
vt 0.245848 0.734148
vt 0.210847 0.742916
vt 0.192871 0.744686
vt 0.174808 0.744686
vt 0.156832 0.742916
vt 0.139116 0.739392
vt 0.121831 0.734148
vt 0.105143 0.727236
vt 0.089213 0.718721
vt 0.074194 0.708686
vt 0.060232 0.697227
vt 0.047459 0.684455
vt 0.036000 0.670492
vt 0.025965 0.655473
vt 0.017450 0.639543
vt 0.010538 0.622855
vt 0.944678 0.000000
vt 0.992427 0.645370
vt 0.997855 0.516708
vt 0.999695 0.365697
vt 0.591534 0.645371
vt 0.515373 0.360431
vt 0.465739 0.339872
vt 0.498181 0.355216
vt 0.481583 0.348341
vt 0.450801 0.329891
vt 0.436914 0.318493
vt 0.424210 0.305790
vt 0.412813 0.291902
vt 0.402832 0.276965
vt 0.394363 0.261120
vt 0.387488 0.244522
vt 0.382273 0.227330
vt 0.378768 0.209710
vt 0.377007 0.191831
vt 0.377007 0.173866
vt 0.378768 0.155987
vt 0.382273 0.138366
vt 0.402832 0.088732
vt 0.387488 0.121174
vt 0.394363 0.104576
vt 0.412813 0.073794
vt 0.424210 0.059907
vt 0.436914 0.047203
vt 0.450801 0.035806
vt 0.465739 0.025825
vt 0.481583 0.017356
vt 0.498181 0.010481
vt 0.515373 0.005266
vt 0.532994 0.001761
vt 0.550873 0.000000
vt 0.568838 0.000000
vt 0.604338 0.005266
vt 0.653972 0.025825
vt 0.621529 0.010481
vt 0.638127 0.017356
vt 0.668909 0.035806
vt 0.682797 0.047203
vt 0.695500 0.059907
vt 0.706898 0.073794
vt 0.716879 0.088732
vt 0.725348 0.104576
vt 0.732223 0.121174
vt 0.737438 0.138366
vt 0.740943 0.155987
vt 0.742704 0.173866
vt 0.742704 0.191831
vt 0.737438 0.227331
vt 0.716879 0.276965
vt 0.732223 0.244523
vt 0.725348 0.261120
vt 0.706898 0.291902
vt 0.695500 0.305790
vt 0.682797 0.318494
vt 0.668909 0.329891
vt 0.653971 0.339872
vt 0.638127 0.348341
vt 0.621529 0.355216
vt 0.604337 0.360431
vt 0.586717 0.363936
vt 0.568838 0.365697
vt 0.550873 0.365697
vt 0.906370 0.127084
vt 0.578366 0.645041
s 0
usemtl 
f 6/1/1 386/2/1 3/3/1
f 257/4/1 387/5/1 258/6/1
f 9/7/2 391/8/2 389/9/2
f 258/6/2 387/5/2 392/10/2
f 12/11/3 396/12/3 395/13/3
f 12/11/4 261/14/4 260/15/4
f 15/16/5 262/17/5 261/14/5
f 18/18/6 263/19/6 262/17/6
f 21/20/7 264/21/7 263/19/7
f 24/22/8 265/23/8 264/21/8
f 27/24/9 266/25/9 265/26/9
f 30/27/10 267/28/10 266/25/10
f 33/29/11 268/30/11 267/28/11
f 36/31/12 269/32/12 268/30/12
f 39/33/13 270/34/13 269/32/13
f 42/35/14 271/36/14 270/34/14
f 45/37/15 272/38/15 271/36/15
f 48/39/16 273/40/16 272/38/16
f 51/41/17 274/42/17 273/40/17
f 54/43/18 275/44/18 274/42/18
f 57/45/19 276/46/19 275/44/19
f 60/47/20 277/48/20 276/46/20
f 63/49/21 278/50/21 277/48/21
f 66/51/22 279/52/22 278/50/22
f 69/53/23 280/54/23 279/52/23
f 72/55/24 281/56/24 280/54/24
f 75/57/25 282/58/25 281/56/25
f 78/59/26 283/60/26 282/61/26
f 81/62/27 284/63/27 283/60/27
f 84/64/28 285/65/28 284/63/28
f 87/66/29 286/67/29 285/65/29
f 90/68/30 422/69/30 423/70/30
f 96/71/31 432/72/31 430/73/31
f 287/74/31 427/75/31 429/76/31
f 96/71/32 434/77/32 432/72/32
f 289/78/32 431/79/32 433/80/32
f 99/81/33 436/82/33 434/77/33
f 290/83/33 433/80/33 435/84/33
f 105/85/34 438/86/34 437/87/34
f 290/83/34 435/84/34 440/88/34
f 108/89/35 441/90/35 442/91/35
f 108/89/36 293/92/36 292/93/36
f 111/94/37 294/95/37 293/92/37
f 114/96/38 295/97/38 294/95/38
f 117/98/39 296/99/39 295/97/39
f 120/100/40 297/101/40 296/99/40
f 123/102/41 298/103/41 297/101/41
f 126/104/42 299/105/42 298/103/42
f 129/106/43 300/107/43 299/108/43
f 132/109/44 301/110/44 300/107/44
f 135/111/45 302/112/45 301/110/45
f 138/113/46 303/114/46 302/112/46
f 141/115/47 304/116/47 303/114/47
f 144/117/48 305/118/48 304/116/48
f 147/119/49 306/120/49 305/118/49
f 150/121/50 307/122/50 306/120/50
f 153/123/51 308/124/51 307/122/51
f 156/125/52 309/126/52 308/124/52
f 159/127/53 310/128/53 309/126/53
f 162/129/54 311/130/54 310/128/54
f 165/131/55 312/132/55 311/130/55
f 168/133/56 313/134/56 312/132/56
f 171/135/57 314/136/57 313/134/57
f 174/137/58 315/138/58 314/139/58
f 177/140/59 316/141/59 315/138/59
f 180/142/60 317/143/60 316/141/60
f 183/144/61 318/145/61 317/143/61
f 186/146/62 400/147/62 399/148/62
f 93/149/63 225/150/63 227/151/63
f 189/152/63 194/153/63 197/154/63
f 192/155/64 410/156/64 408/157/64
f 319/158/64 406/159/64 407/160/64
f 3/3/65 410/156/65 192/155/65
f 320/161/65 385/162/65 257/4/65
f 92/163/66 139/164/66 187/165/66
f 2/166/33 322/167/33 321/168/33
f 4/169/34 323/170/34 322/167/34
f 8/171/35 324/172/35 323/170/35
f 10/173/36 325/174/36 324/172/36
f 13/175/37 326/176/37 325/174/37
f 16/177/38 327/178/38 326/176/38
f 20/179/39 328/180/39 327/178/39
f 23/181/40 329/182/40 328/180/40
f 330/183/41 248/184/41 329/182/41
f 331/185/42 247/186/42 330/183/42
f 332/187/43 252/188/43 331/189/43
f 333/190/44 235/191/44 332/187/44
f 334/192/45 237/193/45 333/190/45
f 335/194/46 236/195/46 334/192/46
f 336/196/47 241/197/47 335/194/47
f 337/198/48 240/199/48 336/196/48
f 338/200/49 238/201/49 337/198/49
f 53/202/50 339/203/50 338/200/50
f 56/204/51 340/205/51 339/203/51
f 341/206/52 233/207/52 340/205/52
f 342/208/53 231/209/53 341/206/53
f 343/210/54 232/211/54 342/208/54
f 344/212/55 234/213/55 343/210/55
f 345/214/56 229/215/56 344/212/56
f 346/216/57 230/217/57 345/214/57
f 347/218/58 228/219/58 346/220/58
f 348/221/59 251/222/59 347/218/59
f 349/223/60 226/224/60 348/221/60
f 350/225/61 224/226/61 349/223/61
f 450/227/64 227/228/64 448/229/64
f 450/227/64 447/230/64 449/231/64
f 223/232/65 450/227/65 452/233/65
f 353/234/65 449/231/65 352/235/65
f 221/236/1 452/233/1 454/237/1
f 354/238/1 451/239/1 353/234/1
f 100/240/2 355/241/2 354/238/2
f 103/242/3 356/243/3 355/241/3
f 357/244/4 218/245/4 356/243/4
f 358/246/5 219/247/5 357/244/5
f 359/248/6 217/249/6 358/246/6
f 360/250/7 220/251/7 359/248/7
f 361/252/8 215/253/8 360/250/8
f 121/254/9 362/255/9 361/256/9
f 125/257/10 363/258/10 362/255/10
f 128/259/11 364/260/11 363/258/11
f 131/261/12 365/262/12 364/260/12
f 133/263/13 366/264/13 365/262/13
f 136/265/14 367/266/14 366/264/14
f 140/267/15 368/268/15 367/266/15
f 143/269/16 369/270/16 368/268/16
f 145/271/17 370/272/17 369/270/17
f 148/273/18 371/274/18 370/272/18
f 151/275/19 372/276/19 371/274/19
f 154/277/20 373/278/20 372/276/20
f 158/279/21 374/280/21 373/278/21
f 161/281/22 375/282/22 374/280/22
f 164/283/23 376/284/23 375/282/23
f 166/285/24 377/286/24 376/284/24
f 169/287/25 378/288/25 377/286/25
f 173/289/26 379/290/26 378/291/26
f 176/292/27 380/293/27 379/290/27
f 179/294/28 381/295/28 380/293/28
f 182/296/29 382/297/29 381/295/29
f 185/298/30 383/299/30 382/297/30
f 188/300/31 384/301/31 383/299/31
f 190/302/32 321/168/32 384/301/32
f 125/303/63 77/304/63 29/305/63
f 384/301/32 413/306/32 411/307/32
f 199/308/32 412/309/32 414/310/32
f 383/299/31 411/307/31 416/311/31
f 323/170/34 419/312/34 322/167/34
f 414/310/32 411/307/32 413/306/32
f 381/295/29 194/313/29 195/314/29
f 380/293/28 195/314/28 193/315/28
f 379/290/27 193/315/27 249/316/27
f 378/291/26 249/316/26 205/317/26
f 377/286/25 205/318/25 206/319/25
f 376/284/24 206/319/24 203/320/24
f 375/282/23 203/320/23 204/321/23
f 374/280/22 204/321/22 201/322/22
f 373/278/21 201/322/21 202/323/21
f 372/276/20 202/323/20 200/324/20
f 371/274/19 200/324/19 253/325/19
f 370/272/18 253/325/18 208/326/18
f 369/270/17 208/326/17 207/327/17
f 368/268/16 207/327/16 209/328/16
f 367/266/15 209/328/15 213/329/15
f 366/264/14 213/329/14 210/330/14
f 365/262/13 210/330/13 212/331/13
f 364/260/12 212/331/12 211/332/12
f 363/258/11 211/332/11 250/333/11
f 362/255/10 250/333/10 214/334/10
f 361/256/9 214/334/9 216/335/9
f 121/336/8 360/250/8 118/337/8
f 118/337/7 359/248/7 115/338/7
f 115/338/6 358/246/6 112/339/6
f 112/339/5 357/244/5 109/340/5
f 109/340/4 356/243/4 106/341/4
f 453/342/2 456/343/2 454/237/2
f 254/344/2 454/237/2 456/343/2
f 100/240/1 353/234/1 98/345/1
f 98/345/65 352/235/65 94/346/65
f 94/346/64 351/347/64 91/348/64
f 91/348/62 350/225/62 88/349/62
f 88/349/61 349/223/61 85/350/61
f 85/350/60 348/221/60 82/351/60
f 82/351/59 347/218/59 80/352/59
f 80/352/58 346/220/58 77/353/58
f 77/354/57 345/214/57 73/355/57
f 73/355/56 344/212/56 70/356/56
f 70/356/55 343/210/55 67/357/55
f 67/357/54 342/208/54 64/358/54
f 64/358/53 341/206/53 62/359/53
f 62/359/52 340/205/52 59/360/52
f 339/203/51 233/207/51 255/361/51
f 338/200/50 255/361/50 239/362/50
f 53/202/49 337/198/49 50/363/49
f 50/363/48 336/196/48 47/364/48
f 47/364/47 335/194/47 43/365/47
f 43/365/46 334/192/46 40/366/46
f 40/366/45 333/190/45 37/367/45
f 37/367/44 332/187/44 34/368/44
f 34/368/43 331/189/43 32/369/43
f 32/370/42 330/183/42 29/371/42
f 29/371/41 329/182/41 26/372/41
f 328/180/40 248/184/40 245/373/40
f 327/178/39 245/373/39 246/374/39
f 326/176/38 246/374/38 243/375/38
f 325/174/37 243/375/37 244/376/37
f 324/172/36 244/376/36 242/377/36
f 412/309/31 415/378/31 416/311/31
f 197/379/31 412/309/31 196/380/31
f 256/381/34 420/382/34 418/383/34
f 321/168/33 419/312/33 413/306/33
f 198/384/33 414/310/33 420/382/33
f 320/161/67 1/385/67 191/386/67
f 319/158/68 191/386/68 187/387/68
f 184/388/69 319/158/69 187/387/69
f 317/143/70 184/388/70 181/389/70
f 316/141/71 181/389/71 178/390/71
f 175/391/72 316/141/72 178/390/72
f 314/136/73 175/392/73 172/393/73
f 313/134/74 172/393/74 170/394/74
f 167/395/75 313/134/75 170/394/75
f 311/130/76 167/395/76 163/396/76
f 310/128/77 163/396/77 160/397/77
f 157/398/78 310/128/78 160/397/78
f 155/399/79 309/126/79 157/398/79
f 307/122/80 155/399/80 152/400/80
f 149/401/81 307/122/81 152/400/81
f 305/118/82 149/401/82 146/402/82
f 304/116/83 146/402/83 142/403/83
f 303/114/84 142/403/84 139/404/84
f 137/405/85 303/114/85 139/404/85
f 301/110/86 137/405/86 134/406/86
f 300/107/87 134/406/87 130/407/87
f 127/408/88 300/107/88 130/407/88
f 298/103/89 127/409/89 124/410/89
f 297/101/90 124/410/90 122/411/90
f 119/412/91 297/101/91 122/411/91
f 295/97/92 119/412/92 116/413/92
f 294/95/93 116/413/93 113/414/93
f 110/415/94 294/95/94 113/414/94
f 107/416/95 293/92/95 110/415/95
f 291/417/96 107/416/96 104/418/96
f 101/419/97 291/417/97 104/418/97
f 289/78/98 101/419/98 97/420/98
f 288/421/99 97/420/99 95/422/99
f 287/74/100 95/422/100 92/423/100
f 89/424/101 287/74/101 92/423/101
f 285/65/102 89/424/102 86/425/102
f 284/63/103 86/425/103 83/426/103
f 79/427/104 284/63/104 83/426/104
f 282/61/105 79/427/105 76/428/105
f 281/56/106 76/429/106 74/430/106
f 71/431/107 281/56/107 74/430/107
f 279/52/108 71/431/108 68/432/108
f 278/50/109 68/432/109 65/433/109
f 61/434/110 278/50/110 65/433/110
f 58/435/111 277/48/111 61/434/111
f 275/44/112 58/435/112 55/436/112
f 52/437/113 275/44/113 55/436/113
f 273/40/114 52/437/114 49/438/114
f 272/38/115 49/438/115 46/439/115
f 271/36/116 46/439/116 44/440/116
f 41/441/117 271/36/117 44/440/117
f 269/32/118 41/441/118 38/442/118
f 268/30/119 38/442/119 35/443/119
f 31/444/120 268/30/120 35/443/120
f 266/25/121 31/444/121 28/445/121
f 265/26/122 28/445/122 25/446/122
f 22/447/123 265/23/123 25/448/123
f 263/19/124 22/447/124 19/449/124
f 262/17/125 19/449/125 17/450/125
f 14/451/126 262/17/126 17/450/126
f 11/452/127 261/14/127 14/451/127
f 259/453/128 11/452/128 7/454/128
f 5/455/129 259/453/129 7/454/129
f 257/4/130 5/455/130 1/385/130
f 419/312/34 418/383/34 420/382/34
f 414/310/33 419/312/33 420/382/33
f 256/381/35 324/172/35 242/377/35
f 194/313/30 383/299/30 197/379/30
f 452/233/65 449/231/65 451/239/65
f 454/237/1 451/239/1 453/342/1
f 225/456/62 351/347/62 227/228/62
f 351/347/64 449/231/64 447/230/64
f 453/342/2 355/241/2 455/457/2
f 254/344/3 356/243/3 218/245/3
f 6/1/1 388/458/1 386/2/1
f 257/4/1 385/162/1 387/5/1
f 389/9/2 388/458/2 6/1/2
f 6/1/2 9/7/2 389/9/2
f 392/10/2 390/459/2 259/453/2
f 259/453/2 258/6/2 392/10/2
f 394/460/3 391/8/3 9/7/3
f 12/11/3 260/15/3 396/12/3
f 260/15/3 259/453/3 390/459/3
f 396/12/3 260/15/3 398/461/3
f 390/459/3 393/462/3 260/15/3
f 393/462/3 398/461/3 260/15/3
f 394/460/3 9/7/3 397/463/3
f 9/7/3 12/11/3 397/463/3
f 395/13/3 397/463/3 12/11/3
f 12/11/4 15/16/4 261/14/4
f 15/16/5 18/18/5 262/17/5
f 18/18/6 21/20/6 263/19/6
f 21/20/7 24/22/7 264/21/7
f 24/22/8 27/464/8 265/23/8
f 27/24/9 30/27/9 266/25/9
f 30/27/10 33/29/10 267/28/10
f 33/29/11 36/31/11 268/30/11
f 36/31/12 39/33/12 269/32/12
f 39/33/13 42/35/13 270/34/13
f 42/35/14 45/37/14 271/36/14
f 45/37/15 48/39/15 272/38/15
f 48/39/16 51/41/16 273/40/16
f 51/41/17 54/43/17 274/42/17
f 54/43/18 57/45/18 275/44/18
f 57/45/19 60/47/19 276/46/19
f 60/47/20 63/49/20 277/48/20
f 63/49/21 66/51/21 278/50/21
f 66/51/22 69/53/22 279/52/22
f 69/53/23 72/55/23 280/54/23
f 72/55/24 75/57/24 281/56/24
f 75/57/25 78/465/25 282/58/25
f 78/59/26 81/62/26 283/60/26
f 81/62/27 84/64/27 284/63/27
f 84/64/28 87/66/28 285/65/28
f 87/66/29 90/68/29 286/67/29
f 426/466/30 427/75/30 286/67/30
f 427/75/30 287/74/30 286/67/30
f 286/67/30 90/68/30 423/70/30
f 90/68/30 93/467/30 424/468/30
f 93/467/30 428/469/30 421/470/30
f 93/467/30 421/470/30 424/468/30
f 425/471/30 426/466/30 286/67/30
f 423/70/30 425/471/30 286/67/30
f 90/68/30 424/468/30 422/69/30
f 430/73/31 428/469/31 93/467/31
f 93/467/31 96/71/31 430/73/31
f 429/76/31 431/79/31 288/421/31
f 288/421/31 287/74/31 429/76/31
f 96/71/32 99/81/32 434/77/32
f 289/78/32 288/421/32 431/79/32
f 99/81/33 102/472/33 436/82/33
f 290/83/33 289/78/33 433/80/33
f 437/87/34 436/82/34 102/472/34
f 102/472/34 105/85/34 437/87/34
f 440/88/34 439/473/34 291/417/34
f 291/417/34 290/83/34 440/88/34
f 445/474/35 438/86/35 105/85/35
f 108/89/35 292/93/35 441/90/35
f 292/93/35 291/417/35 439/473/35
f 441/90/35 292/93/35 446/475/35
f 439/473/35 444/476/35 292/93/35
f 444/476/35 446/475/35 292/93/35
f 445/474/35 105/85/35 443/477/35
f 105/85/35 108/89/35 443/477/35
f 442/91/35 443/477/35 108/89/35
f 108/89/36 111/94/36 293/92/36
f 111/94/37 114/96/37 294/95/37
f 114/96/38 117/98/38 295/97/38
f 117/98/39 120/100/39 296/99/39
f 120/100/40 123/102/40 297/101/40
f 123/102/41 126/104/41 298/103/41
f 126/104/42 129/478/42 299/105/42
f 129/106/43 132/109/43 300/107/43
f 132/109/44 135/111/44 301/110/44
f 135/111/45 138/113/45 302/112/45
f 138/113/46 141/115/46 303/114/46
f 141/115/47 144/117/47 304/116/47
f 144/117/48 147/119/48 305/118/48
f 147/119/49 150/121/49 306/120/49
f 150/121/50 153/123/50 307/122/50
f 153/123/51 156/125/51 308/124/51
f 156/125/52 159/127/52 309/126/52
f 159/127/53 162/129/53 310/128/53
f 162/129/54 165/131/54 311/130/54
f 165/131/55 168/133/55 312/132/55
f 168/133/56 171/135/56 313/134/56
f 171/135/57 174/479/57 314/136/57
f 174/137/58 177/140/58 315/138/58
f 177/140/59 180/142/59 316/141/59
f 180/142/60 183/144/60 317/143/60
f 183/144/61 186/146/61 318/145/61
f 404/480/62 406/159/62 318/145/62
f 406/159/62 319/158/62 318/145/62
f 318/145/62 186/146/62 399/148/62
f 186/146/62 189/481/62 402/482/62
f 189/481/62 405/483/62 401/484/62
f 189/481/62 401/484/62 402/482/62
f 403/485/62 404/480/62 318/145/62
f 399/148/62 403/485/62 318/145/62
f 186/146/62 402/482/62 400/147/62
f 217/486/63 220/487/63 117/488/63
f 117/488/63 114/489/63 217/486/63
f 114/489/63 111/490/63 219/491/63
f 111/490/63 108/492/63 218/493/63
f 108/492/63 105/494/63 218/493/63
f 105/494/63 102/495/63 221/496/63
f 102/495/63 99/497/63 223/498/63
f 99/497/63 96/499/63 223/498/63
f 96/499/63 93/149/63 222/500/63
f 223/498/63 96/499/63 222/500/63
f 93/149/63 90/501/63 225/150/63
f 90/501/63 87/502/63 224/503/63
f 87/502/63 84/504/63 226/505/63
f 84/504/63 81/506/63 226/505/63
f 81/506/63 78/507/63 228/508/63
f 78/507/63 75/509/63 230/510/63
f 75/509/63 72/511/63 230/510/63
f 72/511/63 69/512/63 229/513/63
f 230/510/63 72/511/63 229/513/63
f 69/512/63 234/514/63 229/513/63
f 78/507/63 230/510/63 228/508/63
f 90/501/63 224/503/63 225/150/63
f 102/495/63 223/498/63 221/496/63
f 114/489/63 219/491/63 217/486/63
f 218/493/63 219/491/63 111/490/63
f 254/515/63 218/493/63 105/494/63
f 81/506/63 228/508/63 251/516/63
f 81/506/63 251/516/63 226/505/63
f 221/496/63 254/515/63 105/494/63
f 87/502/63 226/505/63 224/503/63
f 227/151/63 222/500/63 93/149/63
f 232/517/63 234/514/63 69/512/63
f 69/512/63 66/518/63 232/517/63
f 66/518/63 63/519/63 231/520/63
f 63/519/63 60/521/63 233/522/63
f 60/521/63 57/523/63 233/522/63
f 57/523/63 54/524/63 239/525/63
f 54/524/63 51/526/63 238/527/63
f 51/526/63 48/528/63 238/527/63
f 48/528/63 45/529/63 240/530/63
f 238/527/63 48/528/63 240/530/63
f 45/529/63 42/531/63 236/532/63
f 42/531/63 39/533/63 236/532/63
f 39/533/63 36/534/63 237/535/63
f 36/534/63 33/536/63 235/537/63
f 237/535/63 36/534/63 235/537/63
f 33/536/63 30/538/63 247/539/63
f 30/538/63 27/540/63 248/541/63
f 27/540/63 24/542/63 248/541/63
f 24/542/63 21/543/63 245/544/63
f 248/541/63 24/542/63 245/544/63
f 21/543/63 18/545/63 243/546/63
f 18/545/63 15/547/63 243/546/63
f 15/547/63 12/548/63 244/549/63
f 12/548/63 9/550/63 242/551/63
f 244/549/63 12/548/63 242/551/63
f 9/550/63 6/552/63 198/553/63
f 6/552/63 3/554/63 199/555/63
f 3/554/63 192/556/63 199/555/63
f 192/556/63 189/152/63 196/557/63
f 199/555/63 192/556/63 196/557/63
f 189/152/63 186/558/63 194/153/63
f 186/558/63 183/559/63 195/560/63
f 183/559/63 180/561/63 193/562/63
f 180/561/63 177/563/63 193/562/63
f 177/563/63 174/564/63 205/565/63
f 174/564/63 171/566/63 206/567/63
f 171/566/63 168/568/63 206/567/63
f 168/568/63 165/569/63 203/570/63
f 206/567/63 168/568/63 203/570/63
f 165/569/63 162/571/63 201/572/63
f 162/571/63 159/573/63 202/574/63
f 159/573/63 156/575/63 200/576/63
f 156/575/63 153/577/63 200/576/63
f 153/577/63 150/578/63 208/579/63
f 150/578/63 147/580/63 207/581/63
f 147/580/63 144/582/63 207/581/63
f 144/582/63 141/583/63 209/584/63
f 207/581/63 144/582/63 209/584/63
f 141/583/63 138/585/63 210/586/63
f 138/585/63 135/587/63 212/588/63
f 135/587/63 132/589/63 211/590/63
f 132/589/63 129/591/63 211/590/63
f 129/591/63 126/592/63 214/593/63
f 126/592/63 123/594/63 216/595/63
f 123/594/63 120/596/63 216/595/63
f 120/596/63 117/488/63 215/597/63
f 216/595/63 120/596/63 215/597/63
f 117/488/63 220/487/63 215/597/63
f 126/592/63 216/595/63 214/593/63
f 138/585/63 212/588/63 210/586/63
f 150/578/63 207/581/63 208/579/63
f 162/571/63 202/574/63 201/572/63
f 174/564/63 206/567/63 205/565/63
f 186/558/63 195/560/63 194/153/63
f 6/552/63 199/555/63 198/553/63
f 243/546/63 15/547/63 244/549/63
f 30/538/63 248/541/63 247/539/63
f 236/532/63 39/533/63 237/535/63
f 54/524/63 238/527/63 239/525/63
f 66/518/63 231/520/63 232/517/63
f 233/522/63 231/520/63 63/519/63
f 255/598/63 233/522/63 57/523/63
f 129/591/63 214/593/63 250/599/63
f 129/591/63 250/599/63 211/590/63
f 239/525/63 255/598/63 57/523/63
f 135/587/63 211/590/63 212/588/63
f 141/583/63 210/586/63 213/600/63
f 241/601/63 240/530/63 45/529/63
f 236/532/63 241/601/63 45/529/63
f 141/583/63 213/600/63 209/584/63
f 252/602/63 235/537/63 33/536/63
f 153/577/63 208/579/63 253/603/63
f 153/577/63 253/603/63 200/576/63
f 247/539/63 252/602/63 33/536/63
f 159/573/63 200/576/63 202/574/63
f 165/569/63 201/572/63 204/604/63
f 246/605/63 245/544/63 21/543/63
f 243/546/63 246/605/63 21/543/63
f 165/569/63 204/604/63 203/570/63
f 256/606/63 242/551/63 9/550/63
f 177/563/63 205/565/63 249/607/63
f 177/563/63 249/607/63 193/562/63
f 198/553/63 256/606/63 9/550/63
f 183/559/63 193/562/63 195/560/63
f 197/154/63 196/557/63 189/152/63
f 408/157/64 405/483/64 189/481/64
f 189/481/64 192/155/64 408/157/64
f 407/160/64 409/608/64 320/161/64
f 320/161/64 319/158/64 407/160/64
f 3/3/65 386/2/65 410/156/65
f 320/161/65 409/608/65 385/162/65
f 187/165/66 191/609/66 1/610/66
f 1/610/66 5/611/66 7/612/66
f 7/612/66 11/613/66 14/614/66
f 14/614/66 17/615/66 7/612/66
f 17/615/66 19/616/66 7/612/66
f 19/616/66 22/617/66 25/618/66
f 25/618/66 28/619/66 31/620/66
f 31/620/66 35/621/66 44/622/66
f 35/621/66 38/623/66 44/622/66
f 38/623/66 41/624/66 44/622/66
f 44/622/66 46/625/66 49/626/66
f 49/626/66 52/627/66 55/628/66
f 55/628/66 58/629/66 61/630/66
f 61/630/66 65/631/66 55/628/66
f 65/631/66 68/632/66 55/628/66
f 68/632/66 71/633/66 74/634/66
f 74/634/66 76/635/66 79/636/66
f 79/636/66 83/637/66 92/163/66
f 83/637/66 86/638/66 92/163/66
f 86/638/66 89/639/66 92/163/66
f 92/163/66 95/640/66 97/641/66
f 97/641/66 101/642/66 104/643/66
f 104/643/66 107/644/66 110/645/66
f 110/645/66 113/646/66 104/643/66
f 113/646/66 116/647/66 104/643/66
f 116/647/66 119/648/66 122/649/66
f 122/649/66 124/650/66 127/651/66
f 127/651/66 130/652/66 139/164/66
f 130/652/66 134/653/66 139/164/66
f 134/653/66 137/654/66 139/164/66
f 139/164/66 142/655/66 146/656/66
f 146/656/66 149/657/66 152/658/66
f 152/658/66 155/659/66 157/660/66
f 157/660/66 160/661/66 152/658/66
f 160/661/66 163/662/66 152/658/66
f 163/662/66 167/663/66 170/664/66
f 170/664/66 172/665/66 175/666/66
f 175/666/66 178/667/66 187/165/66
f 178/667/66 181/668/66 187/165/66
f 181/668/66 184/669/66 187/165/66
f 187/165/66 1/610/66 7/612/66
f 19/616/66 25/618/66 44/622/66
f 25/618/66 31/620/66 44/622/66
f 44/622/66 49/626/66 55/628/66
f 68/632/66 74/634/66 92/163/66
f 74/634/66 79/636/66 92/163/66
f 92/163/66 97/641/66 104/643/66
f 116/647/66 122/649/66 139/164/66
f 122/649/66 127/651/66 139/164/66
f 139/164/66 146/656/66 152/658/66
f 163/662/66 170/664/66 187/165/66
f 170/664/66 175/666/66 187/165/66
f 187/165/66 7/612/66 19/616/66
f 44/622/66 55/628/66 68/632/66
f 92/163/66 104/643/66 116/647/66
f 139/164/66 152/658/66 163/662/66
f 187/165/66 19/616/66 44/622/66
f 44/622/66 68/632/66 92/163/66
f 92/163/66 116/647/66 139/164/66
f 139/164/66 163/662/66 187/165/66
f 187/165/66 44/622/66 92/163/66
f 2/166/33 4/169/33 322/167/33
f 4/169/34 8/171/34 323/170/34
f 8/171/35 10/173/35 324/172/35
f 10/173/36 13/175/36 325/174/36
f 13/175/37 16/177/37 326/176/37
f 16/177/38 20/179/38 327/178/38
f 20/179/39 23/181/39 328/180/39
f 23/181/40 26/372/40 329/182/40
f 330/183/41 247/186/41 248/184/41
f 331/185/42 252/670/42 247/186/42
f 332/187/43 235/191/43 252/188/43
f 333/190/44 237/193/44 235/191/44
f 334/192/45 236/195/45 237/193/45
f 335/194/46 241/197/46 236/195/46
f 336/196/47 240/199/47 241/197/47
f 337/198/48 238/201/48 240/199/48
f 338/200/49 239/362/49 238/201/49
f 53/202/50 56/204/50 339/203/50
f 56/204/51 59/360/51 340/205/51
f 341/206/52 231/209/52 233/207/52
f 342/208/53 232/211/53 231/209/53
f 343/210/54 234/213/54 232/211/54
f 344/212/55 229/215/55 234/213/55
f 345/214/56 230/217/56 229/215/56
f 346/216/57 228/671/57 230/217/57
f 347/218/58 251/222/58 228/219/58
f 348/221/59 226/224/59 251/222/59
f 349/223/60 224/226/60 226/224/60
f 350/225/61 225/456/61 224/226/61
f 450/227/64 222/672/64 227/228/64
f 450/227/64 448/229/64 447/230/64
f 223/232/65 222/672/65 450/227/65
f 353/234/65 451/239/65 449/231/65
f 221/236/1 223/232/1 452/233/1
f 354/238/1 453/342/1 451/239/1
f 100/240/2 103/242/2 355/241/2
f 103/242/3 106/341/3 356/243/3
f 357/244/4 219/247/4 218/245/4
f 358/246/5 217/249/5 219/247/5
f 359/248/6 220/251/6 217/249/6
f 360/250/7 215/253/7 220/251/7
f 361/252/8 216/673/8 215/253/8
f 121/254/9 125/257/9 362/255/9
f 125/257/10 128/259/10 363/258/10
f 128/259/11 131/261/11 364/260/11
f 131/261/12 133/263/12 365/262/12
f 133/263/13 136/265/13 366/264/13
f 136/265/14 140/267/14 367/266/14
f 140/267/15 143/269/15 368/268/15
f 143/269/16 145/271/16 369/270/16
f 145/271/17 148/273/17 370/272/17
f 148/273/18 151/275/18 371/274/18
f 151/275/19 154/277/19 372/276/19
f 154/277/20 158/279/20 373/278/20
f 158/279/21 161/281/21 374/280/21
f 161/281/22 164/283/22 375/282/22
f 164/283/23 166/285/23 376/284/23
f 166/285/24 169/287/24 377/286/24
f 169/287/25 173/674/25 378/288/25
f 173/289/26 176/292/26 379/290/26
f 176/292/27 179/294/27 380/293/27
f 179/294/28 182/296/28 381/295/28
f 182/296/29 185/298/29 382/297/29
f 185/298/30 188/300/30 383/299/30
f 188/300/31 190/302/31 384/301/31
f 190/302/32 2/166/32 321/168/32
f 29/305/63 26/675/63 16/676/63
f 26/675/63 23/677/63 16/676/63
f 23/677/63 20/678/63 16/676/63
f 16/676/63 13/679/63 10/680/63
f 10/680/63 8/681/63 16/676/63
f 8/681/63 4/682/63 16/676/63
f 4/682/63 2/683/63 190/684/63
f 190/684/63 188/685/63 4/682/63
f 188/685/63 185/686/63 4/682/63
f 185/686/63 182/687/63 179/688/63
f 179/688/63 176/689/63 173/690/63
f 173/690/63 169/691/63 161/692/63
f 169/691/63 166/693/63 161/692/63
f 166/693/63 164/694/63 161/692/63
f 161/692/63 158/695/63 154/696/63
f 154/696/63 151/697/63 161/692/63
f 151/697/63 148/698/63 161/692/63
f 148/698/63 145/699/63 143/700/63
f 143/700/63 140/701/63 148/698/63
f 140/701/63 136/702/63 148/698/63
f 136/702/63 133/703/63 131/704/63
f 131/704/63 128/705/63 125/303/63
f 125/303/63 121/706/63 112/707/63
f 121/706/63 118/708/63 112/707/63
f 118/708/63 115/709/63 112/707/63
f 112/707/63 109/710/63 106/711/63
f 106/711/63 103/712/63 112/707/63
f 103/712/63 100/713/63 112/707/63
f 100/713/63 98/714/63 94/715/63
f 94/715/63 91/716/63 100/713/63
f 91/716/63 88/717/63 100/713/63
f 88/717/63 85/718/63 82/719/63
f 82/719/63 80/720/63 77/304/63
f 77/304/63 73/721/63 64/722/63
f 73/721/63 70/723/63 64/722/63
f 70/723/63 67/724/63 64/722/63
f 64/722/63 62/725/63 59/726/63
f 59/726/63 56/727/63 64/722/63
f 56/727/63 53/728/63 64/722/63
f 53/728/63 50/729/63 47/730/63
f 47/730/63 43/731/63 53/728/63
f 43/731/63 40/732/63 53/728/63
f 40/732/63 37/733/63 34/734/63
f 34/734/63 32/735/63 29/305/63
f 185/686/63 179/688/63 4/682/63
f 179/688/63 173/690/63 4/682/63
f 136/702/63 131/704/63 148/698/63
f 131/704/63 125/303/63 148/698/63
f 88/717/63 82/719/63 100/713/63
f 82/719/63 77/304/63 100/713/63
f 40/732/63 34/734/63 53/728/63
f 34/734/63 29/305/63 53/728/63
f 29/305/63 16/676/63 4/682/63
f 173/690/63 161/692/63 148/698/63
f 125/303/63 112/707/63 100/713/63
f 77/304/63 64/722/63 53/728/63
f 29/305/63 4/682/63 173/690/63
f 173/690/63 148/698/63 125/303/63
f 125/303/63 100/713/63 77/304/63
f 77/304/63 53/728/63 29/305/63
f 29/305/63 173/690/63 125/303/63
f 384/301/32 321/168/32 413/306/32
f 199/308/32 196/380/32 412/309/32
f 383/299/31 384/301/31 411/307/31
f 323/170/34 417/736/34 419/312/34
f 414/310/32 412/309/32 411/307/32
f 381/295/29 382/297/29 194/313/29
f 380/293/28 381/295/28 195/314/28
f 379/290/27 380/293/27 193/315/27
f 378/291/26 379/290/26 249/316/26
f 377/286/25 378/288/25 205/318/25
f 376/284/24 377/286/24 206/319/24
f 375/282/23 376/284/23 203/320/23
f 374/280/22 375/282/22 204/321/22
f 373/278/21 374/280/21 201/322/21
f 372/276/20 373/278/20 202/323/20
f 371/274/19 372/276/19 200/324/19
f 370/272/18 371/274/18 253/325/18
f 369/270/17 370/272/17 208/326/17
f 368/268/16 369/270/16 207/327/16
f 367/266/15 368/268/15 209/328/15
f 366/264/14 367/266/14 213/329/14
f 365/262/13 366/264/13 210/330/13
f 364/260/12 365/262/12 212/331/12
f 363/258/11 364/260/11 211/332/11
f 362/255/10 363/258/10 250/333/10
f 361/256/9 362/255/9 214/334/9
f 121/336/8 361/252/8 360/250/8
f 118/337/7 360/250/7 359/248/7
f 115/338/6 359/248/6 358/246/6
f 112/339/5 358/246/5 357/244/5
f 109/340/4 357/244/4 356/243/4
f 453/342/2 455/457/2 456/343/2
f 254/344/2 221/236/2 454/237/2
f 100/240/1 354/238/1 353/234/1
f 98/345/65 353/234/65 352/235/65
f 94/346/64 352/235/64 351/347/64
f 91/348/62 351/347/62 350/225/62
f 88/349/61 350/225/61 349/223/61
f 85/350/60 349/223/60 348/221/60
f 82/351/59 348/221/59 347/218/59
f 80/352/58 347/218/58 346/220/58
f 77/354/57 346/216/57 345/214/57
f 73/355/56 345/214/56 344/212/56
f 70/356/55 344/212/55 343/210/55
f 67/357/54 343/210/54 342/208/54
f 64/358/53 342/208/53 341/206/53
f 62/359/52 341/206/52 340/205/52
f 339/203/51 340/205/51 233/207/51
f 338/200/50 339/203/50 255/361/50
f 53/202/49 338/200/49 337/198/49
f 50/363/48 337/198/48 336/196/48
f 47/364/47 336/196/47 335/194/47
f 43/365/46 335/194/46 334/192/46
f 40/366/45 334/192/45 333/190/45
f 37/367/44 333/190/44 332/187/44
f 34/368/43 332/187/43 331/189/43
f 32/370/42 331/185/42 330/183/42
f 29/371/41 330/183/41 329/182/41
f 328/180/40 329/182/40 248/184/40
f 327/178/39 328/180/39 245/373/39
f 326/176/38 327/178/38 246/374/38
f 325/174/37 326/176/37 243/375/37
f 324/172/36 325/174/36 244/376/36
f 412/309/31 416/311/31 411/307/31
f 197/379/31 415/378/31 412/309/31
f 256/381/34 198/384/34 420/382/34
f 321/168/33 322/167/33 419/312/33
f 198/384/33 199/308/33 414/310/33
f 320/161/67 257/4/67 1/385/67
f 319/158/68 320/161/68 191/386/68
f 184/388/69 318/145/69 319/158/69
f 317/143/70 318/145/70 184/388/70
f 316/141/71 317/143/71 181/389/71
f 175/391/72 315/138/72 316/141/72
f 314/136/73 315/737/73 175/392/73
f 313/134/74 314/136/74 172/393/74
f 167/395/75 312/132/75 313/134/75
f 311/130/76 312/132/76 167/395/76
f 310/128/77 311/130/77 163/396/77
f 157/398/78 309/126/78 310/128/78
f 155/399/79 308/124/79 309/126/79
f 307/122/80 308/124/80 155/399/80
f 149/401/81 306/120/81 307/122/81
f 305/118/82 306/120/82 149/401/82
f 304/116/83 305/118/83 146/402/83
f 303/114/84 304/116/84 142/403/84
f 137/405/85 302/112/85 303/114/85
f 301/110/86 302/112/86 137/405/86
f 300/107/87 301/110/87 134/406/87
f 127/408/88 299/108/88 300/107/88
f 298/103/89 299/105/89 127/409/89
f 297/101/90 298/103/90 124/410/90
f 119/412/91 296/99/91 297/101/91
f 295/97/92 296/99/92 119/412/92
f 294/95/93 295/97/93 116/413/93
f 110/415/94 293/92/94 294/95/94
f 107/416/95 292/93/95 293/92/95
f 291/417/96 292/93/96 107/416/96
f 101/419/97 290/83/97 291/417/97
f 289/78/98 290/83/98 101/419/98
f 288/421/99 289/78/99 97/420/99
f 287/74/100 288/421/100 95/422/100
f 89/424/101 286/67/101 287/74/101
f 285/65/102 286/67/102 89/424/102
f 284/63/103 285/65/103 86/425/103
f 79/427/104 283/60/104 284/63/104
f 282/61/105 283/60/105 79/427/105
f 281/56/106 282/58/106 76/429/106
f 71/431/107 280/54/107 281/56/107
f 279/52/108 280/54/108 71/431/108
f 278/50/109 279/52/109 68/432/109
f 61/434/110 277/48/110 278/50/110
f 58/435/111 276/46/111 277/48/111
f 275/44/112 276/46/112 58/435/112
f 52/437/113 274/42/113 275/44/113
f 273/40/114 274/42/114 52/437/114
f 272/38/115 273/40/115 49/438/115
f 271/36/116 272/38/116 46/439/116
f 41/441/117 270/34/117 271/36/117
f 269/32/118 270/34/118 41/441/118
f 268/30/119 269/32/119 38/442/119
f 31/444/120 267/28/120 268/30/120
f 266/25/121 267/28/121 31/444/121
f 265/26/122 266/25/122 28/445/122
f 22/447/123 264/21/123 265/23/123
f 263/19/124 264/21/124 22/447/124
f 262/17/125 263/19/125 19/449/125
f 14/451/126 261/14/126 262/17/126
f 11/452/127 260/15/127 261/14/127
f 259/453/128 260/15/128 11/452/128
f 5/455/129 258/6/129 259/453/129
f 257/4/130 258/6/130 5/455/130
f 419/312/34 417/736/34 418/383/34
f 414/310/33 413/306/33 419/312/33
f 444/476/131 439/473/131 441/90/131
f 406/159/62 399/148/62 405/483/62
f 256/381/35 323/170/35 324/172/35
f 194/313/30 382/297/30 383/299/30
f 452/233/65 450/227/65 449/231/65
f 454/237/1 452/233/1 451/239/1
f 225/456/62 350/225/62 351/347/62
f 351/347/64 352/235/64 449/231/64
f 453/342/2 354/238/2 355/241/2
f 254/344/3 355/241/3 356/243/3
f 427/75/30 426/466/30 423/70/30
f 426/466/30 425/471/30 423/70/30
f 423/70/30 422/69/30 427/75/30
f 422/69/30 424/468/30 421/470/30
f 421/470/132 428/469/132 422/69/132
f 428/469/31 430/73/31 429/76/31
f 428/469/31 429/76/31 427/75/31
f 430/73/31 432/72/31 429/76/31
f 427/75/30 422/69/30 428/469/30
f 431/79/31 429/76/31 432/72/31
f 432/72/32 434/77/32 431/79/32
f 433/80/32 431/79/32 434/77/32
f 439/473/34 440/88/34 437/87/34
f 440/88/34 435/84/34 437/87/34
f 435/84/33 433/80/33 436/82/33
f 436/82/33 433/80/33 434/77/33
f 436/82/34 437/87/34 435/84/34
f 437/87/34 438/86/34 439/473/34
f 439/473/35 438/86/35 441/90/35
f 438/86/35 445/474/35 442/91/35
f 445/474/35 443/477/35 442/91/35
f 442/91/35 441/90/35 438/86/35
f 441/90/35 446/475/35 444/476/35
f 388/458/2 389/9/2 387/5/2
f 389/9/2 391/8/2 392/10/2
f 387/5/2 389/9/2 392/10/2
f 391/8/3 394/460/3 395/13/3
f 394/460/3 397/463/3 395/13/3
f 395/13/3 396/12/3 390/459/3
f 396/12/3 398/461/3 393/462/3
f 393/462/133 390/459/133 396/12/133
f 390/459/2 392/10/2 391/8/2
f 391/8/3 395/13/3 390/459/3
f 386/2/1 388/458/1 385/162/1
f 385/162/1 388/458/1 387/5/1
f 410/156/65 386/2/65 409/608/65
f 409/608/65 386/2/65 385/162/65
f 405/483/64 408/157/64 407/160/64
f 408/157/64 410/156/64 409/608/64
f 402/482/62 401/484/62 400/147/62
f 401/484/134 405/483/134 400/147/134
f 399/148/62 400/147/62 405/483/62
f 404/480/62 403/485/62 399/148/62
f 409/608/64 407/160/64 408/157/64
f 407/160/64 406/159/64 405/483/64
f 406/159/62 404/480/62 399/148/62
