# Blender 5.1.1
# www.blender.org
mtllib dec_cylinder.mtl
o Cylinder
v 0.016000 -0.000000 0.000000
v 0.016000 -0.000000 0.032000
v 0.012944 -0.009405 0.000000
v 0.012944 -0.009405 0.032000
v 0.004944 -0.015217 0.000000
v 0.004944 -0.015217 0.032000
v -0.004944 -0.015217 0.000000
v -0.004944 -0.015217 0.032000
v -0.012944 -0.009405 0.000000
v -0.012944 -0.009405 0.032000
v -0.016000 0.000000 0.000000
v -0.016000 0.000000 0.032000
v -0.012944 0.009405 0.000000
v -0.012944 0.009405 0.032000
v -0.004944 0.015217 0.000000
v -0.004944 0.015217 0.032000
v 0.004944 0.015217 0.000000
v 0.004944 0.015217 0.032000
v 0.012944 0.009405 0.000000
v 0.012944 0.009405 0.032000
vn 0.9511 -0.3090 -0.0000
vn 0.5878 -0.8090 -0.0000
vn -0.0000 -1.0000 -0.0000
vn -0.5878 -0.8090 -0.0000
vn -0.9511 -0.3090 -0.0000
vn -0.9511 0.3090 -0.0000
vn -0.5878 0.8090 -0.0000
vn -0.0000 1.0000 -0.0000
vn -0.0000 -0.0000 1.0000
vn 0.5878 0.8090 -0.0000
vn 0.9511 0.3090 -0.0000
vn -0.0000 -0.0000 -1.0000
vt 1.000000 1.000000
vt 0.900000 0.500000
vt 1.000000 0.500000
vt 0.900000 1.000000
vt 0.800000 0.500000
vt 0.800000 1.000000
vt 0.700000 0.500000
vt 0.700000 1.000000
vt 0.600000 0.500000
vt 0.600000 1.000000
vt 0.500000 0.500000
vt 0.500000 1.000000
vt 0.400000 0.500000
vt 0.400000 1.000000
vt 0.300000 0.500000
vt 0.300000 1.000000
vt 0.200000 0.500000
vt 0.478254 0.324164
vt 0.250000 0.490000
vt 0.021746 0.324164
vt 0.200000 1.000000
vt 0.100000 0.500000
vt 0.100000 1.000000
vt -0.000000 0.500000
vt 0.978254 0.175836
vt 0.750000 0.010000
vt 0.521746 0.175836
vt 0.391068 0.444164
vt 0.108932 0.444164
vt 0.021746 0.175836
vt 0.108932 0.055836
vt 0.250000 0.010000
vt 0.391068 0.055836
vt 0.478254 0.175836
vt -0.000000 1.000000
vt 0.608932 0.444164
vt 0.750000 0.490000
vt 0.891068 0.444164
vt 0.978254 0.324164
vt 0.891068 0.055836
vt 0.608932 0.055836
vt 0.521746 0.324164
s 1
f 2/1/1 3/2/1 1/3/1
f 4/4/2 5/5/2 3/2/2
f 6/6/3 7/7/3 5/5/3
f 8/8/4 9/9/4 7/7/4
f 10/10/5 11/11/5 9/9/5
f 12/12/6 13/13/6 11/11/6
f 14/14/7 15/15/7 13/13/7
f 16/16/8 17/17/8 15/15/8
f 6/18/9 2/19/9 18/20/9
f 18/21/10 19/22/10 17/17/10
f 20/23/11 1/24/11 19/22/11
f 7/25/12 11/26/12 15/27/12
f 2/1/1 4/4/1 3/2/1
f 4/4/2 6/6/2 5/5/2
f 6/6/3 8/8/3 7/7/3
f 8/8/4 10/10/4 9/9/4
f 10/10/5 12/12/5 11/11/5
f 12/12/6 14/14/6 13/13/6
f 14/14/7 16/16/7 15/15/7
f 16/16/8 18/21/8 17/17/8
f 6/18/9 4/28/9 2/19/9
f 2/19/9 20/29/9 18/20/9
f 18/20/9 16/30/9 14/31/9
f 14/31/9 12/32/9 18/20/9
f 12/32/9 10/33/9 18/20/9
f 10/33/9 8/34/9 18/20/9
f 8/34/9 6/18/9 18/20/9
f 18/21/10 20/23/10 19/22/10
f 20/23/11 2/35/11 1/24/11
f 19/36/12 1/37/12 7/25/12
f 1/37/12 3/38/12 7/25/12
f 3/38/12 5/39/12 7/25/12
f 7/25/12 9/40/12 11/26/12
f 11/26/12 13/41/12 15/27/12
f 15/27/12 17/42/12 7/25/12
f 17/42/12 19/36/12 7/25/12
