# Blender 5.1.1
# www.blender.org
mtllib hex_cylinder.mtl
o Circle
v 0.016000 -0.000000 0.000000
v 0.008000 0.013856 0.000000
v -0.008000 0.013856 0.000000
v -0.016000 0.000000 0.000000
v -0.008000 -0.013856 0.000000
v 0.008000 -0.013856 0.000000
v 0.016000 -0.000000 0.032000
v 0.008000 0.013856 0.032000
v -0.008000 0.013856 0.032000
v -0.016000 0.000000 0.032000
v -0.008000 -0.013856 0.032000
v 0.008000 -0.013856 0.032000
vn -0.0000 -0.0000 -1.0000
vn -0.0000 -0.0000 1.0000
vn -0.0000 -1.0000 -0.0000
vn -0.8660 0.5000 -0.0000
vn 0.8660 0.5000 -0.0000
vn 0.8660 -0.5000 -0.0000
vn -0.8660 -0.5000 -0.0000
vn -0.0000 1.0000 -0.0000
vt 0.000000 0.000000
s 1
f 4/1/1 3/1/1 1/1/1
f 11/1/2 12/1/2 7/1/2
f 6/1/3 11/1/3 5/1/3
f 4/1/4 9/1/4 3/1/4
f 2/1/5 7/1/5 1/1/5
f 1/1/6 12/1/6 6/1/6
f 5/1/7 10/1/7 4/1/7
f 3/1/8 8/1/8 2/1/8
f 3/1/1 2/1/1 1/1/1
f 1/1/1 6/1/1 5/1/1
f 5/1/1 4/1/1 1/1/1
f 7/1/2 8/1/2 9/1/2
f 9/1/2 10/1/2 7/1/2
f 10/1/2 11/1/2 7/1/2
f 6/1/3 12/1/3 11/1/3
f 4/1/4 10/1/4 9/1/4
f 2/1/5 8/1/5 7/1/5
f 1/1/6 7/1/6 12/1/6
f 5/1/7 11/1/7 10/1/7
f 3/1/8 9/1/8 8/1/8
