# Blender 5.1.1
# www.blender.org
mtllib pent_cylinder.mtl
o Circle
v 0.016000 -0.000000 0.000000
v 0.004944 0.015217 0.000000
v -0.012944 0.009405 0.000000
v -0.012944 -0.009405 0.000000
v 0.004944 -0.015217 0.000000
v 0.016000 -0.000000 0.032000
v 0.004944 0.015217 0.032000
v -0.012944 0.009405 0.032000
v -0.012944 -0.009405 0.032000
v 0.004944 -0.015217 0.032000
vn -0.0000 -0.0000 -1.0000
vn -0.0000 -0.0000 1.0000
vn -0.3090 -0.9511 -0.0000
vn -0.3090 0.9511 -0.0000
vn 0.8090 -0.5878 -0.0000
vn -1.0000 -0.0000 -0.0000
vn 0.8090 0.5878 -0.0000
vt 0.000000 0.000000
s 1
f 1/1/1 5/1/1 4/1/1
f 8/1/2 9/1/2 10/1/2
f 5/1/3 9/1/3 4/1/3
f 3/1/4 7/1/4 2/1/4
f 1/1/5 10/1/5 5/1/5
f 4/1/6 8/1/6 3/1/6
f 2/1/7 6/1/7 1/1/7
f 3/1/1 2/1/1 4/1/1
f 2/1/1 1/1/1 4/1/1
f 6/1/2 7/1/2 10/1/2
f 7/1/2 8/1/2 10/1/2
f 5/1/3 10/1/3 9/1/3
f 3/1/4 8/1/4 7/1/4
f 1/1/5 6/1/5 10/1/5
f 4/1/6 9/1/6 8/1/6
f 2/1/7 7/1/7 6/1/7
