# Blender 5.1.1
# www.blender.org
mtllib tri_cylinder.mtl
o Circle.001
v 0.016000 -0.000000 0.000000
v -0.008000 0.013856 0.000000
v -0.008000 -0.013856 0.000000
v 0.016000 -0.000000 0.032000
v -0.008000 0.013856 0.032000
v -0.008000 -0.013856 0.032000
vn -0.0000 -0.0000 -1.0000
vn -0.0000 -0.0000 1.0000
vn 0.5000 -0.8660 -0.0000
vn -1.0000 -0.0000 -0.0000
vn 0.5000 0.8660 -0.0000
vt 0.000000 0.000000
s 1
f 2/1/1 1/1/1 3/1/1
f 5/1/2 6/1/2 4/1/2
f 1/1/3 6/1/3 3/1/3
f 3/1/4 5/1/4 2/1/4
f 2/1/5 4/1/5 1/1/5
f 1/1/3 4/1/3 6/1/3
f 3/1/4 6/1/4 5/1/4
f 2/1/5 5/1/5 4/1/5
