mtllib material.mtl
usemtl material_0
v -0.85100000 0.59394700 0.81007600
v -0.85100000 0.59394700 0.81307600
v -0.85100000 0.64094700 0.81307600
v -0.85100000 0.64094700 0.81007600
v -0.85100000 0.64094700 0.81007600
v -0.85100000 0.64094700 0.81307600
v 0.85100000 0.64094700 0.81307600
v 0.85100000 0.64094700 0.81007600
v 0.85100000 0.64094700 0.81007600
v 0.85100000 0.64094700 0.81307600
v 0.85100000 0.59394700 0.81307600
v 0.85100000 0.59394700 0.81007600
v 0.85100000 0.59394700 0.81007600
v 0.85100000 0.59394700 0.81307600
v 0.89800000 0.59394700 0.81307600
v 0.89800000 0.59394700 0.81007600
v 0.89800000 0.59394700 0.81007600
v 0.89800000 0.59394700 0.81307600
v 0.89800000 0.54694700 0.81307600
v 0.89800000 0.54694700 0.81007600
v 0.89800000 0.54694700 0.81007600
v 0.89800000 0.54694700 0.81307600
v 0.94500000 0.54694700 0.81307600
v 0.94500000 0.54694700 0.81007600
v 0.94500000 0.54694700 0.81007600
v 0.94500000 0.54694700 0.81307600
v 0.94500000 0.10344700 0.81307600
v 0.94500000 0.10344700 0.81007600
v 0.94500000 0.10344700 0.81007600
v 0.94500000 0.10344700 0.81307600
v 0.50800000 0.10344700 0.81307600
v 0.50800000 0.10344700 0.81007600
v 0.50800000 0.10344700 0.81007600
v 0.50800000 0.10344700 0.81307600
v 0.50800000 -0.12655300 0.81307600
v 0.50800000 -0.12655300 0.81007600
v 0.50800000 -0.12655300 0.81007600
v 0.50800000 -0.12655300 0.81307600
v 0.94500000 -0.12655300 0.81307600
v 0.94500000 -0.12655300 0.81007600
v 0.94500000 -0.12655300 0.81007600
v 0.94500000 -0.12655300 0.81307600
v 0.94500000 -0.57005300 0.81307600
v 0.94500000 -0.57005300 0.81007600
v 0.94500000 -0.57005300 0.81007600
v 0.94500000 -0.57005300 0.81307600
v 0.89800000 -0.57005300 0.81307600
v 0.89800000 -0.57005300 0.81007600
v 0.89800000 -0.57005300 0.81007600
v 0.89800000 -0.57005300 0.81307600
v 0.89800000 -0.61705300 0.81307600
v 0.89800000 -0.61705300 0.81007600
v 0.89800000 -0.61705300 0.81007600
v 0.89800000 -0.61705300 0.81307600
v 0.85100000 -0.61705300 0.81307600
v 0.85100000 -0.61705300 0.81007600
v 0.85100000 -0.61705300 0.81007600
v 0.85100000 -0.61705300 0.81307600
v 0.85100000 -0.66405300 0.81307600
v 0.85100000 -0.66405300 0.81007600
v 0.85100000 -0.66405300 0.81007600
v 0.85100000 -0.66405300 0.81307600
v -0.85100000 -0.66405300 0.81307600
v -0.85100000 -0.66405300 0.81007600
v -0.85100000 -0.66405300 0.81007600
v -0.85100000 -0.66405300 0.81307600
v -0.85100000 -0.61705300 0.81307600
v -0.85100000 -0.61705300 0.81007600
v -0.85100000 -0.61705300 0.81007600
v -0.85100000 -0.61705300 0.81307600
v -0.89800000 -0.61705300 0.81307600
v -0.89800000 -0.61705300 0.81007600
v -0.89800000 -0.61705300 0.81007600
v -0.89800000 -0.61705300 0.81307600
v -0.89800000 -0.57005300 0.81307600
v -0.89800000 -0.57005300 0.81007600
v -0.89800000 -0.57005300 0.81007600
v -0.89800000 -0.57005300 0.81307600
v -0.94500000 -0.57005300 0.81307600
v -0.94500000 -0.57005300 0.81007600
v -0.94500000 -0.57005300 0.81007600
v -0.94500000 -0.57005300 0.81307600
v -0.94500000 -0.12655300 0.81307600
v -0.94500000 -0.12655300 0.81007600
v -0.94500000 -0.12655300 0.81007600
v -0.94500000 -0.12655300 0.81307600
v -0.50800000 -0.12655300 0.81307600
v -0.50800000 -0.12655300 0.81007600
v -0.50800000 -0.12655300 0.81007600
v -0.50800000 -0.12655300 0.81307600
v -0.50800000 0.10344700 0.81307600
v -0.50800000 0.10344700 0.81007600
v -0.50800000 0.10344700 0.81007600
v -0.50800000 0.10344700 0.81307600
v -0.94500000 0.10344700 0.81307600
v -0.94500000 0.10344700 0.81007600
v -0.94500000 0.10344700 0.81007600
v -0.94500000 0.10344700 0.81307600
v -0.94500000 0.54694700 0.81307600
v -0.94500000 0.54694700 0.81007600
v 0.85100000 0.64094700 0.81007600
v -0.50800000 0.10344700 0.81007600
v -0.85100000 0.59394700 0.81007600
v -0.89800000 0.54694700 0.81007600
v -0.85100000 -0.61705300 0.81007600
v -0.89800000 -0.61705300 0.81007600
v -0.89800000 -0.57005300 0.81007600
v -0.85100000 -0.66405300 0.81007600
v 0.50800000 -0.12655300 0.81007600
v 0.85100000 -0.61705300 0.81007600
v 0.89800000 -0.57005300 0.81007600
v 0.85100000 0.59394700 0.81007600
v 0.89800000 0.59394700 0.81007600
v 0.89800000 0.54694700 0.81007600
v -0.89800000 0.59394700 0.81007600
v -0.94500000 0.10344700 0.81007600
v -0.94500000 0.54694700 0.81007600
v -0.50800000 -0.12655300 0.81007600
v 0.89800000 -0.61705300 0.81007600
v 0.94500000 -0.12655300 0.81007600
v 0.94500000 -0.57005300 0.81007600
v 0.50800000 0.10344700 0.81007600
v -0.94500000 -0.12655300 0.81007600
v 0.94500000 0.10344700 0.81007600
v -0.85100000 0.64094700 0.81007600
v 0.85100000 -0.66405300 0.81007600
v -0.94500000 -0.57005300 0.81007600
v 0.94500000 0.54694700 0.81007600
v -0.85100000 0.64094700 0.81307600
v 0.50800000 0.10344700 0.81307600
v 0.85100000 0.59394700 0.81307600
v 0.89800000 0.54694700 0.81307600
v 0.85100000 -0.61705300 0.81307600
v 0.89800000 -0.61705300 0.81307600
v 0.89800000 -0.57005300 0.81307600
v 0.85100000 -0.66405300 0.81307600
v -0.50800000 -0.12655300 0.81307600
v -0.85100000 -0.61705300 0.81307600
v -0.89800000 -0.57005300 0.81307600
v -0.85100000 0.59394700 0.81307600
v -0.89800000 0.59394700 0.81307600
v -0.89800000 0.54694700 0.81307600
v 0.89800000 0.59394700 0.81307600
v 0.94500000 0.10344700 0.81307600
v 0.94500000 0.54694700 0.81307600
v 0.50800000 -0.12655300 0.81307600
v -0.89800000 -0.61705300 0.81307600
v -0.94500000 -0.12655300 0.81307600
v -0.94500000 -0.57005300 0.81307600
v -0.50800000 0.10344700 0.81307600
v 0.94500000 -0.12655300 0.81307600
v -0.94500000 0.10344700 0.81307600
v 0.85100000 0.64094700 0.81307600
v -0.85100000 -0.66405300 0.81307600
v 0.94500000 -0.57005300 0.81307600
v -0.94500000 0.54694700 0.81307600
v -0.94500000 0.54694700 0.81007600
v -0.94500000 0.54694700 0.81307600
v -0.89800000 0.54694700 0.81307600
v -0.89800000 0.54694700 0.81007600
v -0.89800000 0.54694700 0.81007600
v -0.89800000 0.54694700 0.81307600
v -0.89800000 0.59394700 0.81307600
v -0.89800000 0.59394700 0.81007600
v -0.89800000 0.59394700 0.81007600
v -0.89800000 0.59394700 0.81307600
v -0.85100000 0.59394700 0.81307600
v -0.85100000 0.59394700 0.81007600
vn -1.00000000 -0.00000000 -0.00000000
vn -1.00000000 -0.00000000 -0.00000000
vn -1.00000000 -0.00000000 -0.00000000
vn -1.00000000 -0.00000000 -0.00000000
vn -0.00000000 1.00000000 -0.00000000
vn -0.00000000 1.00000000 -0.00000000
vn -0.00000000 1.00000000 -0.00000000
vn -0.00000000 1.00000000 -0.00000000
vn 1.00000000 -0.00000000 -0.00000000
vn 1.00000000 -0.00000000 -0.00000000
vn 1.00000000 -0.00000000 -0.00000000
vn 1.00000000 -0.00000000 -0.00000000
vn -0.00000000 1.00000000 -0.00000000
vn -0.00000000 1.00000000 -0.00000000
vn -0.00000000 1.00000000 -0.00000000
vn -0.00000000 1.00000000 -0.00000000
vn 1.00000000 -0.00000000 -0.00000000
vn 1.00000000 -0.00000000 -0.00000000
vn 1.00000000 -0.00000000 -0.00000000
vn 1.00000000 -0.00000000 -0.00000000
vn -0.00000000 1.00000000 -0.00000000
vn -0.00000000 1.00000000 -0.00000000
vn -0.00000000 1.00000000 -0.00000000
vn -0.00000000 1.00000000 -0.00000000
vn 1.00000000 -0.00000000 -0.00000000
vn 1.00000000 -0.00000000 -0.00000000
vn 1.00000000 -0.00000000 -0.00000000
vn 1.00000000 -0.00000000 -0.00000000
vn -0.00000000 -1.00000000 -0.00000000
vn -0.00000000 -1.00000000 -0.00000000
vn -0.00000000 -1.00000000 -0.00000000
vn -0.00000000 -1.00000000 -0.00000000
vn 1.00000000 -0.00000000 -0.00000000
vn 1.00000000 -0.00000000 -0.00000000
vn 1.00000000 -0.00000000 -0.00000000
vn 1.00000000 -0.00000000 -0.00000000
vn -0.00000000 1.00000000 -0.00000000
vn -0.00000000 1.00000000 -0.00000000
vn -0.00000000 1.00000000 -0.00000000
vn -0.00000000 1.00000000 -0.00000000
vn 1.00000000 -0.00000000 -0.00000000
vn 1.00000000 -0.00000000 -0.00000000
vn 1.00000000 -0.00000000 -0.00000000
vn 1.00000000 -0.00000000 -0.00000000
vn -0.00000000 -1.00000000 -0.00000000
vn -0.00000000 -1.00000000 -0.00000000
vn -0.00000000 -1.00000000 -0.00000000
vn -0.00000000 -1.00000000 -0.00000000
vn 1.00000000 -0.00000000 -0.00000000
vn 1.00000000 -0.00000000 -0.00000000
vn 1.00000000 -0.00000000 -0.00000000
vn 1.00000000 -0.00000000 -0.00000000
vn -0.00000000 -1.00000000 -0.00000000
vn -0.00000000 -1.00000000 -0.00000000
vn -0.00000000 -1.00000000 -0.00000000
vn -0.00000000 -1.00000000 -0.00000000
vn 1.00000000 -0.00000000 -0.00000000
vn 1.00000000 -0.00000000 -0.00000000
vn 1.00000000 -0.00000000 -0.00000000
vn 1.00000000 -0.00000000 -0.00000000
vn -0.00000000 -1.00000000 -0.00000000
vn -0.00000000 -1.00000000 -0.00000000
vn -0.00000000 -1.00000000 -0.00000000
vn -0.00000000 -1.00000000 -0.00000000
vn -1.00000000 -0.00000000 -0.00000000
vn -1.00000000 -0.00000000 -0.00000000
vn -1.00000000 -0.00000000 -0.00000000
vn -1.00000000 -0.00000000 -0.00000000
vn -0.00000000 -1.00000000 -0.00000000
vn -0.00000000 -1.00000000 -0.00000000
vn -0.00000000 -1.00000000 -0.00000000
vn -0.00000000 -1.00000000 -0.00000000
vn -1.00000000 -0.00000000 -0.00000000
vn -1.00000000 -0.00000000 -0.00000000
vn -1.00000000 -0.00000000 -0.00000000
vn -1.00000000 -0.00000000 -0.00000000
vn -0.00000000 -1.00000000 -0.00000000
vn -0.00000000 -1.00000000 -0.00000000
vn -0.00000000 -1.00000000 -0.00000000
vn -0.00000000 -1.00000000 -0.00000000
vn -1.00000000 -0.00000000 -0.00000000
vn -1.00000000 -0.00000000 -0.00000000
vn -1.00000000 -0.00000000 -0.00000000
vn -1.00000000 -0.00000000 -0.00000000
vn -0.00000000 1.00000000 -0.00000000
vn -0.00000000 1.00000000 -0.00000000
vn -0.00000000 1.00000000 -0.00000000
vn -0.00000000 1.00000000 -0.00000000
vn -1.00000000 -0.00000000 -0.00000000
vn -1.00000000 -0.00000000 -0.00000000
vn -1.00000000 -0.00000000 -0.00000000
vn -1.00000000 -0.00000000 -0.00000000
vn -0.00000000 -1.00000000 -0.00000000
vn -0.00000000 -1.00000000 -0.00000000
vn -0.00000000 -1.00000000 -0.00000000
vn -0.00000000 -1.00000000 -0.00000000
vn -1.00000000 -0.00000000 -0.00000000
vn -1.00000000 -0.00000000 -0.00000000
vn -1.00000000 -0.00000000 -0.00000000
vn -1.00000000 -0.00000000 -0.00000000
vn -0.00000000 -0.00000000 -1.00000000
vn -0.00000000 -0.00000000 -1.00000000
vn -0.00000000 -0.00000000 -1.00000000
vn -0.00000000 -0.00000000 -1.00000000
vn -0.00000000 -0.00000000 -1.00000000
vn -0.00000000 -0.00000000 -1.00000000
vn -0.00000000 -0.00000000 -1.00000000
vn -0.00000000 -0.00000000 -1.00000000
vn -0.00000000 -0.00000000 -1.00000000
vn -0.00000000 -0.00000000 -1.00000000
vn -0.00000000 -0.00000000 -1.00000000
vn -0.00000000 -0.00000000 -1.00000000
vn -0.00000000 -0.00000000 -1.00000000
vn -0.00000000 -0.00000000 -1.00000000
vn -0.00000000 -0.00000000 -1.00000000
vn -0.00000000 -0.00000000 -1.00000000
vn -0.00000000 -0.00000000 -1.00000000
vn -0.00000000 -0.00000000 -1.00000000
vn -0.00000000 -0.00000000 -1.00000000
vn -0.00000000 -0.00000000 -1.00000000
vn -0.00000000 -0.00000000 -1.00000000
vn -0.00000000 -0.00000000 -1.00000000
vn -0.00000000 -0.00000000 -1.00000000
vn -0.00000000 -0.00000000 -1.00000000
vn -0.00000000 -0.00000000 -1.00000000
vn -0.00000000 -0.00000000 -1.00000000
vn -0.00000000 -0.00000000 -1.00000000
vn -0.00000000 -0.00000000 -1.00000000
vn -0.00000000 -0.00000000 1.00000000
vn -0.00000000 -0.00000000 1.00000000
vn -0.00000000 -0.00000000 1.00000000
vn -0.00000000 -0.00000000 1.00000000
vn -0.00000000 -0.00000000 1.00000000
vn -0.00000000 -0.00000000 1.00000000
vn -0.00000000 -0.00000000 1.00000000
vn -0.00000000 -0.00000000 1.00000000
vn -0.00000000 -0.00000000 1.00000000
vn -0.00000000 -0.00000000 1.00000000
vn -0.00000000 -0.00000000 1.00000000
vn -0.00000000 -0.00000000 1.00000000
vn -0.00000000 -0.00000000 1.00000000
vn -0.00000000 -0.00000000 1.00000000
vn -0.00000000 -0.00000000 1.00000000
vn -0.00000000 -0.00000000 1.00000000
vn -0.00000000 -0.00000000 1.00000000
vn -0.00000000 -0.00000000 1.00000000
vn -0.00000000 -0.00000000 1.00000000
vn -0.00000000 -0.00000000 1.00000000
vn -0.00000000 -0.00000000 1.00000000
vn -0.00000000 -0.00000000 1.00000000
vn -0.00000000 -0.00000000 1.00000000
vn -0.00000000 -0.00000000 1.00000000
vn -0.00000000 -0.00000000 1.00000000
vn -0.00000000 -0.00000000 1.00000000
vn -0.00000000 -0.00000000 1.00000000
vn -0.00000000 -0.00000000 1.00000000
vn -0.00000000 1.00000000 -0.00000000
vn -0.00000000 1.00000000 -0.00000000
vn -0.00000000 1.00000000 -0.00000000
vn -0.00000000 1.00000000 -0.00000000
vn -1.00000000 -0.00000000 -0.00000000
vn -1.00000000 -0.00000000 -0.00000000
vn -1.00000000 -0.00000000 -0.00000000
vn -1.00000000 -0.00000000 -0.00000000
vn -0.00000000 1.00000000 -0.00000000
vn -0.00000000 1.00000000 -0.00000000
vn -0.00000000 1.00000000 -0.00000000
vn -0.00000000 1.00000000 -0.00000000
vt 0.00000000 0.00000000
vt 1.00000000 0.00000000
vt 1.00000000 1.00000000
vt 0.00000000 1.00000000
vt 1.00000000 0.00000000
vt 1.00000000 1.00000000
vt 0.00000000 1.00000000
vt 0.00000000 0.00000000
vt 0.00000000 1.00000000
vt 1.00000000 1.00000000
vt 1.00000000 0.00000000
vt 0.00000000 0.00000000
vt 0.00000000 1.00000000
vt 1.00000000 1.00000000
vt 1.00000000 0.00000000
vt 0.00000000 0.00000000
vt 0.00000000 1.00000000
vt 1.00000000 1.00000000
vt 1.00000000 0.00000000
vt 0.00000000 0.00000000
vt 0.00000000 1.00000000
vt 1.00000000 1.00000000
vt 1.00000000 0.00000000
vt 0.00000000 0.00000000
vt 0.00000000 1.00000000
vt 1.00000000 1.00000000
vt 1.00000000 0.00000000
vt 0.00000000 0.00000000
vt 0.00000000 0.00000000
vt 0.00000000 1.00000000
vt 1.00000000 1.00000000
vt 1.00000000 0.00000000
vt 0.00000000 1.00000000
vt 1.00000000 1.00000000
vt 1.00000000 0.00000000
vt 0.00000000 0.00000000
vt 1.00000000 0.00000000
vt 1.00000000 1.00000000
vt 0.00000000 1.00000000
vt 0.00000000 0.00000000
vt 1.00000000 1.00000000
vt 0.00000000 1.00000000
vt 0.00000000 0.00000000
vt 1.00000000 0.00000000
vt 0.00000000 0.00000000
vt 1.00000000 0.00000000
vt 1.00000000 1.00000000
vt 0.00000000 1.00000000
vt 1.00000000 1.00000000
vt 0.00000000 1.00000000
vt 0.00000000 0.00000000
vt 1.00000000 0.00000000
vt 0.00000000 0.00000000
vt 1.00000000 0.00000000
vt 1.00000000 1.00000000
vt 0.00000000 1.00000000
vt 1.00000000 1.00000000
vt 0.00000000 1.00000000
vt 0.00000000 0.00000000
vt 1.00000000 0.00000000
vt 1.00000000 0.00000000
vt 1.00000000 1.00000000
vt 0.00000000 1.00000000
vt 0.00000000 0.00000000
vt 1.00000000 0.00000000
vt 0.00000000 0.00000000
vt 0.00000000 1.00000000
vt 1.00000000 1.00000000
vt 1.00000000 0.00000000
vt 0.00000000 0.00000000
vt 0.00000000 1.00000000
vt 1.00000000 1.00000000
vt 1.00000000 0.00000000
vt 0.00000000 0.00000000
vt 0.00000000 1.00000000
vt 1.00000000 1.00000000
vt 1.00000000 0.00000000
vt 0.00000000 0.00000000
vt 0.00000000 1.00000000
vt 1.00000000 1.00000000
vt 1.00000000 0.00000000
vt 0.00000000 0.00000000
vt 0.00000000 1.00000000
vt 1.00000000 1.00000000
vt 0.00000000 0.00000000
vt 0.00000000 1.00000000
vt 1.00000000 1.00000000
vt 1.00000000 0.00000000
vt 1.00000000 0.00000000
vt 0.00000000 0.00000000
vt 0.00000000 1.00000000
vt 1.00000000 1.00000000
vt 1.00000000 0.00000000
vt 1.00000000 1.00000000
vt 0.00000000 1.00000000
vt 0.00000000 0.00000000
vt 0.00000000 0.00000000
vt 1.00000000 0.00000000
vt 1.00000000 1.00000000
vt 0.00000000 1.00000000
vt 0.95026500 1.00000000
vt 0.23121700 0.58812300
vt 0.04973500 0.96398500
vt 0.02486800 0.92796900
vt 0.04973500 0.03601500
vt 0.02486800 0.03601500
vt 0.02486800 0.07203100
vt 0.04973500 0.00000000
vt 0.76878300 0.41187700
vt 0.95026500 0.03601500
vt 0.97513200 0.07203100
vt 0.95026500 0.96398500
vt 0.97513200 0.96398500
vt 0.97513200 0.92796900
vt 0.02486800 0.96398500
vt 0.00000000 0.58812300
vt 0.00000000 0.92796900
vt 0.23121700 0.41187700
vt 0.97513200 0.03601500
vt 1.00000000 0.41187700
vt 1.00000000 0.07203100
vt 0.76878300 0.58812300
vt 0.00000000 0.41187700
vt 1.00000000 0.58812300
vt 0.04973500 1.00000000
vt 0.95026500 0.00000000
vt 0.00000000 0.07203100
vt 1.00000000 0.92796900
vt 0.04973500 1.00000000
vt 0.76878300 0.58812300
vt 0.95026500 0.96398500
vt 0.97513200 0.92796900
vt 0.95026500 0.03601500
vt 0.97513200 0.03601500
vt 0.97513200 0.07203100
vt 0.95026500 0.00000000
vt 0.23121700 0.41187700
vt 0.04973500 0.03601500
vt 0.02486800 0.07203100
vt 0.04973500 0.96398500
vt 0.02486800 0.96398500
vt 0.02486800 0.92796900
vt 0.97513200 0.96398500
vt 1.00000000 0.58812300
vt 1.00000000 0.92796900
vt 0.76878300 0.41187700
vt 0.02486800 0.03601500
vt 0.00000000 0.41187700
vt 0.00000000 0.07203100
vt 0.23121700 0.58812300
vt 1.00000000 0.41187700
vt 0.00000000 0.58812300
vt 0.95026500 1.00000000
vt 0.04973500 0.00000000
vt 1.00000000 0.07203100
vt 0.00000000 0.92796900
vt 1.00000000 1.00000000
vt 0.00000000 1.00000000
vt 0.00000000 0.00000000
vt 1.00000000 0.00000000
vt 0.00000000 0.00000000
vt 1.00000000 0.00000000
vt 1.00000000 1.00000000
vt 0.00000000 1.00000000
vt 1.00000000 1.00000000
vt 0.00000000 1.00000000
vt 0.00000000 0.00000000
vt 1.00000000 0.00000000
f 1/1/1 2/2/2 3/3/3
f 3/3/3 4/4/4 1/1/1
f 5/5/5 6/6/6 7/7/7
f 7/7/7 8/8/8 5/5/5
f 9/9/9 10/10/10 11/11/11
f 11/11/11 12/12/12 9/9/9
f 13/13/13 14/14/14 15/15/15
f 15/15/15 16/16/16 13/13/13
f 17/17/17 18/18/18 19/19/19
f 19/19/19 20/20/20 17/17/17
f 21/21/21 22/22/22 23/23/23
f 23/23/23 24/24/24 21/21/21
f 25/25/25 26/26/26 27/27/27
f 27/27/27 28/28/28 25/25/25
f 29/29/29 30/30/30 31/31/31
f 31/31/31 32/32/32 29/29/29
f 33/33/33 34/34/34 35/35/35
f 35/35/35 36/36/36 33/33/33
f 37/37/37 38/38/38 39/39/39
f 39/39/39 40/40/40 37/37/37
f 41/41/41 42/42/42 43/43/43
f 43/43/43 44/44/44 41/41/41
f 45/45/45 46/46/46 47/47/47
f 47/47/47 48/48/48 45/45/45
f 49/49/49 50/50/50 51/51/51
f 51/51/51 52/52/52 49/49/49
f 53/53/53 54/54/54 55/55/55
f 55/55/55 56/56/56 53/53/53
f 57/57/57 58/58/58 59/59/59
f 59/59/59 60/60/60 57/57/57
f 61/61/61 62/62/62 63/63/63
f 63/63/63 64/64/64 61/61/61
f 65/65/65 66/66/66 67/67/67
f 67/67/67 68/68/68 65/65/65
f 69/69/69 70/70/70 71/71/71
f 71/71/71 72/72/72 69/69/69
f 73/73/73 74/74/74 75/75/75
f 75/75/75 76/76/76 73/73/73
f 77/77/77 78/78/78 79/79/79
f 79/79/79 80/80/80 77/77/77
f 81/81/81 82/82/82 83/83/83
f 83/83/83 84/84/84 81/81/81
f 85/85/85 86/86/86 87/87/87
f 87/87/87 88/88/88 85/85/85
f 89/89/89 90/90/90 91/91/91
f 91/91/91 92/92/92 89/89/89
f 93/93/93 94/94/94 95/95/95
f 95/95/95 96/96/96 93/93/93
f 97/97/97 98/98/98 99/99/99
f 99/99/99 100/100/100 97/97/97
f 101/101/101 102/102/102 103/103/103
f 103/103/103 102/102/102 104/104/104
f 105/105/105 106/106/106 107/107/107
f 108/108/108 109/109/109 110/110/110
f 110/110/110 109/109/109 111/111/111
f 112/112/112 113/113/113 114/114/114
f 104/104/104 115/115/115 103/103/103
f 116/116/116 117/117/117 104/104/104
f 107/107/107 118/118/118 105/105/105
f 111/111/111 119/119/119 110/110/110
f 120/120/120 121/121/121 111/111/111
f 114/114/114 122/122/122 112/112/112
f 104/104/104 102/102/102 116/116/116
f 118/118/118 101/101/101 105/105/105
f 111/111/111 109/109/109 120/120/120
f 122/122/122 108/108/108 112/112/112
f 123/123/123 118/118/118 107/107/107
f 118/118/118 102/102/102 101/101/101
f 124/124/124 122/122/122 114/114/114
f 122/122/122 109/109/109 108/108/108
f 103/103/103 125/125/125 101/101/101
f 105/105/105 101/101/101 112/112/112
f 110/110/110 126/126/126 108/108/108
f 112/112/112 108/108/108 105/105/105
f 107/107/107 127/127/127 123/123/123
f 114/114/114 128/128/128 124/124/124
f 129/129/129 130/130/130 131/131/131
f 131/131/131 130/130/130 132/132/132
f 133/133/133 134/134/134 135/135/135
f 136/136/136 137/137/137 138/138/138
f 138/138/138 137/137/137 139/139/139
f 140/140/140 141/141/141 142/142/142
f 132/132/132 143/143/143 131/131/131
f 144/144/144 145/145/145 132/132/132
f 135/135/135 146/146/146 133/133/133
f 139/139/139 147/147/147 138/138/138
f 148/148/148 149/149/149 139/139/139
f 142/142/142 150/150/150 140/140/140
f 132/132/132 130/130/130 144/144/144
f 146/146/146 129/129/129 133/133/133
f 139/139/139 137/137/137 148/148/148
f 150/150/150 136/136/136 140/140/140
f 151/151/151 146/146/146 135/135/135
f 146/146/146 130/130/130 129/129/129
f 152/152/152 150/150/150 142/142/142
f 150/150/150 137/137/137 136/136/136
f 131/131/131 153/153/153 129/129/129
f 133/133/133 129/129/129 140/140/140
f 138/138/138 154/154/154 136/136/136
f 140/140/140 136/136/136 133/133/133
f 135/135/135 155/155/155 151/151/151
f 142/142/142 156/156/156 152/152/152
f 157/157/157 158/158/158 159/159/159
f 159/159/159 160/160/160 157/157/157
f 161/161/161 162/162/162 163/163/163
f 163/163/163 164/164/164 161/161/161
f 165/165/165 166/166/166 167/167/167
f 167/167/167 168/168/168 165/165/165

