# Blender 5.1.1
# www.blender.org
o woodProjection
v -0.696000 0.390000 -0.002500
v -0.696000 0.390000 0.002500
v 0.696000 0.390000 -0.002500
v 0.696000 0.390000 0.002500
v -0.696000 -0.390000 -0.002500
v -0.696000 -0.390000 0.002500
v 0.696000 -0.390000 -0.002500
v 0.696000 -0.390000 0.002500
vn -0.0000 1.0000 -0.0000
vn 1.0000 -0.0000 -0.0000
vn -0.0000 -1.0000 -0.0000
vn -1.0000 -0.0000 -0.0000
vn -0.0000 -0.0000 -1.0000
vn -0.0000 -0.0000 1.0000
vt 0.972279 0.849876
vt 0.969242 0.849876
vt 0.969242 0.004329
vt 0.972279 0.004329
vt 0.995671 0.478127
vt 0.992634 0.478127
vt 0.992634 0.004329
vt 0.995671 0.004329
vt 0.983975 0.849876
vt 0.980938 0.849876
vt 0.980938 0.004329
vt 0.983975 0.004329
vt 0.995671 0.960583
vt 0.992634 0.960583
vt 0.992634 0.486785
vt 0.995671 0.486785
vt 0.478127 0.849876
vt 0.004329 0.849876
vt 0.004329 0.004329
vt 0.478127 0.004329
vt 0.486786 0.004329
vt 0.960583 0.004329
vt 0.960583 0.849876
vt 0.486786 0.849876
s 1
f 1/1/1 2/2/1 4/3/1 3/4/1
f 3/5/2 4/6/2 8/7/2 7/8/2
f 7/9/3 8/10/3 6/11/3 5/12/3
f 5/13/4 6/14/4 2/15/4 1/16/4
f 3/17/5 7/18/5 5/19/5 1/20/5
f 8/21/6 4/22/6 2/23/6 6/24/6
