v -2 -1.74846e-07 3
v -0.3186 -2.78529e-08 1.40709
v -0.3186 -2.78529e-08 1.31822
v 0.799 6.98508e-08 1.31822
v -0.3186 -2.78529e-08 1.40709
v 0.799 6.98508e-08 1.40709
v 2 1.74846e-07 3
v 0.799 6.98508e-08 0.95945
v 0.799 6.98508e-08 1.31822
v -2 -1.74846e-07 3
v -0.3186 -2.78529e-08 1.76586
v -0.3186 -2.78529e-08 1.40709
v -0.3186 -2.78529e-08 0.95945
v 0.799 6.98508e-08 0.95945
v 2 1.74846e-07 -1
v 2 1.74846e-07 3
v 0.799 6.98508e-08 1.31822
v 0.799 6.98508e-08 1.40709
v 2 1.74846e-07 3
v 0.799 6.98508e-08 1.40709
v 0.799 6.98508e-08 1.76586
v -0.3186 -2.78529e-08 0.95945
v 2 1.74846e-07 -1
v -2 -1.74846e-07 -1
v -0.3186 -2.78529e-08 1.31822
v -0.3186 -2.78529e-08 0.95945
v -2 -1.74846e-07 3
v -0.3186 -2.78529e-08 0.95945
v -2 -1.74846e-07 -1
v -2 -1.74846e-07 3
v -2 -1.74846e-07 3
v 2 1.74846e-07 3
v -0.3186 -2.78529e-08 1.76586
v 2 1.74846e-07 3
v 0.799 6.98508e-08 1.76586
v -0.3186 -2.78529e-08 1.76586
v 0.799 6.98508e-08 1.31822
v -0.3186 -2.78529e-08 1.31822
v -0.3186 -2.78529e-08 1.40709
v 2 1.74846e-07 3
v 2 1.74846e-07 -1
v 0.799 6.98508e-08 0.95945
vt 1 1
vt 0.57965 0.601772
vt 0.57965 0.579556
vt 0.30025 0.579556
vt 0.57965 0.601772
vt 0.30025 0.601772
vt 0 1
vt 0.30025 0.489862
vt 0.30025 0.579556
vt 0 0
vt 0.57965 0.691466
vt 0.57965 0.601772
vt 0.57965 0.489862
vt 0.30025 0.489862
vt 0 0
vt 0 1
vt 0.30025 0.579556
vt 0.30025 0.601772
vt 0 1
vt 0.30025 0.601772
vt 0.30025 0.691466
vt 0.57965 0.489862
vt 0 0
vt 1 0
vt 0.57965 0.579556
vt 0.57965 0.489862
vt 1 1
vt 0.57965 0.489862
vt 1 0
vt 1 1
vt 1 1
vt 0 1
vt 0.57965 0.691466
vt 0 1
vt 0.30025 0.691466
vt 0.57965 0.691466
vt 0.30025 0.579556
vt 0.57965 0.579556
vt 0.57965 0.601772
vt 0 1
vt 0 0
vt 0.30025 0.489862
f 1/1 2/2 3/3
f 4/4 5/5 6/6
f 7/7 8/8 9/9
f 10/10 11/11 12/12
f 13/13 14/14 15/15
f 16/16 17/17 18/18
f 19/19 20/20 21/21
f 22/22 23/23 24/24
f 25/25 26/26 27/27
f 28/28 29/29 30/30
f 31/31 32/32 33/33
f 34/34 35/35 36/36
f 37/37 38/38 39/39
f 40/40 41/41 42/42
